G75*
G70*
%OFA0B0*%
%FSLAX24Y24*%
%IPPOS*%
%LPD*%
%AMOC8*
5,1,8,0,0,1.08239X$1,22.5*
%
%ADD10C,0.0640*%
%ADD11C,0.0820*%
%ADD12C,0.0740*%
%ADD13C,0.1386*%
%ADD14R,0.0730X0.0730*%
%ADD15C,0.0730*%
%ADD16C,0.1080*%
%ADD17OC8,0.0680*%
%ADD18C,0.0714*%
%ADD19R,0.0820X0.0820*%
%ADD20C,0.0720*%
%ADD21C,0.1180*%
%ADD22OC8,0.0720*%
%ADD23C,0.0000*%
%ADD24C,0.1340*%
%ADD25C,0.1360*%
%ADD26C,0.1655*%
%ADD27C,0.0680*%
D10*
X026175Y032395D02*
X026175Y032955D01*
X027175Y032955D02*
X027175Y032395D01*
X028175Y032395D02*
X028175Y032955D01*
X029175Y032955D02*
X029175Y032395D01*
X030175Y032395D02*
X030175Y032955D01*
X031175Y032955D02*
X031175Y032395D01*
X032175Y032395D02*
X032175Y032955D01*
X033175Y032955D02*
X033175Y032395D01*
X034175Y032395D02*
X034175Y032955D01*
X035175Y032955D02*
X035175Y032395D01*
X036175Y032395D02*
X036175Y032955D01*
X037175Y032955D02*
X037175Y032395D01*
X038175Y032395D02*
X038175Y032955D01*
X039175Y032955D02*
X039175Y032395D01*
X040175Y032395D02*
X040175Y032955D01*
X041175Y032955D02*
X041175Y032395D01*
X042175Y032395D02*
X042175Y032955D01*
X043175Y032955D02*
X043175Y032395D01*
X044175Y032395D02*
X044175Y032955D01*
X045175Y032955D02*
X045175Y032395D01*
X045175Y038395D02*
X045175Y038955D01*
X044175Y038955D02*
X044175Y038395D01*
X043175Y038395D02*
X043175Y038955D01*
X042175Y038955D02*
X042175Y038395D01*
X041175Y038395D02*
X041175Y038955D01*
X040175Y038955D02*
X040175Y038395D01*
X039175Y038395D02*
X039175Y038955D01*
X038175Y038955D02*
X038175Y038395D01*
X037175Y038395D02*
X037175Y038955D01*
X036175Y038955D02*
X036175Y038395D01*
X035175Y038395D02*
X035175Y038955D01*
X034175Y038955D02*
X034175Y038395D01*
X033175Y038395D02*
X033175Y038955D01*
X032175Y038955D02*
X032175Y038395D01*
X031175Y038395D02*
X031175Y038955D01*
X030175Y038955D02*
X030175Y038395D01*
X029175Y038395D02*
X029175Y038955D01*
X028175Y038955D02*
X028175Y038395D01*
X027175Y038395D02*
X027175Y038955D01*
X026175Y038955D02*
X026175Y038395D01*
D11*
X032675Y040925D03*
X033675Y040925D03*
X034675Y040925D03*
X034575Y045175D03*
X033575Y045175D03*
X032575Y045175D03*
X031575Y045175D03*
X035575Y045175D03*
X036575Y045175D03*
X037575Y045175D03*
X038575Y045175D03*
X039575Y045175D03*
X040575Y045175D03*
X042175Y045175D03*
X043175Y045175D03*
X044175Y045175D03*
X045175Y045175D03*
X046175Y045175D03*
X047175Y045175D03*
X048175Y045175D03*
X049175Y045175D03*
X051175Y045175D03*
X052175Y045175D03*
X053175Y045175D03*
X054175Y045175D03*
X055175Y045175D03*
X056175Y045175D03*
X057175Y045175D03*
X058175Y045175D03*
X059535Y043455D03*
X061315Y043455D03*
X061315Y040895D03*
X059535Y040895D03*
X050175Y040175D03*
X049175Y040175D03*
X050175Y037175D03*
X050175Y036175D03*
X049175Y036175D03*
X049175Y035175D03*
X050175Y035175D03*
X052175Y030175D03*
X052175Y029175D03*
X052175Y028175D03*
X051175Y026175D03*
X050175Y026175D03*
X049175Y026175D03*
X048175Y026175D03*
X047175Y026175D03*
X046175Y026175D03*
X045175Y026175D03*
X044175Y026175D03*
X042175Y026175D03*
X041175Y026175D03*
X040175Y026175D03*
X039175Y026175D03*
X038175Y026175D03*
X037175Y026175D03*
X036175Y026175D03*
X035175Y026175D03*
X045425Y022175D03*
X046425Y022175D03*
X047425Y022175D03*
X053175Y026175D03*
X054175Y026175D03*
X055175Y026175D03*
X056175Y026175D03*
X057175Y026175D03*
X058175Y026175D03*
X059175Y026175D03*
X060175Y026175D03*
X059175Y017175D03*
X056675Y017175D03*
X039175Y019175D03*
X038175Y019175D03*
X037175Y019175D03*
X036175Y019175D03*
X035175Y019175D03*
X034175Y019175D03*
X033175Y019175D03*
X032175Y019175D03*
X036175Y014425D03*
X037175Y014425D03*
X037175Y012925D03*
X036175Y012925D03*
X025175Y020175D03*
X025175Y021175D03*
X023175Y022175D03*
X022175Y022175D03*
X021175Y022175D03*
X020175Y022175D03*
X019175Y022175D03*
X004175Y022675D03*
X004175Y023675D03*
X004175Y024675D03*
X004175Y026175D03*
X004175Y027175D03*
X004175Y028175D03*
X004175Y030175D03*
X004175Y031175D03*
X004175Y034175D03*
X005175Y034675D03*
X004175Y035175D03*
X005175Y035675D03*
X004175Y036175D03*
X005175Y036675D03*
X004175Y037175D03*
X004175Y042425D03*
X005175Y042925D03*
X004175Y043425D03*
X005175Y043925D03*
X004175Y044425D03*
X005175Y044925D03*
X021175Y045175D03*
X021175Y046175D03*
X023175Y046175D03*
X023175Y045175D03*
X041175Y043175D03*
X042175Y043175D03*
X043175Y043175D03*
X023175Y033175D03*
X022175Y033175D03*
X004175Y021175D03*
X004175Y020175D03*
X004175Y019175D03*
X017175Y010175D03*
X019175Y010175D03*
D12*
X037933Y009675D03*
X038917Y009675D03*
X038917Y008415D03*
X037933Y008415D03*
X057425Y019675D03*
X058425Y019675D03*
D13*
X040795Y009478D03*
X036055Y009478D03*
D14*
X033175Y015175D03*
X030675Y015175D03*
X009175Y020175D03*
X029675Y029175D03*
X050175Y041675D03*
D15*
X050175Y042675D03*
X029675Y027675D03*
X008175Y020175D03*
X030675Y014175D03*
X033175Y014175D03*
D16*
X051301Y008675D03*
X059175Y008675D03*
D17*
X033175Y022175D03*
X033175Y023175D03*
X032175Y023175D03*
X032175Y022175D03*
X031175Y022175D03*
X031175Y023175D03*
X030175Y023175D03*
X030175Y022175D03*
X029175Y022175D03*
X029175Y023175D03*
D18*
X036175Y022858D02*
X036175Y023492D01*
X037175Y023492D02*
X037175Y022858D01*
X038175Y022858D02*
X038175Y023492D01*
X039175Y023492D02*
X039175Y022858D01*
X040175Y022858D02*
X040175Y023492D01*
X041175Y023492D02*
X041175Y022858D01*
X042175Y022858D02*
X042175Y023492D01*
X018175Y045858D02*
X018175Y046492D01*
X017175Y046492D02*
X017175Y045858D01*
D19*
X005175Y033675D03*
X038175Y014425D03*
X038175Y012925D03*
X049175Y037175D03*
D20*
X028495Y016175D02*
X027855Y016175D01*
X027855Y015175D02*
X028495Y015175D01*
X028495Y014175D02*
X027855Y014175D01*
D21*
X007175Y013175D03*
X006175Y014175D03*
X005175Y013175D03*
X005175Y015175D03*
X007175Y015175D03*
D22*
X019175Y023175D03*
X019175Y024175D03*
X020175Y024175D03*
X021175Y024175D03*
X022175Y024175D03*
X023175Y024175D03*
X023175Y023175D03*
X022175Y023175D03*
X021175Y023175D03*
X020175Y023175D03*
D23*
X003675Y007675D02*
X003884Y007682D01*
X004093Y007679D01*
X004301Y007665D01*
X004509Y007642D01*
X004715Y007608D01*
X004919Y007564D01*
X005121Y007510D01*
X005320Y007447D01*
X005516Y007374D01*
X005708Y007291D01*
X005895Y007199D01*
X006078Y007097D01*
X006256Y006987D01*
X006428Y006869D01*
X006594Y006742D01*
X006753Y006607D01*
X006906Y006464D01*
X007051Y006314D01*
X007189Y006157D01*
X007320Y005994D01*
X007442Y005824D01*
X007555Y005649D01*
X007660Y005468D01*
X007756Y005282D01*
X007842Y005092D01*
X007919Y004898D01*
X007987Y004700D01*
X008044Y004499D01*
X008092Y004296D01*
X008130Y004090D01*
X008157Y003883D01*
X008175Y003675D01*
X008175Y003175D01*
X062175Y003175D01*
X062175Y052175D01*
X008175Y052175D01*
X008175Y051675D01*
X008158Y051473D01*
X008132Y051272D01*
X008096Y051073D01*
X008051Y050875D01*
X007996Y050680D01*
X007932Y050488D01*
X007859Y050299D01*
X007777Y050113D01*
X007687Y049932D01*
X007588Y049756D01*
X007480Y049584D01*
X007365Y049417D01*
X007242Y049256D01*
X007111Y049102D01*
X006973Y048953D01*
X006828Y048811D01*
X006677Y048677D01*
X006519Y048550D01*
X006355Y048430D01*
X006186Y048318D01*
X006012Y048215D01*
X005833Y048120D01*
X005650Y048033D01*
X005463Y047956D01*
X005272Y047887D01*
X005079Y047827D01*
X004882Y047777D01*
X004684Y047736D01*
X004484Y047705D01*
X004282Y047683D01*
X004080Y047671D01*
X003878Y047668D01*
X003675Y047675D01*
X003175Y047675D01*
X003175Y007675D01*
X003675Y007675D01*
X025203Y007990D02*
X025205Y008046D01*
X025211Y008101D01*
X025221Y008155D01*
X025234Y008209D01*
X025252Y008262D01*
X025273Y008313D01*
X025297Y008363D01*
X025325Y008411D01*
X025357Y008457D01*
X025391Y008501D01*
X025429Y008542D01*
X025469Y008580D01*
X025512Y008615D01*
X025557Y008647D01*
X025605Y008676D01*
X025654Y008702D01*
X025705Y008724D01*
X025757Y008742D01*
X025811Y008756D01*
X025866Y008767D01*
X025921Y008774D01*
X025976Y008777D01*
X026032Y008776D01*
X026087Y008771D01*
X026142Y008762D01*
X026196Y008750D01*
X026249Y008733D01*
X026301Y008713D01*
X026351Y008689D01*
X026399Y008662D01*
X026446Y008632D01*
X026490Y008598D01*
X026532Y008561D01*
X026570Y008521D01*
X026607Y008479D01*
X026640Y008434D01*
X026669Y008388D01*
X026696Y008339D01*
X026718Y008288D01*
X026738Y008236D01*
X026753Y008182D01*
X026765Y008128D01*
X026773Y008073D01*
X026777Y008018D01*
X026777Y007962D01*
X026773Y007907D01*
X026765Y007852D01*
X026753Y007798D01*
X026738Y007744D01*
X026718Y007692D01*
X026696Y007641D01*
X026669Y007592D01*
X026640Y007546D01*
X026607Y007501D01*
X026570Y007459D01*
X026532Y007419D01*
X026490Y007382D01*
X026446Y007348D01*
X026399Y007318D01*
X026351Y007291D01*
X026301Y007267D01*
X026249Y007247D01*
X026196Y007230D01*
X026142Y007218D01*
X026087Y007209D01*
X026032Y007204D01*
X025976Y007203D01*
X025921Y007206D01*
X025866Y007213D01*
X025811Y007224D01*
X025757Y007238D01*
X025705Y007256D01*
X025654Y007278D01*
X025605Y007304D01*
X025557Y007333D01*
X025512Y007365D01*
X025469Y007400D01*
X025429Y007438D01*
X025391Y007479D01*
X025357Y007523D01*
X025325Y007569D01*
X025297Y007617D01*
X025273Y007667D01*
X025252Y007718D01*
X025234Y007771D01*
X025221Y007825D01*
X025211Y007879D01*
X025205Y007934D01*
X025203Y007990D01*
X044888Y007990D02*
X044890Y008046D01*
X044896Y008101D01*
X044906Y008155D01*
X044919Y008209D01*
X044937Y008262D01*
X044958Y008313D01*
X044982Y008363D01*
X045010Y008411D01*
X045042Y008457D01*
X045076Y008501D01*
X045114Y008542D01*
X045154Y008580D01*
X045197Y008615D01*
X045242Y008647D01*
X045290Y008676D01*
X045339Y008702D01*
X045390Y008724D01*
X045442Y008742D01*
X045496Y008756D01*
X045551Y008767D01*
X045606Y008774D01*
X045661Y008777D01*
X045717Y008776D01*
X045772Y008771D01*
X045827Y008762D01*
X045881Y008750D01*
X045934Y008733D01*
X045986Y008713D01*
X046036Y008689D01*
X046084Y008662D01*
X046131Y008632D01*
X046175Y008598D01*
X046217Y008561D01*
X046255Y008521D01*
X046292Y008479D01*
X046325Y008434D01*
X046354Y008388D01*
X046381Y008339D01*
X046403Y008288D01*
X046423Y008236D01*
X046438Y008182D01*
X046450Y008128D01*
X046458Y008073D01*
X046462Y008018D01*
X046462Y007962D01*
X046458Y007907D01*
X046450Y007852D01*
X046438Y007798D01*
X046423Y007744D01*
X046403Y007692D01*
X046381Y007641D01*
X046354Y007592D01*
X046325Y007546D01*
X046292Y007501D01*
X046255Y007459D01*
X046217Y007419D01*
X046175Y007382D01*
X046131Y007348D01*
X046084Y007318D01*
X046036Y007291D01*
X045986Y007267D01*
X045934Y007247D01*
X045881Y007230D01*
X045827Y007218D01*
X045772Y007209D01*
X045717Y007204D01*
X045661Y007203D01*
X045606Y007206D01*
X045551Y007213D01*
X045496Y007224D01*
X045442Y007238D01*
X045390Y007256D01*
X045339Y007278D01*
X045290Y007304D01*
X045242Y007333D01*
X045197Y007365D01*
X045154Y007400D01*
X045114Y007438D01*
X045076Y007479D01*
X045042Y007523D01*
X045010Y007569D01*
X044982Y007617D01*
X044958Y007667D01*
X044937Y007718D01*
X044919Y007771D01*
X044906Y007825D01*
X044896Y007879D01*
X044890Y007934D01*
X044888Y007990D01*
X007486Y027675D02*
X007488Y027731D01*
X007494Y027786D01*
X007504Y027840D01*
X007517Y027894D01*
X007535Y027947D01*
X007556Y027998D01*
X007580Y028048D01*
X007608Y028096D01*
X007640Y028142D01*
X007674Y028186D01*
X007712Y028227D01*
X007752Y028265D01*
X007795Y028300D01*
X007840Y028332D01*
X007888Y028361D01*
X007937Y028387D01*
X007988Y028409D01*
X008040Y028427D01*
X008094Y028441D01*
X008149Y028452D01*
X008204Y028459D01*
X008259Y028462D01*
X008315Y028461D01*
X008370Y028456D01*
X008425Y028447D01*
X008479Y028435D01*
X008532Y028418D01*
X008584Y028398D01*
X008634Y028374D01*
X008682Y028347D01*
X008729Y028317D01*
X008773Y028283D01*
X008815Y028246D01*
X008853Y028206D01*
X008890Y028164D01*
X008923Y028119D01*
X008952Y028073D01*
X008979Y028024D01*
X009001Y027973D01*
X009021Y027921D01*
X009036Y027867D01*
X009048Y027813D01*
X009056Y027758D01*
X009060Y027703D01*
X009060Y027647D01*
X009056Y027592D01*
X009048Y027537D01*
X009036Y027483D01*
X009021Y027429D01*
X009001Y027377D01*
X008979Y027326D01*
X008952Y027277D01*
X008923Y027231D01*
X008890Y027186D01*
X008853Y027144D01*
X008815Y027104D01*
X008773Y027067D01*
X008729Y027033D01*
X008682Y027003D01*
X008634Y026976D01*
X008584Y026952D01*
X008532Y026932D01*
X008479Y026915D01*
X008425Y026903D01*
X008370Y026894D01*
X008315Y026889D01*
X008259Y026888D01*
X008204Y026891D01*
X008149Y026898D01*
X008094Y026909D01*
X008040Y026923D01*
X007988Y026941D01*
X007937Y026963D01*
X007888Y026989D01*
X007840Y027018D01*
X007795Y027050D01*
X007752Y027085D01*
X007712Y027123D01*
X007674Y027164D01*
X007640Y027208D01*
X007608Y027254D01*
X007580Y027302D01*
X007556Y027352D01*
X007535Y027403D01*
X007517Y027456D01*
X007504Y027510D01*
X007494Y027564D01*
X007488Y027619D01*
X007486Y027675D01*
X007045Y033175D02*
X007047Y033225D01*
X007053Y033275D01*
X007063Y033324D01*
X007077Y033372D01*
X007094Y033419D01*
X007115Y033464D01*
X007140Y033508D01*
X007168Y033549D01*
X007200Y033588D01*
X007234Y033625D01*
X007271Y033659D01*
X007311Y033689D01*
X007353Y033716D01*
X007397Y033740D01*
X007443Y033761D01*
X007490Y033777D01*
X007538Y033790D01*
X007588Y033799D01*
X007637Y033804D01*
X007688Y033805D01*
X007738Y033802D01*
X007787Y033795D01*
X007836Y033784D01*
X007884Y033769D01*
X007930Y033751D01*
X007975Y033729D01*
X008018Y033703D01*
X008059Y033674D01*
X008098Y033642D01*
X008134Y033607D01*
X008166Y033569D01*
X008196Y033529D01*
X008223Y033486D01*
X008246Y033442D01*
X008265Y033396D01*
X008281Y033348D01*
X008293Y033299D01*
X008301Y033250D01*
X008305Y033200D01*
X008305Y033150D01*
X008301Y033100D01*
X008293Y033051D01*
X008281Y033002D01*
X008265Y032954D01*
X008246Y032908D01*
X008223Y032864D01*
X008196Y032821D01*
X008166Y032781D01*
X008134Y032743D01*
X008098Y032708D01*
X008059Y032676D01*
X008018Y032647D01*
X007975Y032621D01*
X007930Y032599D01*
X007884Y032581D01*
X007836Y032566D01*
X007787Y032555D01*
X007738Y032548D01*
X007688Y032545D01*
X007637Y032546D01*
X007588Y032551D01*
X007538Y032560D01*
X007490Y032573D01*
X007443Y032589D01*
X007397Y032610D01*
X007353Y032634D01*
X007311Y032661D01*
X007271Y032691D01*
X007234Y032725D01*
X007200Y032762D01*
X007168Y032801D01*
X007140Y032842D01*
X007115Y032886D01*
X007094Y032931D01*
X007077Y032978D01*
X007063Y033026D01*
X007053Y033075D01*
X007047Y033125D01*
X007045Y033175D01*
X007045Y037675D02*
X007047Y037725D01*
X007053Y037775D01*
X007063Y037824D01*
X007077Y037872D01*
X007094Y037919D01*
X007115Y037964D01*
X007140Y038008D01*
X007168Y038049D01*
X007200Y038088D01*
X007234Y038125D01*
X007271Y038159D01*
X007311Y038189D01*
X007353Y038216D01*
X007397Y038240D01*
X007443Y038261D01*
X007490Y038277D01*
X007538Y038290D01*
X007588Y038299D01*
X007637Y038304D01*
X007688Y038305D01*
X007738Y038302D01*
X007787Y038295D01*
X007836Y038284D01*
X007884Y038269D01*
X007930Y038251D01*
X007975Y038229D01*
X008018Y038203D01*
X008059Y038174D01*
X008098Y038142D01*
X008134Y038107D01*
X008166Y038069D01*
X008196Y038029D01*
X008223Y037986D01*
X008246Y037942D01*
X008265Y037896D01*
X008281Y037848D01*
X008293Y037799D01*
X008301Y037750D01*
X008305Y037700D01*
X008305Y037650D01*
X008301Y037600D01*
X008293Y037551D01*
X008281Y037502D01*
X008265Y037454D01*
X008246Y037408D01*
X008223Y037364D01*
X008196Y037321D01*
X008166Y037281D01*
X008134Y037243D01*
X008098Y037208D01*
X008059Y037176D01*
X008018Y037147D01*
X007975Y037121D01*
X007930Y037099D01*
X007884Y037081D01*
X007836Y037066D01*
X007787Y037055D01*
X007738Y037048D01*
X007688Y037045D01*
X007637Y037046D01*
X007588Y037051D01*
X007538Y037060D01*
X007490Y037073D01*
X007443Y037089D01*
X007397Y037110D01*
X007353Y037134D01*
X007311Y037161D01*
X007271Y037191D01*
X007234Y037225D01*
X007200Y037262D01*
X007168Y037301D01*
X007140Y037342D01*
X007115Y037386D01*
X007094Y037431D01*
X007077Y037478D01*
X007063Y037526D01*
X007053Y037575D01*
X007047Y037625D01*
X007045Y037675D01*
X010439Y039486D02*
X010441Y039542D01*
X010447Y039597D01*
X010457Y039651D01*
X010470Y039705D01*
X010488Y039758D01*
X010509Y039809D01*
X010533Y039859D01*
X010561Y039907D01*
X010593Y039953D01*
X010627Y039997D01*
X010665Y040038D01*
X010705Y040076D01*
X010748Y040111D01*
X010793Y040143D01*
X010841Y040172D01*
X010890Y040198D01*
X010941Y040220D01*
X010993Y040238D01*
X011047Y040252D01*
X011102Y040263D01*
X011157Y040270D01*
X011212Y040273D01*
X011268Y040272D01*
X011323Y040267D01*
X011378Y040258D01*
X011432Y040246D01*
X011485Y040229D01*
X011537Y040209D01*
X011587Y040185D01*
X011635Y040158D01*
X011682Y040128D01*
X011726Y040094D01*
X011768Y040057D01*
X011806Y040017D01*
X011843Y039975D01*
X011876Y039930D01*
X011905Y039884D01*
X011932Y039835D01*
X011954Y039784D01*
X011974Y039732D01*
X011989Y039678D01*
X012001Y039624D01*
X012009Y039569D01*
X012013Y039514D01*
X012013Y039458D01*
X012009Y039403D01*
X012001Y039348D01*
X011989Y039294D01*
X011974Y039240D01*
X011954Y039188D01*
X011932Y039137D01*
X011905Y039088D01*
X011876Y039042D01*
X011843Y038997D01*
X011806Y038955D01*
X011768Y038915D01*
X011726Y038878D01*
X011682Y038844D01*
X011635Y038814D01*
X011587Y038787D01*
X011537Y038763D01*
X011485Y038743D01*
X011432Y038726D01*
X011378Y038714D01*
X011323Y038705D01*
X011268Y038700D01*
X011212Y038699D01*
X011157Y038702D01*
X011102Y038709D01*
X011047Y038720D01*
X010993Y038734D01*
X010941Y038752D01*
X010890Y038774D01*
X010841Y038800D01*
X010793Y038829D01*
X010748Y038861D01*
X010705Y038896D01*
X010665Y038934D01*
X010627Y038975D01*
X010593Y039019D01*
X010561Y039065D01*
X010533Y039113D01*
X010509Y039163D01*
X010488Y039214D01*
X010470Y039267D01*
X010457Y039321D01*
X010447Y039375D01*
X010441Y039430D01*
X010439Y039486D01*
X007035Y041675D02*
X007037Y041725D01*
X007043Y041775D01*
X007053Y041824D01*
X007066Y041873D01*
X007084Y041920D01*
X007105Y041966D01*
X007129Y042009D01*
X007157Y042051D01*
X007188Y042091D01*
X007222Y042128D01*
X007259Y042162D01*
X007299Y042193D01*
X007341Y042221D01*
X007384Y042245D01*
X007430Y042266D01*
X007477Y042284D01*
X007526Y042297D01*
X007575Y042307D01*
X007625Y042313D01*
X007675Y042315D01*
X007725Y042313D01*
X007775Y042307D01*
X007824Y042297D01*
X007873Y042284D01*
X007920Y042266D01*
X007966Y042245D01*
X008009Y042221D01*
X008051Y042193D01*
X008091Y042162D01*
X008128Y042128D01*
X008162Y042091D01*
X008193Y042051D01*
X008221Y042009D01*
X008245Y041966D01*
X008266Y041920D01*
X008284Y041873D01*
X008297Y041824D01*
X008307Y041775D01*
X008313Y041725D01*
X008315Y041675D01*
X008313Y041625D01*
X008307Y041575D01*
X008297Y041526D01*
X008284Y041477D01*
X008266Y041430D01*
X008245Y041384D01*
X008221Y041341D01*
X008193Y041299D01*
X008162Y041259D01*
X008128Y041222D01*
X008091Y041188D01*
X008051Y041157D01*
X008009Y041129D01*
X007966Y041105D01*
X007920Y041084D01*
X007873Y041066D01*
X007824Y041053D01*
X007775Y041043D01*
X007725Y041037D01*
X007675Y041035D01*
X007625Y041037D01*
X007575Y041043D01*
X007526Y041053D01*
X007477Y041066D01*
X007430Y041084D01*
X007384Y041105D01*
X007341Y041129D01*
X007299Y041157D01*
X007259Y041188D01*
X007222Y041222D01*
X007188Y041259D01*
X007157Y041299D01*
X007129Y041341D01*
X007105Y041384D01*
X007084Y041430D01*
X007066Y041477D01*
X007053Y041526D01*
X007043Y041575D01*
X007037Y041625D01*
X007035Y041675D01*
X007035Y045675D02*
X007037Y045725D01*
X007043Y045775D01*
X007053Y045824D01*
X007066Y045873D01*
X007084Y045920D01*
X007105Y045966D01*
X007129Y046009D01*
X007157Y046051D01*
X007188Y046091D01*
X007222Y046128D01*
X007259Y046162D01*
X007299Y046193D01*
X007341Y046221D01*
X007384Y046245D01*
X007430Y046266D01*
X007477Y046284D01*
X007526Y046297D01*
X007575Y046307D01*
X007625Y046313D01*
X007675Y046315D01*
X007725Y046313D01*
X007775Y046307D01*
X007824Y046297D01*
X007873Y046284D01*
X007920Y046266D01*
X007966Y046245D01*
X008009Y046221D01*
X008051Y046193D01*
X008091Y046162D01*
X008128Y046128D01*
X008162Y046091D01*
X008193Y046051D01*
X008221Y046009D01*
X008245Y045966D01*
X008266Y045920D01*
X008284Y045873D01*
X008297Y045824D01*
X008307Y045775D01*
X008313Y045725D01*
X008315Y045675D01*
X008313Y045625D01*
X008307Y045575D01*
X008297Y045526D01*
X008284Y045477D01*
X008266Y045430D01*
X008245Y045384D01*
X008221Y045341D01*
X008193Y045299D01*
X008162Y045259D01*
X008128Y045222D01*
X008091Y045188D01*
X008051Y045157D01*
X008009Y045129D01*
X007966Y045105D01*
X007920Y045084D01*
X007873Y045066D01*
X007824Y045053D01*
X007775Y045043D01*
X007725Y045037D01*
X007675Y045035D01*
X007625Y045037D01*
X007575Y045043D01*
X007526Y045053D01*
X007477Y045066D01*
X007430Y045084D01*
X007384Y045105D01*
X007341Y045129D01*
X007299Y045157D01*
X007259Y045188D01*
X007222Y045222D01*
X007188Y045259D01*
X007157Y045299D01*
X007129Y045341D01*
X007105Y045384D01*
X007084Y045430D01*
X007066Y045477D01*
X007053Y045526D01*
X007043Y045575D01*
X007037Y045625D01*
X007035Y045675D01*
X025203Y047360D02*
X025205Y047416D01*
X025211Y047471D01*
X025221Y047525D01*
X025234Y047579D01*
X025252Y047632D01*
X025273Y047683D01*
X025297Y047733D01*
X025325Y047781D01*
X025357Y047827D01*
X025391Y047871D01*
X025429Y047912D01*
X025469Y047950D01*
X025512Y047985D01*
X025557Y048017D01*
X025605Y048046D01*
X025654Y048072D01*
X025705Y048094D01*
X025757Y048112D01*
X025811Y048126D01*
X025866Y048137D01*
X025921Y048144D01*
X025976Y048147D01*
X026032Y048146D01*
X026087Y048141D01*
X026142Y048132D01*
X026196Y048120D01*
X026249Y048103D01*
X026301Y048083D01*
X026351Y048059D01*
X026399Y048032D01*
X026446Y048002D01*
X026490Y047968D01*
X026532Y047931D01*
X026570Y047891D01*
X026607Y047849D01*
X026640Y047804D01*
X026669Y047758D01*
X026696Y047709D01*
X026718Y047658D01*
X026738Y047606D01*
X026753Y047552D01*
X026765Y047498D01*
X026773Y047443D01*
X026777Y047388D01*
X026777Y047332D01*
X026773Y047277D01*
X026765Y047222D01*
X026753Y047168D01*
X026738Y047114D01*
X026718Y047062D01*
X026696Y047011D01*
X026669Y046962D01*
X026640Y046916D01*
X026607Y046871D01*
X026570Y046829D01*
X026532Y046789D01*
X026490Y046752D01*
X026446Y046718D01*
X026399Y046688D01*
X026351Y046661D01*
X026301Y046637D01*
X026249Y046617D01*
X026196Y046600D01*
X026142Y046588D01*
X026087Y046579D01*
X026032Y046574D01*
X025976Y046573D01*
X025921Y046576D01*
X025866Y046583D01*
X025811Y046594D01*
X025757Y046608D01*
X025705Y046626D01*
X025654Y046648D01*
X025605Y046674D01*
X025557Y046703D01*
X025512Y046735D01*
X025469Y046770D01*
X025429Y046808D01*
X025391Y046849D01*
X025357Y046893D01*
X025325Y046939D01*
X025297Y046987D01*
X025273Y047037D01*
X025252Y047088D01*
X025234Y047141D01*
X025221Y047195D01*
X025211Y047249D01*
X025205Y047304D01*
X025203Y047360D01*
X044888Y047360D02*
X044890Y047416D01*
X044896Y047471D01*
X044906Y047525D01*
X044919Y047579D01*
X044937Y047632D01*
X044958Y047683D01*
X044982Y047733D01*
X045010Y047781D01*
X045042Y047827D01*
X045076Y047871D01*
X045114Y047912D01*
X045154Y047950D01*
X045197Y047985D01*
X045242Y048017D01*
X045290Y048046D01*
X045339Y048072D01*
X045390Y048094D01*
X045442Y048112D01*
X045496Y048126D01*
X045551Y048137D01*
X045606Y048144D01*
X045661Y048147D01*
X045717Y048146D01*
X045772Y048141D01*
X045827Y048132D01*
X045881Y048120D01*
X045934Y048103D01*
X045986Y048083D01*
X046036Y048059D01*
X046084Y048032D01*
X046131Y048002D01*
X046175Y047968D01*
X046217Y047931D01*
X046255Y047891D01*
X046292Y047849D01*
X046325Y047804D01*
X046354Y047758D01*
X046381Y047709D01*
X046403Y047658D01*
X046423Y047606D01*
X046438Y047552D01*
X046450Y047498D01*
X046458Y047443D01*
X046462Y047388D01*
X046462Y047332D01*
X046458Y047277D01*
X046450Y047222D01*
X046438Y047168D01*
X046423Y047114D01*
X046403Y047062D01*
X046381Y047011D01*
X046354Y046962D01*
X046325Y046916D01*
X046292Y046871D01*
X046255Y046829D01*
X046217Y046789D01*
X046175Y046752D01*
X046131Y046718D01*
X046084Y046688D01*
X046036Y046661D01*
X045986Y046637D01*
X045934Y046617D01*
X045881Y046600D01*
X045827Y046588D01*
X045772Y046579D01*
X045717Y046574D01*
X045661Y046573D01*
X045606Y046576D01*
X045551Y046583D01*
X045496Y046594D01*
X045442Y046608D01*
X045390Y046626D01*
X045339Y046648D01*
X045290Y046674D01*
X045242Y046703D01*
X045197Y046735D01*
X045154Y046770D01*
X045114Y046808D01*
X045076Y046849D01*
X045042Y046893D01*
X045010Y046939D01*
X044982Y046987D01*
X044958Y047037D01*
X044937Y047088D01*
X044919Y047141D01*
X044906Y047195D01*
X044896Y047249D01*
X044890Y047304D01*
X044888Y047360D01*
D24*
X007675Y037675D03*
X007675Y033175D03*
D25*
X007675Y041675D03*
X007675Y045675D03*
D26*
X011226Y039486D03*
X025990Y047360D03*
X045675Y047360D03*
X008273Y027675D03*
X025990Y007990D03*
X045675Y007990D03*
D27*
X034675Y007175D03*
X033675Y006175D03*
X032675Y007175D03*
X031675Y006175D03*
X030675Y007175D03*
X029675Y006175D03*
X028675Y007175D03*
X027675Y006175D03*
X026675Y005175D03*
X028675Y005175D03*
X030675Y005175D03*
X032675Y005175D03*
X034675Y005175D03*
X028675Y009175D03*
X027675Y010175D03*
M02*
