G75*
G70*
%OFA0B0*%
%FSLAX24Y24*%
%IPPOS*%
%LPD*%
%AMOC8*
5,1,8,0,0,1.08239X$1,22.5*
%
%ADD10C,0.0560*%
%ADD11C,0.0740*%
%ADD12C,0.0660*%
%ADD13C,0.1306*%
%ADD14R,0.0650X0.0650*%
%ADD15C,0.0650*%
%ADD16C,0.1000*%
%ADD17OC8,0.0600*%
%ADD18C,0.0634*%
%ADD19R,0.0740X0.0740*%
%ADD20C,0.0240*%
%ADD21C,0.0640*%
%ADD22C,0.1100*%
%ADD23OC8,0.0640*%
%ADD24C,0.0000*%
%ADD25C,0.0100*%
%ADD26C,0.0400*%
%ADD27C,0.0150*%
%ADD28C,0.0160*%
%ADD29C,0.0600*%
%ADD30C,0.0436*%
D10*
X026175Y032395D02*
X026175Y032955D01*
X027175Y032955D02*
X027175Y032395D01*
X028175Y032395D02*
X028175Y032955D01*
X029175Y032955D02*
X029175Y032395D01*
X030175Y032395D02*
X030175Y032955D01*
X031175Y032955D02*
X031175Y032395D01*
X032175Y032395D02*
X032175Y032955D01*
X033175Y032955D02*
X033175Y032395D01*
X034175Y032395D02*
X034175Y032955D01*
X035175Y032955D02*
X035175Y032395D01*
X036175Y032395D02*
X036175Y032955D01*
X037175Y032955D02*
X037175Y032395D01*
X038175Y032395D02*
X038175Y032955D01*
X039175Y032955D02*
X039175Y032395D01*
X040175Y032395D02*
X040175Y032955D01*
X041175Y032955D02*
X041175Y032395D01*
X042175Y032395D02*
X042175Y032955D01*
X043175Y032955D02*
X043175Y032395D01*
X044175Y032395D02*
X044175Y032955D01*
X045175Y032955D02*
X045175Y032395D01*
X045175Y038395D02*
X045175Y038955D01*
X044175Y038955D02*
X044175Y038395D01*
X043175Y038395D02*
X043175Y038955D01*
X042175Y038955D02*
X042175Y038395D01*
X041175Y038395D02*
X041175Y038955D01*
X040175Y038955D02*
X040175Y038395D01*
X039175Y038395D02*
X039175Y038955D01*
X038175Y038955D02*
X038175Y038395D01*
X037175Y038395D02*
X037175Y038955D01*
X036175Y038955D02*
X036175Y038395D01*
X035175Y038395D02*
X035175Y038955D01*
X034175Y038955D02*
X034175Y038395D01*
X033175Y038395D02*
X033175Y038955D01*
X032175Y038955D02*
X032175Y038395D01*
X031175Y038395D02*
X031175Y038955D01*
X030175Y038955D02*
X030175Y038395D01*
X029175Y038395D02*
X029175Y038955D01*
X028175Y038955D02*
X028175Y038395D01*
X027175Y038395D02*
X027175Y038955D01*
X026175Y038955D02*
X026175Y038395D01*
D11*
X032675Y040925D03*
X033675Y040925D03*
X034675Y040925D03*
X034575Y045175D03*
X033575Y045175D03*
X032575Y045175D03*
X031575Y045175D03*
X035575Y045175D03*
X036575Y045175D03*
X037575Y045175D03*
X038575Y045175D03*
X039575Y045175D03*
X040575Y045175D03*
X042175Y045175D03*
X043175Y045175D03*
X044175Y045175D03*
X045175Y045175D03*
X046175Y045175D03*
X047175Y045175D03*
X048175Y045175D03*
X049175Y045175D03*
X051175Y045175D03*
X052175Y045175D03*
X053175Y045175D03*
X054175Y045175D03*
X055175Y045175D03*
X056175Y045175D03*
X057175Y045175D03*
X058175Y045175D03*
X059535Y043455D03*
X061315Y043455D03*
X061315Y040895D03*
X059535Y040895D03*
X050175Y040175D03*
X049175Y040175D03*
X050175Y037175D03*
X050175Y036175D03*
X049175Y036175D03*
X049175Y035175D03*
X050175Y035175D03*
X052175Y030175D03*
X052175Y029175D03*
X052175Y028175D03*
X051175Y026175D03*
X050175Y026175D03*
X049175Y026175D03*
X048175Y026175D03*
X047175Y026175D03*
X046175Y026175D03*
X045175Y026175D03*
X044175Y026175D03*
X042175Y026175D03*
X041175Y026175D03*
X040175Y026175D03*
X039175Y026175D03*
X038175Y026175D03*
X037175Y026175D03*
X036175Y026175D03*
X035175Y026175D03*
X045425Y022175D03*
X046425Y022175D03*
X047425Y022175D03*
X053175Y026175D03*
X054175Y026175D03*
X055175Y026175D03*
X056175Y026175D03*
X057175Y026175D03*
X058175Y026175D03*
X059175Y026175D03*
X060175Y026175D03*
X059175Y017175D03*
X056675Y017175D03*
X039175Y019175D03*
X038175Y019175D03*
X037175Y019175D03*
X036175Y019175D03*
X035175Y019175D03*
X034175Y019175D03*
X033175Y019175D03*
X032175Y019175D03*
X036175Y014425D03*
X037175Y014425D03*
X037175Y012925D03*
X036175Y012925D03*
X025175Y020175D03*
X025175Y021175D03*
X023175Y022175D03*
X022175Y022175D03*
X021175Y022175D03*
X020175Y022175D03*
X019175Y022175D03*
X004175Y022675D03*
X004175Y023675D03*
X004175Y024675D03*
X004175Y026175D03*
X004175Y027175D03*
X004175Y028175D03*
X004175Y030175D03*
X004175Y031175D03*
X004175Y034175D03*
X005175Y034675D03*
X004175Y035175D03*
X005175Y035675D03*
X004175Y036175D03*
X005175Y036675D03*
X004175Y037175D03*
X004175Y042425D03*
X005175Y042925D03*
X004175Y043425D03*
X005175Y043925D03*
X004175Y044425D03*
X005175Y044925D03*
X021175Y045175D03*
X021175Y046175D03*
X023175Y046175D03*
X023175Y045175D03*
X041175Y043175D03*
X042175Y043175D03*
X043175Y043175D03*
X023175Y033175D03*
X022175Y033175D03*
X004175Y021175D03*
X004175Y020175D03*
X004175Y019175D03*
X017175Y010175D03*
X019175Y010175D03*
D12*
X037933Y009675D03*
X038917Y009675D03*
X038917Y008415D03*
X037933Y008415D03*
X057425Y019675D03*
X058425Y019675D03*
D13*
X040795Y009478D03*
X036055Y009478D03*
D14*
X033175Y015175D03*
X030675Y015175D03*
X009175Y020175D03*
X029675Y029175D03*
X050175Y041675D03*
D15*
X050175Y042675D03*
X029675Y027675D03*
X008175Y020175D03*
X030675Y014175D03*
X033175Y014175D03*
D16*
X051301Y008675D03*
X059175Y008675D03*
D17*
X033175Y022175D03*
X033175Y023175D03*
X032175Y023175D03*
X032175Y022175D03*
X031175Y022175D03*
X031175Y023175D03*
X030175Y023175D03*
X030175Y022175D03*
X029175Y022175D03*
X029175Y023175D03*
D18*
X036175Y022858D02*
X036175Y023492D01*
X037175Y023492D02*
X037175Y022858D01*
X038175Y022858D02*
X038175Y023492D01*
X039175Y023492D02*
X039175Y022858D01*
X040175Y022858D02*
X040175Y023492D01*
X041175Y023492D02*
X041175Y022858D01*
X042175Y022858D02*
X042175Y023492D01*
X018175Y045858D02*
X018175Y046492D01*
X017175Y046492D02*
X017175Y045858D01*
D19*
X005175Y033675D03*
X038175Y014425D03*
X038175Y012925D03*
X049175Y037175D03*
D20*
X036425Y020675D02*
X036175Y020425D01*
X032175Y020425D01*
X032175Y019175D01*
X030675Y017675D01*
X030675Y015175D01*
X028175Y015175D01*
X028175Y014175D02*
X030675Y014175D01*
X033175Y014175D01*
X033175Y015175D02*
X036175Y015175D01*
X036175Y014425D01*
X036175Y012925D01*
X037175Y012925D02*
X037175Y011675D01*
X032675Y011675D01*
X030675Y013675D01*
X030675Y014175D01*
X033175Y017675D02*
X041975Y017675D01*
X038175Y014425D02*
X038175Y012925D01*
X037175Y012925D02*
X037175Y014425D01*
X037175Y011675D02*
X037925Y011675D01*
X037925Y009675D01*
X037925Y008425D02*
X037675Y008175D01*
X034675Y008175D01*
X033775Y008175D01*
X033775Y008425D01*
X034175Y018175D02*
X034175Y019175D01*
X034175Y018175D02*
X036175Y018175D01*
X036175Y019175D01*
D21*
X028495Y016175D02*
X027855Y016175D01*
X027855Y015175D02*
X028495Y015175D01*
X028495Y014175D02*
X027855Y014175D01*
D22*
X007175Y013175D03*
X006175Y014175D03*
X005175Y013175D03*
X005175Y015175D03*
X007175Y015175D03*
D23*
X019175Y023175D03*
X019175Y024175D03*
X020175Y024175D03*
X021175Y024175D03*
X022175Y024175D03*
X023175Y024175D03*
X023175Y023175D03*
X022175Y023175D03*
X021175Y023175D03*
X020175Y023175D03*
D24*
X003675Y007675D02*
X003884Y007682D01*
X004093Y007679D01*
X004301Y007665D01*
X004509Y007642D01*
X004715Y007608D01*
X004919Y007564D01*
X005121Y007510D01*
X005320Y007447D01*
X005516Y007374D01*
X005708Y007291D01*
X005895Y007199D01*
X006078Y007097D01*
X006256Y006987D01*
X006428Y006869D01*
X006594Y006742D01*
X006753Y006607D01*
X006906Y006464D01*
X007051Y006314D01*
X007189Y006157D01*
X007320Y005994D01*
X007442Y005824D01*
X007555Y005649D01*
X007660Y005468D01*
X007756Y005282D01*
X007842Y005092D01*
X007919Y004898D01*
X007987Y004700D01*
X008044Y004499D01*
X008092Y004296D01*
X008130Y004090D01*
X008157Y003883D01*
X008175Y003675D01*
X008175Y003175D01*
X062175Y003175D01*
X062175Y052175D01*
X008175Y052175D01*
X008175Y051675D01*
X008158Y051473D01*
X008132Y051272D01*
X008096Y051073D01*
X008051Y050875D01*
X007996Y050680D01*
X007932Y050488D01*
X007859Y050299D01*
X007777Y050113D01*
X007687Y049932D01*
X007588Y049756D01*
X007480Y049584D01*
X007365Y049417D01*
X007242Y049256D01*
X007111Y049102D01*
X006973Y048953D01*
X006828Y048811D01*
X006677Y048677D01*
X006519Y048550D01*
X006355Y048430D01*
X006186Y048318D01*
X006012Y048215D01*
X005833Y048120D01*
X005650Y048033D01*
X005463Y047956D01*
X005272Y047887D01*
X005079Y047827D01*
X004882Y047777D01*
X004684Y047736D01*
X004484Y047705D01*
X004282Y047683D01*
X004080Y047671D01*
X003878Y047668D01*
X003675Y047675D01*
X003175Y047675D01*
X003175Y007675D01*
X003675Y007675D01*
X025203Y007990D02*
X025205Y008046D01*
X025211Y008101D01*
X025221Y008155D01*
X025234Y008209D01*
X025252Y008262D01*
X025273Y008313D01*
X025297Y008363D01*
X025325Y008411D01*
X025357Y008457D01*
X025391Y008501D01*
X025429Y008542D01*
X025469Y008580D01*
X025512Y008615D01*
X025557Y008647D01*
X025605Y008676D01*
X025654Y008702D01*
X025705Y008724D01*
X025757Y008742D01*
X025811Y008756D01*
X025866Y008767D01*
X025921Y008774D01*
X025976Y008777D01*
X026032Y008776D01*
X026087Y008771D01*
X026142Y008762D01*
X026196Y008750D01*
X026249Y008733D01*
X026301Y008713D01*
X026351Y008689D01*
X026399Y008662D01*
X026446Y008632D01*
X026490Y008598D01*
X026532Y008561D01*
X026570Y008521D01*
X026607Y008479D01*
X026640Y008434D01*
X026669Y008388D01*
X026696Y008339D01*
X026718Y008288D01*
X026738Y008236D01*
X026753Y008182D01*
X026765Y008128D01*
X026773Y008073D01*
X026777Y008018D01*
X026777Y007962D01*
X026773Y007907D01*
X026765Y007852D01*
X026753Y007798D01*
X026738Y007744D01*
X026718Y007692D01*
X026696Y007641D01*
X026669Y007592D01*
X026640Y007546D01*
X026607Y007501D01*
X026570Y007459D01*
X026532Y007419D01*
X026490Y007382D01*
X026446Y007348D01*
X026399Y007318D01*
X026351Y007291D01*
X026301Y007267D01*
X026249Y007247D01*
X026196Y007230D01*
X026142Y007218D01*
X026087Y007209D01*
X026032Y007204D01*
X025976Y007203D01*
X025921Y007206D01*
X025866Y007213D01*
X025811Y007224D01*
X025757Y007238D01*
X025705Y007256D01*
X025654Y007278D01*
X025605Y007304D01*
X025557Y007333D01*
X025512Y007365D01*
X025469Y007400D01*
X025429Y007438D01*
X025391Y007479D01*
X025357Y007523D01*
X025325Y007569D01*
X025297Y007617D01*
X025273Y007667D01*
X025252Y007718D01*
X025234Y007771D01*
X025221Y007825D01*
X025211Y007879D01*
X025205Y007934D01*
X025203Y007990D01*
X044888Y007990D02*
X044890Y008046D01*
X044896Y008101D01*
X044906Y008155D01*
X044919Y008209D01*
X044937Y008262D01*
X044958Y008313D01*
X044982Y008363D01*
X045010Y008411D01*
X045042Y008457D01*
X045076Y008501D01*
X045114Y008542D01*
X045154Y008580D01*
X045197Y008615D01*
X045242Y008647D01*
X045290Y008676D01*
X045339Y008702D01*
X045390Y008724D01*
X045442Y008742D01*
X045496Y008756D01*
X045551Y008767D01*
X045606Y008774D01*
X045661Y008777D01*
X045717Y008776D01*
X045772Y008771D01*
X045827Y008762D01*
X045881Y008750D01*
X045934Y008733D01*
X045986Y008713D01*
X046036Y008689D01*
X046084Y008662D01*
X046131Y008632D01*
X046175Y008598D01*
X046217Y008561D01*
X046255Y008521D01*
X046292Y008479D01*
X046325Y008434D01*
X046354Y008388D01*
X046381Y008339D01*
X046403Y008288D01*
X046423Y008236D01*
X046438Y008182D01*
X046450Y008128D01*
X046458Y008073D01*
X046462Y008018D01*
X046462Y007962D01*
X046458Y007907D01*
X046450Y007852D01*
X046438Y007798D01*
X046423Y007744D01*
X046403Y007692D01*
X046381Y007641D01*
X046354Y007592D01*
X046325Y007546D01*
X046292Y007501D01*
X046255Y007459D01*
X046217Y007419D01*
X046175Y007382D01*
X046131Y007348D01*
X046084Y007318D01*
X046036Y007291D01*
X045986Y007267D01*
X045934Y007247D01*
X045881Y007230D01*
X045827Y007218D01*
X045772Y007209D01*
X045717Y007204D01*
X045661Y007203D01*
X045606Y007206D01*
X045551Y007213D01*
X045496Y007224D01*
X045442Y007238D01*
X045390Y007256D01*
X045339Y007278D01*
X045290Y007304D01*
X045242Y007333D01*
X045197Y007365D01*
X045154Y007400D01*
X045114Y007438D01*
X045076Y007479D01*
X045042Y007523D01*
X045010Y007569D01*
X044982Y007617D01*
X044958Y007667D01*
X044937Y007718D01*
X044919Y007771D01*
X044906Y007825D01*
X044896Y007879D01*
X044890Y007934D01*
X044888Y007990D01*
X007486Y027675D02*
X007488Y027731D01*
X007494Y027786D01*
X007504Y027840D01*
X007517Y027894D01*
X007535Y027947D01*
X007556Y027998D01*
X007580Y028048D01*
X007608Y028096D01*
X007640Y028142D01*
X007674Y028186D01*
X007712Y028227D01*
X007752Y028265D01*
X007795Y028300D01*
X007840Y028332D01*
X007888Y028361D01*
X007937Y028387D01*
X007988Y028409D01*
X008040Y028427D01*
X008094Y028441D01*
X008149Y028452D01*
X008204Y028459D01*
X008259Y028462D01*
X008315Y028461D01*
X008370Y028456D01*
X008425Y028447D01*
X008479Y028435D01*
X008532Y028418D01*
X008584Y028398D01*
X008634Y028374D01*
X008682Y028347D01*
X008729Y028317D01*
X008773Y028283D01*
X008815Y028246D01*
X008853Y028206D01*
X008890Y028164D01*
X008923Y028119D01*
X008952Y028073D01*
X008979Y028024D01*
X009001Y027973D01*
X009021Y027921D01*
X009036Y027867D01*
X009048Y027813D01*
X009056Y027758D01*
X009060Y027703D01*
X009060Y027647D01*
X009056Y027592D01*
X009048Y027537D01*
X009036Y027483D01*
X009021Y027429D01*
X009001Y027377D01*
X008979Y027326D01*
X008952Y027277D01*
X008923Y027231D01*
X008890Y027186D01*
X008853Y027144D01*
X008815Y027104D01*
X008773Y027067D01*
X008729Y027033D01*
X008682Y027003D01*
X008634Y026976D01*
X008584Y026952D01*
X008532Y026932D01*
X008479Y026915D01*
X008425Y026903D01*
X008370Y026894D01*
X008315Y026889D01*
X008259Y026888D01*
X008204Y026891D01*
X008149Y026898D01*
X008094Y026909D01*
X008040Y026923D01*
X007988Y026941D01*
X007937Y026963D01*
X007888Y026989D01*
X007840Y027018D01*
X007795Y027050D01*
X007752Y027085D01*
X007712Y027123D01*
X007674Y027164D01*
X007640Y027208D01*
X007608Y027254D01*
X007580Y027302D01*
X007556Y027352D01*
X007535Y027403D01*
X007517Y027456D01*
X007504Y027510D01*
X007494Y027564D01*
X007488Y027619D01*
X007486Y027675D01*
X007045Y033175D02*
X007047Y033225D01*
X007053Y033275D01*
X007063Y033324D01*
X007077Y033372D01*
X007094Y033419D01*
X007115Y033464D01*
X007140Y033508D01*
X007168Y033549D01*
X007200Y033588D01*
X007234Y033625D01*
X007271Y033659D01*
X007311Y033689D01*
X007353Y033716D01*
X007397Y033740D01*
X007443Y033761D01*
X007490Y033777D01*
X007538Y033790D01*
X007588Y033799D01*
X007637Y033804D01*
X007688Y033805D01*
X007738Y033802D01*
X007787Y033795D01*
X007836Y033784D01*
X007884Y033769D01*
X007930Y033751D01*
X007975Y033729D01*
X008018Y033703D01*
X008059Y033674D01*
X008098Y033642D01*
X008134Y033607D01*
X008166Y033569D01*
X008196Y033529D01*
X008223Y033486D01*
X008246Y033442D01*
X008265Y033396D01*
X008281Y033348D01*
X008293Y033299D01*
X008301Y033250D01*
X008305Y033200D01*
X008305Y033150D01*
X008301Y033100D01*
X008293Y033051D01*
X008281Y033002D01*
X008265Y032954D01*
X008246Y032908D01*
X008223Y032864D01*
X008196Y032821D01*
X008166Y032781D01*
X008134Y032743D01*
X008098Y032708D01*
X008059Y032676D01*
X008018Y032647D01*
X007975Y032621D01*
X007930Y032599D01*
X007884Y032581D01*
X007836Y032566D01*
X007787Y032555D01*
X007738Y032548D01*
X007688Y032545D01*
X007637Y032546D01*
X007588Y032551D01*
X007538Y032560D01*
X007490Y032573D01*
X007443Y032589D01*
X007397Y032610D01*
X007353Y032634D01*
X007311Y032661D01*
X007271Y032691D01*
X007234Y032725D01*
X007200Y032762D01*
X007168Y032801D01*
X007140Y032842D01*
X007115Y032886D01*
X007094Y032931D01*
X007077Y032978D01*
X007063Y033026D01*
X007053Y033075D01*
X007047Y033125D01*
X007045Y033175D01*
X007045Y037675D02*
X007047Y037725D01*
X007053Y037775D01*
X007063Y037824D01*
X007077Y037872D01*
X007094Y037919D01*
X007115Y037964D01*
X007140Y038008D01*
X007168Y038049D01*
X007200Y038088D01*
X007234Y038125D01*
X007271Y038159D01*
X007311Y038189D01*
X007353Y038216D01*
X007397Y038240D01*
X007443Y038261D01*
X007490Y038277D01*
X007538Y038290D01*
X007588Y038299D01*
X007637Y038304D01*
X007688Y038305D01*
X007738Y038302D01*
X007787Y038295D01*
X007836Y038284D01*
X007884Y038269D01*
X007930Y038251D01*
X007975Y038229D01*
X008018Y038203D01*
X008059Y038174D01*
X008098Y038142D01*
X008134Y038107D01*
X008166Y038069D01*
X008196Y038029D01*
X008223Y037986D01*
X008246Y037942D01*
X008265Y037896D01*
X008281Y037848D01*
X008293Y037799D01*
X008301Y037750D01*
X008305Y037700D01*
X008305Y037650D01*
X008301Y037600D01*
X008293Y037551D01*
X008281Y037502D01*
X008265Y037454D01*
X008246Y037408D01*
X008223Y037364D01*
X008196Y037321D01*
X008166Y037281D01*
X008134Y037243D01*
X008098Y037208D01*
X008059Y037176D01*
X008018Y037147D01*
X007975Y037121D01*
X007930Y037099D01*
X007884Y037081D01*
X007836Y037066D01*
X007787Y037055D01*
X007738Y037048D01*
X007688Y037045D01*
X007637Y037046D01*
X007588Y037051D01*
X007538Y037060D01*
X007490Y037073D01*
X007443Y037089D01*
X007397Y037110D01*
X007353Y037134D01*
X007311Y037161D01*
X007271Y037191D01*
X007234Y037225D01*
X007200Y037262D01*
X007168Y037301D01*
X007140Y037342D01*
X007115Y037386D01*
X007094Y037431D01*
X007077Y037478D01*
X007063Y037526D01*
X007053Y037575D01*
X007047Y037625D01*
X007045Y037675D01*
X010439Y039486D02*
X010441Y039542D01*
X010447Y039597D01*
X010457Y039651D01*
X010470Y039705D01*
X010488Y039758D01*
X010509Y039809D01*
X010533Y039859D01*
X010561Y039907D01*
X010593Y039953D01*
X010627Y039997D01*
X010665Y040038D01*
X010705Y040076D01*
X010748Y040111D01*
X010793Y040143D01*
X010841Y040172D01*
X010890Y040198D01*
X010941Y040220D01*
X010993Y040238D01*
X011047Y040252D01*
X011102Y040263D01*
X011157Y040270D01*
X011212Y040273D01*
X011268Y040272D01*
X011323Y040267D01*
X011378Y040258D01*
X011432Y040246D01*
X011485Y040229D01*
X011537Y040209D01*
X011587Y040185D01*
X011635Y040158D01*
X011682Y040128D01*
X011726Y040094D01*
X011768Y040057D01*
X011806Y040017D01*
X011843Y039975D01*
X011876Y039930D01*
X011905Y039884D01*
X011932Y039835D01*
X011954Y039784D01*
X011974Y039732D01*
X011989Y039678D01*
X012001Y039624D01*
X012009Y039569D01*
X012013Y039514D01*
X012013Y039458D01*
X012009Y039403D01*
X012001Y039348D01*
X011989Y039294D01*
X011974Y039240D01*
X011954Y039188D01*
X011932Y039137D01*
X011905Y039088D01*
X011876Y039042D01*
X011843Y038997D01*
X011806Y038955D01*
X011768Y038915D01*
X011726Y038878D01*
X011682Y038844D01*
X011635Y038814D01*
X011587Y038787D01*
X011537Y038763D01*
X011485Y038743D01*
X011432Y038726D01*
X011378Y038714D01*
X011323Y038705D01*
X011268Y038700D01*
X011212Y038699D01*
X011157Y038702D01*
X011102Y038709D01*
X011047Y038720D01*
X010993Y038734D01*
X010941Y038752D01*
X010890Y038774D01*
X010841Y038800D01*
X010793Y038829D01*
X010748Y038861D01*
X010705Y038896D01*
X010665Y038934D01*
X010627Y038975D01*
X010593Y039019D01*
X010561Y039065D01*
X010533Y039113D01*
X010509Y039163D01*
X010488Y039214D01*
X010470Y039267D01*
X010457Y039321D01*
X010447Y039375D01*
X010441Y039430D01*
X010439Y039486D01*
X007035Y041675D02*
X007037Y041725D01*
X007043Y041775D01*
X007053Y041824D01*
X007066Y041873D01*
X007084Y041920D01*
X007105Y041966D01*
X007129Y042009D01*
X007157Y042051D01*
X007188Y042091D01*
X007222Y042128D01*
X007259Y042162D01*
X007299Y042193D01*
X007341Y042221D01*
X007384Y042245D01*
X007430Y042266D01*
X007477Y042284D01*
X007526Y042297D01*
X007575Y042307D01*
X007625Y042313D01*
X007675Y042315D01*
X007725Y042313D01*
X007775Y042307D01*
X007824Y042297D01*
X007873Y042284D01*
X007920Y042266D01*
X007966Y042245D01*
X008009Y042221D01*
X008051Y042193D01*
X008091Y042162D01*
X008128Y042128D01*
X008162Y042091D01*
X008193Y042051D01*
X008221Y042009D01*
X008245Y041966D01*
X008266Y041920D01*
X008284Y041873D01*
X008297Y041824D01*
X008307Y041775D01*
X008313Y041725D01*
X008315Y041675D01*
X008313Y041625D01*
X008307Y041575D01*
X008297Y041526D01*
X008284Y041477D01*
X008266Y041430D01*
X008245Y041384D01*
X008221Y041341D01*
X008193Y041299D01*
X008162Y041259D01*
X008128Y041222D01*
X008091Y041188D01*
X008051Y041157D01*
X008009Y041129D01*
X007966Y041105D01*
X007920Y041084D01*
X007873Y041066D01*
X007824Y041053D01*
X007775Y041043D01*
X007725Y041037D01*
X007675Y041035D01*
X007625Y041037D01*
X007575Y041043D01*
X007526Y041053D01*
X007477Y041066D01*
X007430Y041084D01*
X007384Y041105D01*
X007341Y041129D01*
X007299Y041157D01*
X007259Y041188D01*
X007222Y041222D01*
X007188Y041259D01*
X007157Y041299D01*
X007129Y041341D01*
X007105Y041384D01*
X007084Y041430D01*
X007066Y041477D01*
X007053Y041526D01*
X007043Y041575D01*
X007037Y041625D01*
X007035Y041675D01*
X007035Y045675D02*
X007037Y045725D01*
X007043Y045775D01*
X007053Y045824D01*
X007066Y045873D01*
X007084Y045920D01*
X007105Y045966D01*
X007129Y046009D01*
X007157Y046051D01*
X007188Y046091D01*
X007222Y046128D01*
X007259Y046162D01*
X007299Y046193D01*
X007341Y046221D01*
X007384Y046245D01*
X007430Y046266D01*
X007477Y046284D01*
X007526Y046297D01*
X007575Y046307D01*
X007625Y046313D01*
X007675Y046315D01*
X007725Y046313D01*
X007775Y046307D01*
X007824Y046297D01*
X007873Y046284D01*
X007920Y046266D01*
X007966Y046245D01*
X008009Y046221D01*
X008051Y046193D01*
X008091Y046162D01*
X008128Y046128D01*
X008162Y046091D01*
X008193Y046051D01*
X008221Y046009D01*
X008245Y045966D01*
X008266Y045920D01*
X008284Y045873D01*
X008297Y045824D01*
X008307Y045775D01*
X008313Y045725D01*
X008315Y045675D01*
X008313Y045625D01*
X008307Y045575D01*
X008297Y045526D01*
X008284Y045477D01*
X008266Y045430D01*
X008245Y045384D01*
X008221Y045341D01*
X008193Y045299D01*
X008162Y045259D01*
X008128Y045222D01*
X008091Y045188D01*
X008051Y045157D01*
X008009Y045129D01*
X007966Y045105D01*
X007920Y045084D01*
X007873Y045066D01*
X007824Y045053D01*
X007775Y045043D01*
X007725Y045037D01*
X007675Y045035D01*
X007625Y045037D01*
X007575Y045043D01*
X007526Y045053D01*
X007477Y045066D01*
X007430Y045084D01*
X007384Y045105D01*
X007341Y045129D01*
X007299Y045157D01*
X007259Y045188D01*
X007222Y045222D01*
X007188Y045259D01*
X007157Y045299D01*
X007129Y045341D01*
X007105Y045384D01*
X007084Y045430D01*
X007066Y045477D01*
X007053Y045526D01*
X007043Y045575D01*
X007037Y045625D01*
X007035Y045675D01*
X025203Y047360D02*
X025205Y047416D01*
X025211Y047471D01*
X025221Y047525D01*
X025234Y047579D01*
X025252Y047632D01*
X025273Y047683D01*
X025297Y047733D01*
X025325Y047781D01*
X025357Y047827D01*
X025391Y047871D01*
X025429Y047912D01*
X025469Y047950D01*
X025512Y047985D01*
X025557Y048017D01*
X025605Y048046D01*
X025654Y048072D01*
X025705Y048094D01*
X025757Y048112D01*
X025811Y048126D01*
X025866Y048137D01*
X025921Y048144D01*
X025976Y048147D01*
X026032Y048146D01*
X026087Y048141D01*
X026142Y048132D01*
X026196Y048120D01*
X026249Y048103D01*
X026301Y048083D01*
X026351Y048059D01*
X026399Y048032D01*
X026446Y048002D01*
X026490Y047968D01*
X026532Y047931D01*
X026570Y047891D01*
X026607Y047849D01*
X026640Y047804D01*
X026669Y047758D01*
X026696Y047709D01*
X026718Y047658D01*
X026738Y047606D01*
X026753Y047552D01*
X026765Y047498D01*
X026773Y047443D01*
X026777Y047388D01*
X026777Y047332D01*
X026773Y047277D01*
X026765Y047222D01*
X026753Y047168D01*
X026738Y047114D01*
X026718Y047062D01*
X026696Y047011D01*
X026669Y046962D01*
X026640Y046916D01*
X026607Y046871D01*
X026570Y046829D01*
X026532Y046789D01*
X026490Y046752D01*
X026446Y046718D01*
X026399Y046688D01*
X026351Y046661D01*
X026301Y046637D01*
X026249Y046617D01*
X026196Y046600D01*
X026142Y046588D01*
X026087Y046579D01*
X026032Y046574D01*
X025976Y046573D01*
X025921Y046576D01*
X025866Y046583D01*
X025811Y046594D01*
X025757Y046608D01*
X025705Y046626D01*
X025654Y046648D01*
X025605Y046674D01*
X025557Y046703D01*
X025512Y046735D01*
X025469Y046770D01*
X025429Y046808D01*
X025391Y046849D01*
X025357Y046893D01*
X025325Y046939D01*
X025297Y046987D01*
X025273Y047037D01*
X025252Y047088D01*
X025234Y047141D01*
X025221Y047195D01*
X025211Y047249D01*
X025205Y047304D01*
X025203Y047360D01*
X044888Y047360D02*
X044890Y047416D01*
X044896Y047471D01*
X044906Y047525D01*
X044919Y047579D01*
X044937Y047632D01*
X044958Y047683D01*
X044982Y047733D01*
X045010Y047781D01*
X045042Y047827D01*
X045076Y047871D01*
X045114Y047912D01*
X045154Y047950D01*
X045197Y047985D01*
X045242Y048017D01*
X045290Y048046D01*
X045339Y048072D01*
X045390Y048094D01*
X045442Y048112D01*
X045496Y048126D01*
X045551Y048137D01*
X045606Y048144D01*
X045661Y048147D01*
X045717Y048146D01*
X045772Y048141D01*
X045827Y048132D01*
X045881Y048120D01*
X045934Y048103D01*
X045986Y048083D01*
X046036Y048059D01*
X046084Y048032D01*
X046131Y048002D01*
X046175Y047968D01*
X046217Y047931D01*
X046255Y047891D01*
X046292Y047849D01*
X046325Y047804D01*
X046354Y047758D01*
X046381Y047709D01*
X046403Y047658D01*
X046423Y047606D01*
X046438Y047552D01*
X046450Y047498D01*
X046458Y047443D01*
X046462Y047388D01*
X046462Y047332D01*
X046458Y047277D01*
X046450Y047222D01*
X046438Y047168D01*
X046423Y047114D01*
X046403Y047062D01*
X046381Y047011D01*
X046354Y046962D01*
X046325Y046916D01*
X046292Y046871D01*
X046255Y046829D01*
X046217Y046789D01*
X046175Y046752D01*
X046131Y046718D01*
X046084Y046688D01*
X046036Y046661D01*
X045986Y046637D01*
X045934Y046617D01*
X045881Y046600D01*
X045827Y046588D01*
X045772Y046579D01*
X045717Y046574D01*
X045661Y046573D01*
X045606Y046576D01*
X045551Y046583D01*
X045496Y046594D01*
X045442Y046608D01*
X045390Y046626D01*
X045339Y046648D01*
X045290Y046674D01*
X045242Y046703D01*
X045197Y046735D01*
X045154Y046770D01*
X045114Y046808D01*
X045076Y046849D01*
X045042Y046893D01*
X045010Y046939D01*
X044982Y046987D01*
X044958Y047037D01*
X044937Y047088D01*
X044919Y047141D01*
X044906Y047195D01*
X044896Y047249D01*
X044890Y047304D01*
X044888Y047360D01*
D25*
X047175Y045675D02*
X047175Y045175D01*
X047175Y045675D02*
X047675Y046175D01*
X055425Y046175D01*
X056175Y045425D01*
X056175Y045175D01*
X055175Y045175D02*
X054425Y044425D01*
X046925Y044425D01*
X046175Y045175D01*
X044425Y044175D02*
X044175Y044425D01*
X033325Y044425D01*
X032575Y045175D01*
X031575Y045175D02*
X032575Y044175D01*
X043675Y044175D01*
X043925Y043925D01*
X057425Y043925D01*
X058175Y044675D01*
X058175Y045175D01*
X059125Y045175D01*
X059925Y044375D01*
X060675Y044425D02*
X058425Y046675D01*
X057175Y046675D01*
X057175Y045175D01*
X057175Y044175D01*
X044425Y044175D01*
X042175Y043925D02*
X042175Y043175D01*
X042175Y043925D02*
X029425Y043925D01*
X027675Y042175D01*
X026175Y042675D02*
X026175Y038675D01*
X027175Y038675D02*
X027175Y039175D01*
X030675Y042675D01*
X040175Y042675D01*
X040575Y045175D02*
X040575Y046675D01*
X030175Y046675D01*
X026175Y042675D01*
X026175Y043675D02*
X023675Y046175D01*
X023175Y046175D01*
X029775Y045425D02*
X030125Y045775D01*
X034975Y045775D01*
X035575Y045175D01*
X031425Y042175D02*
X047425Y042175D01*
X046725Y039675D02*
X038875Y039675D01*
X038675Y039475D01*
X038675Y037675D01*
X037925Y036925D01*
X032425Y036925D01*
X031175Y038175D01*
X031175Y038675D01*
X032175Y038675D02*
X032175Y039425D01*
X031425Y040175D01*
X031425Y042175D01*
X029175Y038675D02*
X029175Y037175D01*
X029675Y036675D01*
X044675Y036675D01*
X045925Y036175D02*
X029675Y036175D01*
X029175Y037175D02*
X021175Y037175D01*
X017675Y033675D01*
X021475Y036125D02*
X021475Y036675D01*
X021475Y036125D02*
X025925Y031675D01*
X027175Y031675D01*
X027175Y032675D01*
X027175Y033175D01*
X028675Y034675D01*
X030675Y034675D01*
X031675Y034675D02*
X030175Y033175D01*
X030175Y032675D01*
X029875Y031875D02*
X029175Y031175D01*
X025175Y031175D01*
X023175Y033175D01*
X026175Y033675D02*
X026175Y032675D01*
X026175Y033675D02*
X028175Y035675D01*
X046425Y035675D01*
X047425Y036675D01*
X046425Y036675D02*
X045925Y036175D01*
X046675Y035175D02*
X047075Y035575D01*
X048575Y035575D01*
X049175Y036175D01*
X048575Y035575D02*
X048575Y034575D01*
X050625Y034575D01*
X051125Y035075D01*
X057475Y035075D01*
X057775Y035375D01*
X057775Y034575D02*
X057475Y034275D01*
X048325Y034275D01*
X047925Y034675D01*
X047425Y033925D02*
X046675Y034675D01*
X031675Y034675D01*
X033175Y033175D02*
X033675Y033675D01*
X049175Y033675D01*
X050425Y032425D01*
X052175Y031675D02*
X047675Y031675D01*
X046675Y030675D01*
X031175Y030675D01*
X030425Y030925D02*
X030425Y030175D01*
X030925Y029675D01*
X051175Y029675D01*
X051175Y027925D01*
X051925Y027175D01*
X053175Y027175D01*
X053175Y026175D01*
X054175Y026175D02*
X054175Y028675D01*
X052675Y030175D01*
X052175Y030175D01*
X050675Y030675D02*
X049175Y030675D01*
X048675Y030175D01*
X038675Y030175D01*
X038175Y031875D02*
X038175Y032675D01*
X038175Y031875D02*
X029875Y031875D01*
X030425Y030925D02*
X030925Y031425D01*
X034425Y031425D01*
X033175Y032675D02*
X033175Y033175D01*
X034675Y034175D02*
X036675Y034175D01*
X038175Y035175D02*
X046675Y035175D01*
X047425Y033925D02*
X050675Y033925D01*
X057175Y027425D01*
X057175Y026175D01*
X056175Y026175D02*
X056175Y027675D01*
X052175Y031675D01*
X050175Y029175D02*
X043425Y029175D01*
X043425Y024425D01*
X043175Y023675D02*
X042675Y024175D01*
X037175Y024175D01*
X037175Y023175D01*
X037675Y021425D02*
X038425Y020675D01*
X055675Y020675D01*
X058175Y023175D01*
X058175Y026175D01*
X060175Y026175D02*
X060175Y025425D01*
X058925Y024175D01*
X061175Y025425D02*
X061275Y038425D01*
X047975Y038425D01*
X046925Y039475D01*
X046725Y039675D01*
X047425Y037925D02*
X047175Y037675D01*
X040175Y037675D01*
X040175Y038675D01*
X039175Y038675D02*
X039175Y037175D01*
X049175Y037175D01*
X050175Y036175D02*
X052675Y036175D01*
X050925Y037925D01*
X047425Y037925D01*
X052675Y036175D02*
X056775Y036175D01*
X056875Y036325D01*
X054925Y043375D02*
X059475Y043375D01*
X059535Y043455D01*
X055175Y026175D02*
X055175Y025675D01*
X053175Y023675D01*
X044925Y023675D01*
X043425Y022175D01*
X033175Y022175D01*
X033675Y022675D02*
X037175Y026175D01*
X037175Y024925D01*
X039925Y024925D01*
X043175Y023675D02*
X044175Y023675D01*
X044675Y024175D01*
X037675Y021425D02*
X029175Y021425D01*
X029175Y022175D01*
X031175Y023175D02*
X031675Y022675D01*
X033675Y022675D01*
X028925Y024975D02*
X017875Y024975D01*
X017375Y025475D01*
X018775Y027375D02*
X020775Y025375D01*
X025925Y025375D01*
X026575Y025775D02*
X022925Y025775D01*
X022175Y026425D01*
X026175Y027175D02*
X027675Y027175D01*
X022175Y022175D02*
X022175Y021575D01*
X023975Y019775D01*
X021175Y021375D02*
X021175Y022175D01*
X021175Y021375D02*
X020975Y021175D01*
X021775Y017375D02*
X015875Y023275D01*
X021775Y017375D02*
X025125Y017375D01*
X025425Y017675D01*
X039175Y019175D02*
X041375Y019175D01*
X044425Y016925D02*
X052675Y016925D01*
X061175Y025425D01*
X044425Y016925D02*
X043175Y015675D01*
X046675Y011175D02*
X038925Y011175D01*
X038925Y009675D01*
X038917Y009675D01*
X039675Y010175D02*
X039675Y009175D01*
X039165Y008665D01*
X038917Y008415D01*
X039675Y010175D02*
X040175Y010675D01*
X046175Y010675D01*
X013875Y037175D02*
X012375Y035675D01*
X005175Y035675D01*
X005175Y036675D02*
X005175Y041675D01*
X003575Y041675D01*
X003575Y045425D01*
X004675Y045425D01*
X005175Y044925D01*
X021675Y037925D02*
X021925Y037675D01*
X028675Y037675D01*
D26*
X028675Y037675D03*
X029675Y036175D03*
X030675Y034675D03*
X034675Y034175D03*
X036675Y034175D03*
X038175Y035175D03*
X036175Y037425D03*
X038175Y039675D03*
X040175Y042675D03*
X047425Y042175D03*
X046925Y039475D03*
X046425Y036675D03*
X047425Y036675D03*
X044675Y036675D03*
X047925Y034675D03*
X050425Y032425D03*
X051925Y033675D03*
X050675Y030675D03*
X050175Y029175D03*
X056425Y032925D03*
X058425Y031925D03*
X057775Y034575D03*
X057775Y035375D03*
X056875Y036325D03*
X052675Y040175D03*
X054925Y043375D03*
X059925Y044375D03*
X060675Y044425D03*
X061175Y051175D03*
X044175Y051175D03*
X043675Y048175D03*
X035675Y051175D03*
X029775Y045425D03*
X026175Y043675D03*
X024425Y043175D03*
X027675Y042175D03*
X021675Y037925D03*
X021475Y036675D03*
X019675Y034175D03*
X017675Y033675D03*
X015675Y033175D03*
X017675Y031175D03*
X020275Y028975D03*
X018775Y027375D03*
X020625Y026675D03*
X021675Y026675D03*
X022175Y026425D03*
X023675Y028475D03*
X026175Y027175D03*
X027675Y027175D03*
X026575Y025775D03*
X025925Y025375D03*
X028925Y024975D03*
X030175Y026675D03*
X031175Y030675D03*
X034425Y031425D03*
X038675Y030175D03*
X037925Y028575D03*
X039925Y024925D03*
X043425Y024425D03*
X044675Y024175D03*
X040175Y021425D03*
X041375Y019175D03*
X041975Y018675D03*
X043175Y015675D03*
X047675Y015675D03*
X053175Y018675D03*
X050425Y019425D03*
X050425Y021425D03*
X052925Y022925D03*
X051925Y024425D03*
X055175Y021425D03*
X058925Y024175D03*
X057925Y015175D03*
X061425Y011425D03*
X054175Y009675D03*
X052175Y004175D03*
X061175Y004175D03*
X043675Y008675D03*
X042675Y011925D03*
X034675Y008175D03*
X033775Y008425D03*
X025175Y013575D03*
X024175Y011175D03*
X022825Y010675D03*
X023175Y008675D03*
X017675Y008675D03*
X013175Y008675D03*
X010175Y010675D03*
X011175Y011925D03*
X011675Y012925D03*
X012925Y012925D03*
X014425Y012925D03*
X014425Y014000D03*
X014425Y015175D03*
X012925Y015175D03*
X011675Y015175D03*
X010175Y015175D03*
X010175Y017675D03*
X011925Y017675D03*
X011925Y019675D03*
X010175Y019675D03*
X008175Y017425D03*
X005175Y017675D03*
X006675Y022675D03*
X008675Y022675D03*
X013275Y026925D03*
X015675Y028475D03*
X012675Y029675D03*
X010675Y028675D03*
X006175Y031175D03*
X010175Y034675D03*
X013875Y037175D03*
X018675Y039675D03*
X026175Y035675D03*
X012575Y044675D03*
X006675Y043675D03*
X004675Y046675D03*
X009175Y051175D03*
X016675Y051175D03*
X025675Y051175D03*
X006675Y039675D03*
X017375Y025475D03*
X015875Y023275D03*
X020975Y021175D03*
X023975Y019775D03*
X025425Y017675D03*
X016925Y017175D03*
X016925Y015175D03*
X016925Y013925D03*
X016925Y012925D03*
X009175Y008675D03*
X008175Y010675D03*
X007175Y011925D03*
X004675Y008675D03*
X009175Y005175D03*
X024675Y004175D03*
X042675Y004175D03*
X035925Y020425D03*
X036425Y020675D03*
X016175Y020175D03*
D27*
X016649Y020649D02*
X009779Y020649D01*
X009767Y020678D02*
X009678Y020767D01*
X009563Y020815D01*
X009087Y020815D01*
X008906Y020996D01*
X008796Y021106D01*
X008653Y021165D01*
X004860Y021165D01*
X004860Y021285D01*
X016013Y021285D01*
X021344Y015954D01*
X021454Y015844D01*
X021597Y015785D01*
X027347Y015785D01*
X027457Y015675D01*
X027347Y015565D01*
X026697Y015565D01*
X026554Y015506D01*
X026444Y015396D01*
X025138Y014090D01*
X025073Y014090D01*
X024883Y014012D01*
X024738Y013867D01*
X024660Y013677D01*
X024660Y013612D01*
X022613Y011565D01*
X022097Y011565D01*
X021954Y011506D01*
X021844Y011396D01*
X021785Y011253D01*
X021785Y009847D01*
X021844Y009704D01*
X021954Y009594D01*
X022097Y009535D01*
X025280Y009535D01*
X024950Y009345D01*
X024635Y009029D01*
X024412Y008643D01*
X024297Y008213D01*
X024297Y007767D01*
X024412Y007337D01*
X024635Y006950D01*
X024950Y006635D01*
X025337Y006412D01*
X025700Y006315D01*
X025597Y006315D01*
X025454Y006256D01*
X025344Y006146D01*
X025285Y006003D01*
X025285Y005347D01*
X025344Y005204D01*
X025454Y005094D01*
X026204Y004344D01*
X026347Y004285D01*
X035253Y004285D01*
X035396Y004344D01*
X035506Y004454D01*
X035565Y004597D01*
X035565Y007740D01*
X037762Y007740D01*
X037834Y007770D01*
X038061Y007770D01*
X038298Y007868D01*
X038425Y007995D01*
X038552Y007868D01*
X038789Y007770D01*
X039045Y007770D01*
X039282Y007868D01*
X039464Y008050D01*
X039562Y008287D01*
X039562Y008543D01*
X039561Y008545D01*
X039882Y008866D01*
X039966Y008950D01*
X039975Y008930D01*
X040247Y008658D01*
X040603Y008510D01*
X040988Y008510D01*
X041343Y008658D01*
X041616Y008930D01*
X041763Y009286D01*
X041763Y009671D01*
X041616Y010026D01*
X041343Y010299D01*
X041316Y010310D01*
X045786Y010310D01*
X045873Y010223D01*
X046069Y010142D01*
X046281Y010142D01*
X046477Y010223D01*
X046627Y010373D01*
X046708Y010569D01*
X046708Y010642D01*
X046781Y010642D01*
X046977Y010723D01*
X047127Y010873D01*
X047208Y011069D01*
X047208Y011281D01*
X047127Y011477D01*
X046977Y011627D01*
X046781Y011708D01*
X046569Y011708D01*
X046373Y011627D01*
X046286Y011540D01*
X038852Y011540D01*
X038718Y011484D01*
X038616Y011382D01*
X038560Y011248D01*
X038560Y010225D01*
X038552Y010222D01*
X038396Y010066D01*
X038394Y010069D01*
X038327Y010136D01*
X038250Y010192D01*
X038165Y010236D01*
X038075Y010265D01*
X037980Y010280D01*
X037948Y010280D01*
X037948Y009691D01*
X037917Y009691D01*
X037917Y010280D01*
X037885Y010280D01*
X037791Y010265D01*
X037701Y010236D01*
X037616Y010192D01*
X037539Y010136D01*
X037471Y010069D01*
X037415Y009992D01*
X037372Y009907D01*
X037343Y009817D01*
X037328Y009723D01*
X037328Y009691D01*
X037917Y009691D01*
X037917Y009659D01*
X037328Y009659D01*
X037328Y009627D01*
X037339Y009559D01*
X037297Y009542D01*
X037208Y009453D01*
X037160Y009338D01*
X037160Y008712D01*
X037202Y008610D01*
X036488Y008610D01*
X036603Y008658D01*
X036875Y008930D01*
X037023Y009286D01*
X037023Y009671D01*
X036875Y010026D01*
X036603Y010299D01*
X036247Y010446D01*
X035862Y010446D01*
X035507Y010299D01*
X035234Y010026D01*
X035087Y009671D01*
X035087Y009286D01*
X035234Y008930D01*
X035507Y008658D01*
X035622Y008610D01*
X034968Y008610D01*
X034967Y008612D01*
X034777Y008690D01*
X034573Y008690D01*
X034383Y008612D01*
X034382Y008610D01*
X034256Y008610D01*
X034212Y008717D01*
X034067Y008862D01*
X033877Y008940D01*
X033673Y008940D01*
X033483Y008862D01*
X033338Y008717D01*
X033260Y008527D01*
X033260Y008323D01*
X033338Y008133D01*
X033340Y008132D01*
X033340Y008088D01*
X033350Y008065D01*
X032565Y008065D01*
X032565Y010253D01*
X032506Y010396D01*
X032396Y010506D01*
X032253Y010565D01*
X029370Y010565D01*
X028766Y011370D01*
X028756Y011396D01*
X028720Y011431D01*
X028690Y011471D01*
X028666Y011486D01*
X028646Y011506D01*
X028600Y011525D01*
X028557Y011550D01*
X028529Y011554D01*
X028503Y011565D01*
X028453Y011565D01*
X028403Y011572D01*
X028376Y011565D01*
X025597Y011565D01*
X025454Y011506D01*
X025344Y011396D01*
X024513Y010565D01*
X023565Y010565D01*
X023565Y011253D01*
X023518Y011366D01*
X025212Y013060D01*
X025277Y013060D01*
X025467Y013138D01*
X025612Y013283D01*
X025690Y013473D01*
X025690Y013538D01*
X026937Y014785D01*
X027347Y014785D01*
X027488Y014644D01*
X027467Y014629D01*
X027401Y014563D01*
X027346Y014487D01*
X027304Y014403D01*
X027275Y014314D01*
X027260Y014222D01*
X027260Y014200D01*
X028150Y014200D01*
X028150Y014540D01*
X028200Y014540D01*
X028200Y014200D01*
X028150Y014200D01*
X028150Y014150D01*
X028200Y014150D01*
X028200Y014200D01*
X029090Y014200D01*
X029090Y014222D01*
X029075Y014314D01*
X029046Y014403D01*
X029004Y014487D01*
X028949Y014563D01*
X028883Y014629D01*
X028862Y014644D01*
X028958Y014740D01*
X030055Y014740D01*
X030083Y014672D01*
X030172Y014583D01*
X030216Y014564D01*
X030162Y014489D01*
X030119Y014405D01*
X030090Y014315D01*
X030075Y014222D01*
X030075Y014175D01*
X030675Y014175D01*
X031275Y014175D01*
X031275Y014222D01*
X031260Y014315D01*
X031231Y014405D01*
X031188Y014489D01*
X031134Y014564D01*
X031178Y014583D01*
X031267Y014672D01*
X031315Y014787D01*
X031315Y015563D01*
X031267Y015678D01*
X031178Y015767D01*
X031110Y015795D01*
X031110Y017495D01*
X032105Y018490D01*
X032311Y018490D01*
X032563Y018594D01*
X032675Y018706D01*
X032785Y018596D01*
X032785Y017870D01*
X032740Y017762D01*
X032740Y017588D01*
X032806Y017429D01*
X032929Y017306D01*
X033088Y017240D01*
X042062Y017240D01*
X042221Y017306D01*
X042344Y017429D01*
X042410Y017588D01*
X042410Y017762D01*
X042365Y017870D01*
X042365Y018285D01*
X052837Y018285D01*
X052883Y018238D01*
X053073Y018160D01*
X053277Y018160D01*
X053467Y018238D01*
X053612Y018383D01*
X053690Y018573D01*
X053690Y018777D01*
X053612Y018967D01*
X053467Y019112D01*
X053277Y019190D01*
X053073Y019190D01*
X052883Y019112D01*
X052837Y019065D01*
X042313Y019065D01*
X042267Y019112D01*
X042077Y019190D01*
X041890Y019190D01*
X041890Y019277D01*
X041812Y019467D01*
X041667Y019612D01*
X041477Y019690D01*
X041273Y019690D01*
X041083Y019612D01*
X041012Y019540D01*
X039765Y019540D01*
X039756Y019563D01*
X039563Y019756D01*
X039311Y019860D01*
X039039Y019860D01*
X038787Y019756D01*
X038675Y019644D01*
X038563Y019756D01*
X038311Y019860D01*
X038039Y019860D01*
X037787Y019756D01*
X037675Y019644D01*
X037563Y019756D01*
X037311Y019860D01*
X037039Y019860D01*
X036787Y019756D01*
X036675Y019644D01*
X036563Y019756D01*
X036311Y019860D01*
X036039Y019860D01*
X035787Y019756D01*
X035675Y019644D01*
X035563Y019756D01*
X035311Y019860D01*
X035039Y019860D01*
X034787Y019756D01*
X034675Y019644D01*
X034563Y019756D01*
X034311Y019860D01*
X034039Y019860D01*
X033787Y019756D01*
X033675Y019644D01*
X033563Y019756D01*
X033311Y019860D01*
X033039Y019860D01*
X032787Y019756D01*
X032675Y019644D01*
X032610Y019709D01*
X032610Y019990D01*
X035632Y019990D01*
X035633Y019988D01*
X035823Y019910D01*
X036027Y019910D01*
X036217Y019988D01*
X036218Y019990D01*
X036262Y019990D01*
X036421Y020056D01*
X036525Y020160D01*
X036527Y020160D01*
X036717Y020238D01*
X036862Y020383D01*
X036940Y020573D01*
X036940Y020777D01*
X036862Y020967D01*
X036768Y021060D01*
X037524Y021060D01*
X038218Y020366D01*
X038352Y020310D01*
X055544Y020310D01*
X052524Y017290D01*
X044352Y017290D01*
X044218Y017234D01*
X044116Y017132D01*
X043174Y016190D01*
X043073Y016190D01*
X042883Y016112D01*
X042738Y015967D01*
X042660Y015777D01*
X042660Y015573D01*
X042738Y015383D01*
X042883Y015238D01*
X043073Y015160D01*
X043277Y015160D01*
X043467Y015238D01*
X043612Y015383D01*
X043690Y015573D01*
X043690Y015674D01*
X044576Y016560D01*
X052748Y016560D01*
X052882Y016616D01*
X061432Y025166D01*
X061483Y025216D01*
X061483Y025217D01*
X061484Y025218D01*
X061512Y025284D01*
X061539Y025350D01*
X061539Y025351D01*
X061540Y025352D01*
X061540Y025424D01*
X061639Y038351D01*
X061640Y038352D01*
X061640Y038424D01*
X061641Y038495D01*
X061640Y038496D01*
X061640Y038498D01*
X061613Y038563D01*
X061586Y038629D01*
X061585Y038630D01*
X061584Y038632D01*
X061534Y038682D01*
X061484Y038733D01*
X061483Y038733D01*
X061482Y038734D01*
X061416Y038762D01*
X061350Y038789D01*
X061349Y038789D01*
X061348Y038790D01*
X061276Y038790D01*
X061205Y038791D01*
X061204Y038790D01*
X048126Y038790D01*
X047440Y039476D01*
X047440Y039577D01*
X047362Y039767D01*
X047343Y039785D01*
X048596Y039785D01*
X048787Y039594D01*
X049039Y039490D01*
X049311Y039490D01*
X049563Y039594D01*
X049675Y039706D01*
X049787Y039594D01*
X050039Y039490D01*
X050311Y039490D01*
X050563Y039594D01*
X050756Y039787D01*
X050860Y040039D01*
X050860Y040311D01*
X050756Y040563D01*
X050563Y040756D01*
X050311Y040860D01*
X050039Y040860D01*
X049787Y040756D01*
X049675Y040644D01*
X049563Y040756D01*
X049311Y040860D01*
X049039Y040860D01*
X048787Y040756D01*
X048596Y040565D01*
X038597Y040565D01*
X038454Y040506D01*
X038138Y040190D01*
X038073Y040190D01*
X037883Y040112D01*
X037738Y039967D01*
X037660Y039777D01*
X037660Y039573D01*
X037738Y039383D01*
X037750Y039372D01*
X037675Y039296D01*
X037512Y039459D01*
X037293Y039550D01*
X037057Y039550D01*
X036838Y039459D01*
X036675Y039296D01*
X036512Y039459D01*
X036293Y039550D01*
X036057Y039550D01*
X035838Y039459D01*
X035671Y039292D01*
X035651Y039244D01*
X035650Y039246D01*
X035598Y039317D01*
X035537Y039378D01*
X035466Y039430D01*
X035388Y039469D01*
X035305Y039496D01*
X035219Y039510D01*
X035180Y039510D01*
X035180Y038680D01*
X035170Y038680D01*
X035170Y039510D01*
X035131Y039510D01*
X035045Y039496D01*
X034962Y039469D01*
X034884Y039430D01*
X034813Y039378D01*
X034752Y039317D01*
X034700Y039246D01*
X034699Y039244D01*
X034679Y039292D01*
X034512Y039459D01*
X034293Y039550D01*
X034057Y039550D01*
X033838Y039459D01*
X033675Y039296D01*
X033512Y039459D01*
X033293Y039550D01*
X033057Y039550D01*
X032838Y039459D01*
X032675Y039296D01*
X032540Y039431D01*
X032540Y039498D01*
X032484Y039632D01*
X031790Y040326D01*
X031790Y041810D01*
X047062Y041810D01*
X047133Y041738D01*
X047323Y041660D01*
X047527Y041660D01*
X047717Y041738D01*
X047862Y041883D01*
X047940Y042073D01*
X047940Y042277D01*
X047862Y042467D01*
X047717Y042612D01*
X047527Y042690D01*
X047323Y042690D01*
X047133Y042612D01*
X047062Y042540D01*
X043432Y042540D01*
X043563Y042594D01*
X043756Y042787D01*
X043860Y043039D01*
X043860Y043311D01*
X043756Y043563D01*
X043563Y043756D01*
X043432Y043810D01*
X043524Y043810D01*
X043616Y043718D01*
X043718Y043616D01*
X043852Y043560D01*
X054444Y043560D01*
X054410Y043477D01*
X054410Y043273D01*
X054488Y043083D01*
X054633Y042938D01*
X054823Y042860D01*
X055027Y042860D01*
X055217Y042938D01*
X055288Y043010D01*
X059011Y043010D01*
X059147Y042874D01*
X059399Y042770D01*
X059671Y042770D01*
X059923Y042874D01*
X060116Y043067D01*
X060220Y043319D01*
X060220Y043591D01*
X060116Y043843D01*
X060078Y043881D01*
X060217Y043938D01*
X060325Y044047D01*
X060383Y043988D01*
X060573Y043910D01*
X060777Y043910D01*
X060932Y043974D01*
X060889Y043941D01*
X060829Y043881D01*
X060778Y043814D01*
X060735Y043741D01*
X060703Y043663D01*
X060681Y043581D01*
X060670Y043497D01*
X060670Y043480D01*
X061290Y043480D01*
X061290Y044100D01*
X061273Y044100D01*
X061189Y044089D01*
X061107Y044067D01*
X061029Y044035D01*
X060991Y044013D01*
X061112Y044133D01*
X061190Y044323D01*
X061190Y044527D01*
X061112Y044717D01*
X060967Y044862D01*
X060777Y044940D01*
X060676Y044940D01*
X058734Y046882D01*
X058632Y046984D01*
X058498Y047040D01*
X057102Y047040D01*
X056968Y046984D01*
X056866Y046882D01*
X056810Y046748D01*
X056810Y045765D01*
X056787Y045756D01*
X056675Y045644D01*
X056563Y045756D01*
X056311Y045860D01*
X056256Y045860D01*
X055632Y046484D01*
X055498Y046540D01*
X047602Y046540D01*
X047468Y046484D01*
X047366Y046382D01*
X046968Y045984D01*
X046866Y045882D01*
X046819Y045769D01*
X046787Y045756D01*
X046675Y045644D01*
X046563Y045756D01*
X046399Y045823D01*
X046714Y046005D01*
X047030Y046321D01*
X047253Y046707D01*
X047368Y047137D01*
X047368Y047583D01*
X047253Y048013D01*
X047030Y048400D01*
X046714Y048715D01*
X046328Y048938D01*
X045898Y049053D01*
X045452Y049053D01*
X045022Y048938D01*
X044636Y048715D01*
X044320Y048400D01*
X044097Y048013D01*
X043982Y047583D01*
X043982Y047137D01*
X044097Y046707D01*
X044320Y046321D01*
X044636Y046005D01*
X044951Y045823D01*
X044787Y045756D01*
X044675Y045644D01*
X044563Y045756D01*
X044311Y045860D01*
X044039Y045860D01*
X043787Y045756D01*
X043675Y045644D01*
X043563Y045756D01*
X043311Y045860D01*
X043039Y045860D01*
X042787Y045756D01*
X042675Y045644D01*
X042563Y045756D01*
X042311Y045860D01*
X042039Y045860D01*
X041787Y045756D01*
X041594Y045563D01*
X041490Y045311D01*
X041490Y045039D01*
X041593Y044790D01*
X041157Y044790D01*
X041260Y045039D01*
X041260Y045311D01*
X041156Y045563D01*
X040963Y045756D01*
X040940Y045765D01*
X040940Y046748D01*
X040884Y046882D01*
X040782Y046984D01*
X040648Y047040D01*
X030102Y047040D01*
X029968Y046984D01*
X026690Y043706D01*
X026690Y043777D01*
X026612Y043967D01*
X026467Y044112D01*
X026277Y044190D01*
X026176Y044190D01*
X023882Y046484D01*
X023769Y046531D01*
X023756Y046563D01*
X023563Y046756D01*
X023311Y046860D01*
X023039Y046860D01*
X022787Y046756D01*
X022594Y046563D01*
X022490Y046311D01*
X022490Y046039D01*
X022594Y045787D01*
X022706Y045675D01*
X022594Y045563D01*
X022490Y045311D01*
X022490Y045039D01*
X022594Y044787D01*
X022787Y044594D01*
X023039Y044490D01*
X023311Y044490D01*
X023563Y044594D01*
X023756Y044787D01*
X023860Y045039D01*
X023860Y045311D01*
X023756Y045563D01*
X023644Y045675D01*
X023651Y045683D01*
X025660Y043674D01*
X025660Y043573D01*
X025738Y043383D01*
X025883Y043238D01*
X026073Y043160D01*
X026144Y043160D01*
X025968Y042984D01*
X025866Y042882D01*
X025810Y042748D01*
X025810Y039431D01*
X025671Y039292D01*
X025580Y039073D01*
X025580Y038277D01*
X025671Y038058D01*
X025689Y038040D01*
X022185Y038040D01*
X022112Y038217D01*
X021967Y038362D01*
X021777Y038440D01*
X021573Y038440D01*
X021383Y038362D01*
X021238Y038217D01*
X021160Y038027D01*
X021160Y037823D01*
X021238Y037633D01*
X021332Y037540D01*
X021102Y037540D01*
X020968Y037484D01*
X017674Y034190D01*
X017573Y034190D01*
X017383Y034112D01*
X017238Y033967D01*
X017160Y033777D01*
X017160Y033742D01*
X015815Y035087D01*
X015815Y042285D01*
X018253Y042285D01*
X018396Y042344D01*
X018506Y042454D01*
X018565Y042597D01*
X018565Y045355D01*
X018711Y045500D01*
X018807Y045732D01*
X018807Y046618D01*
X018711Y046850D01*
X018533Y047028D01*
X018301Y047124D01*
X018049Y047124D01*
X017817Y047028D01*
X017675Y046885D01*
X017533Y047028D01*
X017301Y047124D01*
X017049Y047124D01*
X016817Y047028D01*
X016639Y046850D01*
X016543Y046618D01*
X016543Y045732D01*
X016639Y045500D01*
X016817Y045322D01*
X017049Y045226D01*
X017301Y045226D01*
X017533Y045322D01*
X017675Y045465D01*
X017785Y045355D01*
X017785Y043065D01*
X006447Y043065D01*
X006304Y043006D01*
X005963Y042665D01*
X005765Y042665D01*
X005787Y042717D01*
X005809Y042799D01*
X005820Y042883D01*
X005820Y042900D01*
X005200Y042900D01*
X005200Y042950D01*
X005820Y042950D01*
X005820Y042967D01*
X005809Y043051D01*
X005787Y043133D01*
X005755Y043211D01*
X005712Y043284D01*
X005661Y043351D01*
X005615Y043397D01*
X005756Y043537D01*
X005860Y043789D01*
X005860Y044061D01*
X005756Y044313D01*
X005644Y044425D01*
X005756Y044537D01*
X005860Y044789D01*
X005860Y045061D01*
X005756Y045313D01*
X005563Y045506D01*
X005311Y045610D01*
X005039Y045610D01*
X005016Y045600D01*
X004882Y045734D01*
X004748Y045790D01*
X003502Y045790D01*
X003490Y045785D01*
X003490Y047360D01*
X003666Y047360D01*
X004056Y047337D01*
X004851Y047429D01*
X005617Y047658D01*
X006332Y048017D01*
X006332Y048017D01*
X006974Y048495D01*
X007524Y049076D01*
X007524Y049076D01*
X007964Y049744D01*
X007964Y049744D01*
X008281Y050479D01*
X008466Y051257D01*
X008466Y051257D01*
X008486Y051604D01*
X008490Y051612D01*
X008490Y051666D01*
X008493Y051719D01*
X008490Y051728D01*
X008490Y051860D01*
X061860Y051860D01*
X061860Y043801D01*
X061852Y043814D01*
X061801Y043881D01*
X061741Y043941D01*
X061674Y043992D01*
X061601Y044035D01*
X061523Y044067D01*
X061441Y044089D01*
X061357Y044100D01*
X061340Y044100D01*
X061340Y043480D01*
X061290Y043480D01*
X061290Y043430D01*
X061340Y043430D01*
X061340Y042810D01*
X061357Y042810D01*
X061441Y042821D01*
X061523Y042843D01*
X061601Y042875D01*
X061674Y042918D01*
X061741Y042969D01*
X061801Y043029D01*
X061852Y043096D01*
X061860Y043109D01*
X061860Y041241D01*
X061852Y041254D01*
X061801Y041321D01*
X061741Y041381D01*
X061674Y041432D01*
X061601Y041475D01*
X061523Y041507D01*
X061441Y041529D01*
X061357Y041540D01*
X061340Y041540D01*
X061340Y040920D01*
X061290Y040920D01*
X061290Y041540D01*
X061273Y041540D01*
X061189Y041529D01*
X061107Y041507D01*
X061029Y041475D01*
X060956Y041432D01*
X060889Y041381D01*
X060829Y041321D01*
X060778Y041254D01*
X060735Y041181D01*
X060703Y041103D01*
X060681Y041021D01*
X060670Y040937D01*
X060670Y040920D01*
X061290Y040920D01*
X061290Y040870D01*
X061340Y040870D01*
X061340Y040250D01*
X061357Y040250D01*
X061441Y040261D01*
X061523Y040283D01*
X061601Y040315D01*
X061674Y040358D01*
X061741Y040409D01*
X061801Y040469D01*
X061852Y040536D01*
X061860Y040549D01*
X061860Y003490D01*
X008490Y003490D01*
X008490Y003622D01*
X008493Y003631D01*
X008490Y003684D01*
X008490Y003738D01*
X008486Y003746D01*
X008466Y004093D01*
X008281Y004871D01*
X008281Y004871D01*
X007964Y005606D01*
X007524Y006274D01*
X006974Y006855D01*
X006974Y006855D01*
X006332Y007333D01*
X005617Y007692D01*
X004851Y007921D01*
X004851Y007921D01*
X004056Y008013D01*
X004056Y008013D01*
X003666Y007990D01*
X003490Y007990D01*
X003490Y027308D01*
X003490Y027039D01*
X003594Y026787D01*
X003706Y026675D01*
X003594Y026563D01*
X003490Y026311D01*
X003490Y026039D01*
X003594Y025787D01*
X003787Y025594D01*
X004039Y025490D01*
X004311Y025490D01*
X004563Y025594D01*
X004754Y025785D01*
X004763Y025785D01*
X007454Y023094D01*
X007597Y023035D01*
X009253Y023035D01*
X009396Y023094D01*
X009506Y023204D01*
X010087Y023785D01*
X015760Y023785D01*
X015583Y023712D01*
X015438Y023567D01*
X015360Y023377D01*
X015360Y023173D01*
X015438Y022983D01*
X015583Y022838D01*
X015773Y022760D01*
X015874Y022760D01*
X021466Y017168D01*
X021568Y017066D01*
X021702Y017010D01*
X025198Y017010D01*
X025332Y017066D01*
X025426Y017160D01*
X025527Y017160D01*
X025717Y017238D01*
X025862Y017383D01*
X025940Y017573D01*
X025940Y017777D01*
X025862Y017967D01*
X025717Y018112D01*
X025527Y018190D01*
X025323Y018190D01*
X025133Y018112D01*
X024988Y017967D01*
X024910Y017777D01*
X024910Y017740D01*
X021926Y017740D01*
X018881Y020785D01*
X020013Y020785D01*
X021844Y018954D01*
X021954Y018844D01*
X022097Y018785D01*
X031170Y018785D01*
X030429Y018044D01*
X030306Y017921D01*
X030240Y017762D01*
X030240Y015795D01*
X030172Y015767D01*
X030083Y015678D01*
X030055Y015610D01*
X028958Y015610D01*
X028893Y015675D01*
X029033Y015815D01*
X029130Y016049D01*
X029130Y016301D01*
X029033Y016535D01*
X028855Y016713D01*
X028621Y016810D01*
X027729Y016810D01*
X027495Y016713D01*
X027347Y016565D01*
X021837Y016565D01*
X016396Y022006D01*
X016253Y022065D01*
X004597Y022065D01*
X004454Y022006D01*
X004308Y021860D01*
X004039Y021860D01*
X003787Y021756D01*
X003594Y021563D01*
X003490Y021311D01*
X003490Y021039D01*
X003594Y020787D01*
X003706Y020675D01*
X003594Y020563D01*
X003490Y020311D01*
X003490Y020039D01*
X003594Y019787D01*
X003706Y019675D01*
X003594Y019563D01*
X003490Y019311D01*
X003490Y019039D01*
X003594Y018787D01*
X003787Y018594D01*
X004039Y018490D01*
X004311Y018490D01*
X004563Y018594D01*
X004756Y018787D01*
X004860Y019039D01*
X004860Y019311D01*
X004756Y019563D01*
X004644Y019675D01*
X004756Y019787D01*
X004860Y020039D01*
X004860Y020308D01*
X004937Y020385D01*
X007612Y020385D01*
X007590Y020315D01*
X007575Y020222D01*
X007575Y020175D01*
X008175Y020175D01*
X008175Y019575D01*
X008222Y019575D01*
X008315Y019590D01*
X008405Y019619D01*
X008489Y019662D01*
X008564Y019716D01*
X008583Y019672D01*
X008672Y019583D01*
X008787Y019535D01*
X009563Y019535D01*
X009678Y019583D01*
X009767Y019672D01*
X009815Y019787D01*
X009815Y020563D01*
X009767Y020678D01*
X009815Y020501D02*
X016798Y020501D01*
X016946Y020352D02*
X009815Y020352D01*
X009815Y020204D02*
X017095Y020204D01*
X017243Y020055D02*
X009815Y020055D01*
X009815Y019907D02*
X017392Y019907D01*
X017540Y019758D02*
X009803Y019758D01*
X009705Y019610D02*
X017689Y019610D01*
X017837Y019461D02*
X004798Y019461D01*
X004859Y019313D02*
X017986Y019313D01*
X018134Y019164D02*
X004860Y019164D01*
X004850Y019016D02*
X018283Y019016D01*
X018431Y018867D02*
X004789Y018867D01*
X004687Y018719D02*
X018580Y018719D01*
X018728Y018570D02*
X004504Y018570D01*
X003846Y018570D02*
X003490Y018570D01*
X003490Y018422D02*
X018877Y018422D01*
X019025Y018273D02*
X003490Y018273D01*
X003490Y018125D02*
X019174Y018125D01*
X019322Y017976D02*
X003490Y017976D01*
X003490Y017828D02*
X019471Y017828D01*
X019619Y017679D02*
X003490Y017679D01*
X003490Y017531D02*
X019768Y017531D01*
X019916Y017382D02*
X003490Y017382D01*
X003490Y017234D02*
X020065Y017234D01*
X020213Y017085D02*
X003490Y017085D01*
X003490Y016937D02*
X020362Y016937D01*
X020510Y016788D02*
X003490Y016788D01*
X003490Y016640D02*
X020659Y016640D01*
X020807Y016491D02*
X003490Y016491D01*
X003490Y016343D02*
X020956Y016343D01*
X021104Y016194D02*
X003490Y016194D01*
X003490Y016046D02*
X021253Y016046D01*
X021401Y015897D02*
X007574Y015897D01*
X007541Y015917D02*
X007441Y015958D01*
X007336Y015986D01*
X007250Y015997D01*
X007250Y015250D01*
X007100Y015250D01*
X007100Y015997D01*
X007014Y015986D01*
X006909Y015958D01*
X006809Y015917D01*
X006716Y015862D01*
X006630Y015797D01*
X006553Y015720D01*
X006488Y015634D01*
X006433Y015541D01*
X006392Y015441D01*
X006364Y015336D01*
X006353Y015250D01*
X007100Y015250D01*
X007100Y015100D01*
X006353Y015100D01*
X006361Y015034D01*
X006347Y015040D01*
X006003Y015040D01*
X005989Y015034D01*
X005997Y015100D01*
X005250Y015100D01*
X005250Y015250D01*
X005100Y015250D01*
X005100Y015997D01*
X005014Y015986D01*
X004909Y015958D01*
X004809Y015917D01*
X004716Y015862D01*
X004630Y015797D01*
X004553Y015720D01*
X004488Y015634D01*
X004433Y015541D01*
X004392Y015441D01*
X004364Y015336D01*
X004353Y015250D01*
X005100Y015250D01*
X005100Y015100D01*
X004353Y015100D01*
X004364Y015014D01*
X004392Y014909D01*
X004433Y014809D01*
X004488Y014716D01*
X004553Y014630D01*
X004630Y014553D01*
X004716Y014488D01*
X004809Y014433D01*
X004909Y014392D01*
X005014Y014364D01*
X005100Y014353D01*
X005100Y015100D01*
X005250Y015100D01*
X005250Y014353D01*
X005316Y014361D01*
X005310Y014347D01*
X005310Y014003D01*
X005316Y013989D01*
X005250Y013997D01*
X005250Y013250D01*
X005997Y013250D01*
X005989Y013316D01*
X006003Y013310D01*
X006347Y013310D01*
X006361Y013316D01*
X006353Y013250D01*
X007100Y013250D01*
X007100Y013997D01*
X007034Y013989D01*
X007040Y014003D01*
X007040Y014347D01*
X007034Y014361D01*
X007100Y014353D01*
X007100Y015100D01*
X007250Y015100D01*
X007250Y015250D01*
X007997Y015250D01*
X007986Y015336D01*
X007958Y015441D01*
X007917Y015541D01*
X007862Y015634D01*
X007797Y015720D01*
X007720Y015797D01*
X007634Y015862D01*
X007541Y015917D01*
X007768Y015749D02*
X027383Y015749D01*
X027382Y015600D02*
X007882Y015600D01*
X007953Y015452D02*
X026500Y015452D01*
X026351Y015303D02*
X007990Y015303D01*
X007997Y015100D02*
X007250Y015100D01*
X007250Y014353D01*
X007336Y014364D01*
X007441Y014392D01*
X007541Y014433D01*
X007634Y014488D01*
X007720Y014553D01*
X007797Y014630D01*
X007862Y014716D01*
X007917Y014809D01*
X007958Y014909D01*
X007986Y015014D01*
X007997Y015100D01*
X007984Y015006D02*
X026054Y015006D01*
X025906Y014858D02*
X007936Y014858D01*
X007857Y014709D02*
X025757Y014709D01*
X025609Y014561D02*
X007727Y014561D01*
X007489Y014412D02*
X025460Y014412D01*
X025312Y014264D02*
X007040Y014264D01*
X007040Y014115D02*
X025163Y014115D01*
X024838Y013967D02*
X007409Y013967D01*
X007441Y013958D02*
X007336Y013986D01*
X007250Y013997D01*
X007250Y013250D01*
X007100Y013250D01*
X007100Y013100D01*
X007250Y013100D01*
X007250Y013250D01*
X007997Y013250D01*
X007986Y013336D01*
X007958Y013441D01*
X007917Y013541D01*
X007862Y013634D01*
X007797Y013720D01*
X007720Y013797D01*
X007634Y013862D01*
X007541Y013917D01*
X007441Y013958D01*
X007250Y013967D02*
X007100Y013967D01*
X007100Y013818D02*
X007250Y013818D01*
X007250Y013670D02*
X007100Y013670D01*
X007100Y013521D02*
X007250Y013521D01*
X007250Y013373D02*
X007100Y013373D01*
X007100Y013224D02*
X005250Y013224D01*
X005250Y013250D02*
X005250Y013100D01*
X005997Y013100D01*
X005986Y013014D01*
X005958Y012909D01*
X005917Y012809D01*
X005862Y012716D01*
X005797Y012630D01*
X006553Y012630D01*
X006630Y012553D01*
X006716Y012488D01*
X006809Y012433D01*
X006909Y012392D01*
X007014Y012364D01*
X007100Y012353D01*
X007100Y013100D01*
X006353Y013100D01*
X006364Y013014D01*
X006392Y012909D01*
X006433Y012809D01*
X006488Y012716D01*
X006553Y012630D01*
X006451Y012779D02*
X005899Y012779D01*
X005963Y012927D02*
X006387Y012927D01*
X006356Y013076D02*
X005994Y013076D01*
X005797Y012630D02*
X005720Y012553D01*
X005634Y012488D01*
X005541Y012433D01*
X005441Y012392D01*
X005336Y012364D01*
X005250Y012353D01*
X005250Y013100D01*
X005100Y013100D01*
X005100Y012353D01*
X005014Y012364D01*
X004909Y012392D01*
X004809Y012433D01*
X004716Y012488D01*
X004630Y012553D01*
X004553Y012630D01*
X003490Y012630D01*
X003490Y012482D02*
X004726Y012482D01*
X004553Y012630D02*
X004488Y012716D01*
X004433Y012809D01*
X004392Y012909D01*
X004364Y013014D01*
X004353Y013100D01*
X005100Y013100D01*
X005100Y013250D01*
X005100Y013997D01*
X005014Y013986D01*
X004909Y013958D01*
X004809Y013917D01*
X004716Y013862D01*
X004630Y013797D01*
X004553Y013720D01*
X004488Y013634D01*
X004433Y013541D01*
X004392Y013441D01*
X004364Y013336D01*
X004353Y013250D01*
X005100Y013250D01*
X005250Y013250D01*
X005175Y013175D02*
X005175Y015175D01*
X007175Y015175D01*
X007250Y015155D02*
X026203Y015155D01*
X026775Y015175D02*
X028175Y015175D01*
X028150Y014412D02*
X028200Y014412D01*
X028200Y014264D02*
X028150Y014264D01*
X028175Y014175D02*
X027175Y014175D01*
X024175Y011175D01*
X023742Y011591D02*
X046337Y011591D01*
X047013Y011591D02*
X061860Y011591D01*
X061860Y011739D02*
X023891Y011739D01*
X024039Y011888D02*
X061860Y011888D01*
X061860Y012036D02*
X024188Y012036D01*
X024336Y012185D02*
X061860Y012185D01*
X061860Y012333D02*
X038768Y012333D01*
X038812Y012377D02*
X038860Y012492D01*
X038860Y013358D01*
X038812Y013473D01*
X038723Y013562D01*
X038610Y013609D01*
X038610Y013741D01*
X038723Y013788D01*
X038812Y013877D01*
X038860Y013992D01*
X038860Y014858D01*
X038812Y014973D01*
X038723Y015062D01*
X038608Y015110D01*
X037742Y015110D01*
X037627Y015062D01*
X037538Y014973D01*
X037534Y014963D01*
X037461Y015005D01*
X037383Y015037D01*
X037301Y015059D01*
X037217Y015070D01*
X037198Y015070D01*
X037198Y014448D01*
X037152Y014448D01*
X037152Y015070D01*
X037133Y015070D01*
X037049Y015059D01*
X036967Y015037D01*
X036889Y015005D01*
X036816Y014962D01*
X036749Y014911D01*
X036703Y014865D01*
X036610Y014959D01*
X036610Y015262D01*
X036544Y015421D01*
X036421Y015544D01*
X036262Y015610D01*
X033795Y015610D01*
X033767Y015678D01*
X033678Y015767D01*
X033563Y015815D01*
X032787Y015815D01*
X032672Y015767D01*
X032583Y015678D01*
X032535Y015563D01*
X032535Y014787D01*
X032583Y014672D01*
X032672Y014583D01*
X032716Y014564D01*
X032662Y014489D01*
X032619Y014405D01*
X032590Y014315D01*
X032575Y014222D01*
X032575Y014175D01*
X033175Y014175D01*
X033775Y014175D01*
X033775Y014222D01*
X033760Y014315D01*
X033731Y014405D01*
X033688Y014489D01*
X033634Y014564D01*
X033678Y014583D01*
X033767Y014672D01*
X033795Y014740D01*
X035564Y014740D01*
X035490Y014561D01*
X035490Y014289D01*
X035594Y014037D01*
X035740Y013891D01*
X035740Y013459D01*
X035594Y013313D01*
X035490Y013061D01*
X035490Y012789D01*
X035594Y012537D01*
X035787Y012344D01*
X036039Y012240D01*
X036311Y012240D01*
X036563Y012344D01*
X036703Y012485D01*
X036749Y012439D01*
X036816Y012388D01*
X036889Y012345D01*
X036967Y012313D01*
X037049Y012291D01*
X037133Y012280D01*
X037152Y012280D01*
X037152Y012902D01*
X037198Y012902D01*
X037198Y012280D01*
X037217Y012280D01*
X037301Y012291D01*
X037383Y012313D01*
X037461Y012345D01*
X037534Y012387D01*
X037538Y012377D01*
X037627Y012288D01*
X037742Y012240D01*
X038608Y012240D01*
X038723Y012288D01*
X038812Y012377D01*
X038856Y012482D02*
X061860Y012482D01*
X061860Y012630D02*
X038860Y012630D01*
X038860Y012779D02*
X061860Y012779D01*
X061860Y012927D02*
X038860Y012927D01*
X038860Y013076D02*
X061860Y013076D01*
X061860Y013224D02*
X038860Y013224D01*
X038854Y013373D02*
X061860Y013373D01*
X061860Y013521D02*
X038764Y013521D01*
X038610Y013670D02*
X061860Y013670D01*
X061860Y013818D02*
X038753Y013818D01*
X038849Y013967D02*
X061860Y013967D01*
X061860Y014115D02*
X038860Y014115D01*
X038860Y014264D02*
X061860Y014264D01*
X061860Y014412D02*
X038860Y014412D01*
X038860Y014561D02*
X061860Y014561D01*
X061860Y014709D02*
X038860Y014709D01*
X038860Y014858D02*
X061860Y014858D01*
X061860Y015006D02*
X038779Y015006D01*
X037571Y015006D02*
X037458Y015006D01*
X037198Y015006D02*
X037152Y015006D01*
X037152Y014858D02*
X037198Y014858D01*
X037198Y014709D02*
X037152Y014709D01*
X037152Y014561D02*
X037198Y014561D01*
X037198Y014448D02*
X037490Y014448D01*
X037490Y014402D01*
X037198Y014402D01*
X037198Y014448D01*
X037198Y014412D02*
X037490Y014412D01*
X037198Y014402D02*
X037198Y013780D01*
X037217Y013780D01*
X037301Y013791D01*
X037383Y013813D01*
X037461Y013845D01*
X037534Y013887D01*
X037538Y013877D01*
X037627Y013788D01*
X037740Y013741D01*
X037740Y013609D01*
X037627Y013562D01*
X037538Y013473D01*
X037534Y013463D01*
X037461Y013505D01*
X037383Y013537D01*
X037301Y013559D01*
X037217Y013570D01*
X037198Y013570D01*
X037198Y012948D01*
X037152Y012948D01*
X037152Y013570D01*
X037133Y013570D01*
X037049Y013559D01*
X036967Y013537D01*
X036889Y013505D01*
X036816Y013462D01*
X036749Y013411D01*
X036703Y013365D01*
X036610Y013459D01*
X036610Y013891D01*
X036703Y013985D01*
X036749Y013939D01*
X036816Y013888D01*
X036889Y013845D01*
X036967Y013813D01*
X037049Y013791D01*
X037133Y013780D01*
X037152Y013780D01*
X037152Y014402D01*
X036860Y014402D01*
X036860Y014448D01*
X037152Y014448D01*
X037152Y014402D01*
X037198Y014402D01*
X037152Y014412D02*
X036860Y014412D01*
X037152Y014264D02*
X037198Y014264D01*
X037198Y014115D02*
X037152Y014115D01*
X037152Y013967D02*
X037198Y013967D01*
X037198Y013818D02*
X037152Y013818D01*
X036955Y013818D02*
X036610Y013818D01*
X036610Y013670D02*
X037740Y013670D01*
X037597Y013818D02*
X037395Y013818D01*
X037422Y013521D02*
X037586Y013521D01*
X037198Y013521D02*
X037152Y013521D01*
X037152Y013373D02*
X037198Y013373D01*
X037198Y013224D02*
X037152Y013224D01*
X037152Y013076D02*
X037198Y013076D01*
X037198Y012779D02*
X037152Y012779D01*
X037152Y012630D02*
X037198Y012630D01*
X037198Y012482D02*
X037152Y012482D01*
X037152Y012333D02*
X037198Y012333D01*
X037431Y012333D02*
X037582Y012333D01*
X036919Y012333D02*
X036536Y012333D01*
X036700Y012482D02*
X036706Y012482D01*
X035814Y012333D02*
X024485Y012333D01*
X024633Y012482D02*
X035650Y012482D01*
X035556Y012630D02*
X024782Y012630D01*
X024930Y012779D02*
X035494Y012779D01*
X035490Y012927D02*
X025079Y012927D01*
X025315Y013076D02*
X035496Y013076D01*
X035557Y013224D02*
X025552Y013224D01*
X025649Y013373D02*
X035654Y013373D01*
X035740Y013521D02*
X025690Y013521D01*
X025821Y013670D02*
X027538Y013670D01*
X027543Y013666D02*
X027627Y013624D01*
X027716Y013595D01*
X027808Y013580D01*
X028150Y013580D01*
X028150Y014150D01*
X027260Y014150D01*
X027260Y014128D01*
X027275Y014036D01*
X027304Y013947D01*
X027346Y013863D01*
X027401Y013787D01*
X027467Y013721D01*
X027543Y013666D01*
X027379Y013818D02*
X025970Y013818D01*
X026118Y013967D02*
X027297Y013967D01*
X027262Y014115D02*
X026267Y014115D01*
X026415Y014264D02*
X027267Y014264D01*
X027308Y014412D02*
X026564Y014412D01*
X026712Y014561D02*
X027400Y014561D01*
X027423Y014709D02*
X026861Y014709D01*
X026775Y015175D02*
X025175Y013575D01*
X022825Y011225D01*
X022825Y010675D01*
X023175Y010700D02*
X022175Y010700D01*
X022175Y010848D02*
X023175Y010848D01*
X023175Y010997D02*
X022175Y010997D01*
X022175Y011145D02*
X023175Y011145D01*
X023175Y011175D02*
X023175Y010175D01*
X024675Y010175D01*
X025675Y011175D01*
X028425Y011175D01*
X029175Y010175D01*
X032175Y010175D01*
X032175Y007675D01*
X034536Y007675D01*
X034573Y007660D01*
X034777Y007660D01*
X034814Y007675D01*
X035175Y007675D01*
X035175Y004675D01*
X026425Y004675D01*
X025675Y005425D01*
X025675Y005925D01*
X026675Y005925D01*
X027925Y007175D01*
X027925Y008925D01*
X026925Y009925D01*
X022175Y009925D01*
X022175Y011175D01*
X023175Y011175D01*
X023565Y011145D02*
X025093Y011145D01*
X024945Y010997D02*
X023565Y010997D01*
X023565Y010848D02*
X024796Y010848D01*
X024648Y010700D02*
X023565Y010700D01*
X023175Y010551D02*
X022175Y010551D01*
X022175Y010403D02*
X023175Y010403D01*
X023175Y010254D02*
X022175Y010254D01*
X022175Y010106D02*
X032175Y010106D01*
X032175Y009957D02*
X022175Y009957D01*
X021785Y009957D02*
X019826Y009957D01*
X019860Y010039D02*
X019756Y009787D01*
X019563Y009594D01*
X019311Y009490D01*
X019039Y009490D01*
X018787Y009594D01*
X018594Y009787D01*
X018490Y010039D01*
X018490Y010311D01*
X018594Y010563D01*
X018787Y010756D01*
X019039Y010860D01*
X019311Y010860D01*
X019563Y010756D01*
X019756Y010563D01*
X019860Y010311D01*
X019860Y010039D01*
X019860Y010106D02*
X021785Y010106D01*
X021785Y010254D02*
X019860Y010254D01*
X019822Y010403D02*
X021785Y010403D01*
X021785Y010551D02*
X019761Y010551D01*
X019619Y010700D02*
X021785Y010700D01*
X021785Y010848D02*
X019340Y010848D01*
X019010Y010848D02*
X017340Y010848D01*
X017311Y010860D02*
X017039Y010860D01*
X016787Y010756D01*
X016594Y010563D01*
X016490Y010311D01*
X016490Y010039D01*
X016594Y009787D01*
X016787Y009594D01*
X017039Y009490D01*
X017311Y009490D01*
X017563Y009594D01*
X017756Y009787D01*
X017860Y010039D01*
X017860Y010311D01*
X017756Y010563D01*
X017563Y010756D01*
X017311Y010860D01*
X017010Y010848D02*
X003490Y010848D01*
X003490Y010700D02*
X016731Y010700D01*
X016589Y010551D02*
X003490Y010551D01*
X003490Y010403D02*
X016528Y010403D01*
X016490Y010254D02*
X003490Y010254D01*
X003490Y010106D02*
X016490Y010106D01*
X016524Y009957D02*
X003490Y009957D01*
X003490Y009809D02*
X016585Y009809D01*
X016721Y009660D02*
X003490Y009660D01*
X003490Y009512D02*
X016987Y009512D01*
X017363Y009512D02*
X018987Y009512D01*
X018721Y009660D02*
X017629Y009660D01*
X017765Y009809D02*
X018585Y009809D01*
X018524Y009957D02*
X017826Y009957D01*
X017860Y010106D02*
X018490Y010106D01*
X018490Y010254D02*
X017860Y010254D01*
X017822Y010403D02*
X018528Y010403D01*
X018589Y010551D02*
X017761Y010551D01*
X017619Y010700D02*
X018731Y010700D01*
X019363Y009512D02*
X025239Y009512D01*
X024982Y009363D02*
X003490Y009363D01*
X003490Y009215D02*
X024820Y009215D01*
X024672Y009066D02*
X003490Y009066D01*
X003490Y008918D02*
X024571Y008918D01*
X024485Y008769D02*
X003490Y008769D01*
X003490Y008621D02*
X024406Y008621D01*
X024366Y008472D02*
X003490Y008472D01*
X003490Y008324D02*
X024327Y008324D01*
X024297Y008175D02*
X003490Y008175D01*
X003490Y008026D02*
X024297Y008026D01*
X024297Y007878D02*
X004993Y007878D01*
X005490Y007729D02*
X024307Y007729D01*
X024347Y007581D02*
X005837Y007581D01*
X005617Y007692D02*
X005617Y007692D01*
X006134Y007432D02*
X024387Y007432D01*
X024443Y007284D02*
X006398Y007284D01*
X006332Y007333D02*
X006332Y007333D01*
X006598Y007135D02*
X024528Y007135D01*
X024614Y006987D02*
X006797Y006987D01*
X006974Y006855D02*
X006974Y006855D01*
X006990Y006838D02*
X024747Y006838D01*
X024896Y006690D02*
X007131Y006690D01*
X007271Y006541D02*
X025113Y006541D01*
X025409Y006393D02*
X007411Y006393D01*
X007524Y006274D02*
X007524Y006274D01*
X007543Y006244D02*
X025443Y006244D01*
X025324Y006096D02*
X007641Y006096D01*
X007739Y005947D02*
X025285Y005947D01*
X025285Y005799D02*
X007836Y005799D01*
X007934Y005650D02*
X025285Y005650D01*
X025285Y005502D02*
X008008Y005502D01*
X007964Y005606D02*
X007964Y005606D01*
X008073Y005353D02*
X025285Y005353D01*
X025344Y005205D02*
X008137Y005205D01*
X008201Y005056D02*
X025492Y005056D01*
X025640Y004908D02*
X008265Y004908D01*
X008308Y004759D02*
X025789Y004759D01*
X025937Y004611D02*
X008343Y004611D01*
X008378Y004462D02*
X026086Y004462D01*
X026277Y004314D02*
X008413Y004314D01*
X008449Y004165D02*
X061860Y004165D01*
X061860Y004017D02*
X008470Y004017D01*
X008466Y004093D02*
X008466Y004093D01*
X008479Y003868D02*
X061860Y003868D01*
X061860Y003720D02*
X008490Y003720D01*
X008490Y003571D02*
X061860Y003571D01*
X061860Y004314D02*
X035323Y004314D01*
X035509Y004462D02*
X061860Y004462D01*
X061860Y004611D02*
X035565Y004611D01*
X035565Y004759D02*
X061860Y004759D01*
X061860Y004908D02*
X035565Y004908D01*
X035565Y005056D02*
X061860Y005056D01*
X061860Y005205D02*
X035565Y005205D01*
X035565Y005353D02*
X061860Y005353D01*
X061860Y005502D02*
X035565Y005502D01*
X035565Y005650D02*
X061860Y005650D01*
X061860Y005799D02*
X035565Y005799D01*
X035565Y005947D02*
X061860Y005947D01*
X061860Y006096D02*
X035565Y006096D01*
X035565Y006244D02*
X061860Y006244D01*
X061860Y006393D02*
X046256Y006393D01*
X046328Y006412D02*
X046714Y006635D01*
X047030Y006950D01*
X047253Y007337D01*
X047368Y007767D01*
X047368Y008213D01*
X047253Y008643D01*
X047030Y009029D01*
X046714Y009345D01*
X046328Y009568D01*
X045898Y009683D01*
X045452Y009683D01*
X045022Y009568D01*
X044636Y009345D01*
X044320Y009029D01*
X044097Y008643D01*
X043982Y008213D01*
X043982Y007767D01*
X044097Y007337D01*
X044320Y006950D01*
X044636Y006635D01*
X045022Y006412D01*
X045452Y006297D01*
X045898Y006297D01*
X046328Y006412D01*
X046552Y006541D02*
X061860Y006541D01*
X061860Y006690D02*
X046769Y006690D01*
X046918Y006838D02*
X061860Y006838D01*
X061860Y006987D02*
X047051Y006987D01*
X047137Y007135D02*
X061860Y007135D01*
X061860Y007284D02*
X047222Y007284D01*
X047278Y007432D02*
X061860Y007432D01*
X061860Y007581D02*
X047318Y007581D01*
X047358Y007729D02*
X061860Y007729D01*
X061860Y007878D02*
X051507Y007878D01*
X051463Y007860D02*
X051763Y007984D01*
X051992Y008213D01*
X052116Y008513D01*
X052116Y008837D01*
X051992Y009137D01*
X051763Y009366D01*
X051463Y009490D01*
X051139Y009490D01*
X050839Y009366D01*
X050610Y009137D01*
X050486Y008837D01*
X050486Y008513D01*
X050610Y008213D01*
X050839Y007984D01*
X051139Y007860D01*
X051463Y007860D01*
X051095Y007878D02*
X047368Y007878D01*
X047368Y008026D02*
X050797Y008026D01*
X050648Y008175D02*
X047368Y008175D01*
X047338Y008324D02*
X050564Y008324D01*
X050503Y008472D02*
X047299Y008472D01*
X047259Y008621D02*
X050486Y008621D01*
X050486Y008769D02*
X047180Y008769D01*
X047094Y008918D02*
X050519Y008918D01*
X050581Y009066D02*
X046993Y009066D01*
X046845Y009215D02*
X050688Y009215D01*
X050836Y009363D02*
X046683Y009363D01*
X046426Y009512D02*
X061860Y009512D01*
X061860Y009660D02*
X045983Y009660D01*
X045842Y010254D02*
X041388Y010254D01*
X041536Y010106D02*
X061860Y010106D01*
X061860Y010254D02*
X046508Y010254D01*
X046639Y010403D02*
X061860Y010403D01*
X061860Y010551D02*
X046701Y010551D01*
X046920Y010700D02*
X061860Y010700D01*
X061860Y010848D02*
X047102Y010848D01*
X047178Y010997D02*
X061860Y010997D01*
X061860Y011145D02*
X047208Y011145D01*
X047203Y011294D02*
X061860Y011294D01*
X061860Y011442D02*
X047141Y011442D01*
X045367Y009660D02*
X041763Y009660D01*
X041763Y009512D02*
X044924Y009512D01*
X044667Y009363D02*
X041763Y009363D01*
X041733Y009215D02*
X044505Y009215D01*
X044357Y009066D02*
X041672Y009066D01*
X041603Y008918D02*
X044256Y008918D01*
X044170Y008769D02*
X041455Y008769D01*
X041253Y008621D02*
X044091Y008621D01*
X044051Y008472D02*
X039562Y008472D01*
X039562Y008324D02*
X044012Y008324D01*
X043982Y008175D02*
X039516Y008175D01*
X039441Y008026D02*
X043982Y008026D01*
X043982Y007878D02*
X039292Y007878D01*
X038542Y007878D02*
X038308Y007878D01*
X037933Y008415D02*
X037925Y008425D01*
X037198Y008621D02*
X036513Y008621D01*
X036714Y008769D02*
X037160Y008769D01*
X037160Y008918D02*
X036863Y008918D01*
X036932Y009066D02*
X037160Y009066D01*
X037160Y009215D02*
X036993Y009215D01*
X037023Y009363D02*
X037170Y009363D01*
X037266Y009512D02*
X037023Y009512D01*
X037023Y009660D02*
X037917Y009660D01*
X037925Y009675D02*
X037933Y009675D01*
X037917Y009809D02*
X037948Y009809D01*
X037948Y009957D02*
X037917Y009957D01*
X037917Y010106D02*
X037948Y010106D01*
X037948Y010254D02*
X037917Y010254D01*
X037757Y010254D02*
X036648Y010254D01*
X036796Y010106D02*
X037508Y010106D01*
X037398Y009957D02*
X036904Y009957D01*
X036966Y009809D02*
X037341Y009809D01*
X038109Y010254D02*
X038560Y010254D01*
X038560Y010403D02*
X036352Y010403D01*
X035758Y010403D02*
X032499Y010403D01*
X032564Y010254D02*
X035462Y010254D01*
X035314Y010106D02*
X032565Y010106D01*
X032565Y009957D02*
X035206Y009957D01*
X035144Y009809D02*
X032565Y009809D01*
X032565Y009660D02*
X035087Y009660D01*
X035087Y009512D02*
X032565Y009512D01*
X032565Y009363D02*
X035087Y009363D01*
X035117Y009215D02*
X032565Y009215D01*
X032565Y009066D02*
X035178Y009066D01*
X035247Y008918D02*
X033932Y008918D01*
X034159Y008769D02*
X035395Y008769D01*
X035597Y008621D02*
X034945Y008621D01*
X034405Y008621D02*
X034251Y008621D01*
X033618Y008918D02*
X032565Y008918D01*
X032565Y008769D02*
X033391Y008769D01*
X033299Y008621D02*
X032565Y008621D01*
X032565Y008472D02*
X033260Y008472D01*
X033260Y008324D02*
X032565Y008324D01*
X032565Y008175D02*
X033321Y008175D01*
X032175Y008175D02*
X027925Y008175D01*
X027925Y008026D02*
X032175Y008026D01*
X032175Y007878D02*
X027925Y007878D01*
X027925Y007729D02*
X032175Y007729D01*
X032175Y008324D02*
X027925Y008324D01*
X027925Y008472D02*
X032175Y008472D01*
X032175Y008621D02*
X027925Y008621D01*
X027925Y008769D02*
X032175Y008769D01*
X032175Y008918D02*
X027925Y008918D01*
X027784Y009066D02*
X032175Y009066D01*
X032175Y009215D02*
X027635Y009215D01*
X027487Y009363D02*
X032175Y009363D01*
X032175Y009512D02*
X027338Y009512D01*
X027190Y009660D02*
X032175Y009660D01*
X032175Y009809D02*
X027041Y009809D01*
X028559Y010997D02*
X025497Y010997D01*
X025645Y011145D02*
X028447Y011145D01*
X028670Y010848D02*
X025348Y010848D01*
X025200Y010700D02*
X028782Y010700D01*
X028893Y010551D02*
X025051Y010551D01*
X024903Y010403D02*
X029004Y010403D01*
X029116Y010254D02*
X024754Y010254D01*
X025242Y011294D02*
X023548Y011294D01*
X023594Y011442D02*
X025390Y011442D01*
X023678Y012630D02*
X007797Y012630D01*
X007862Y012716D01*
X007917Y012809D01*
X007958Y012909D01*
X007986Y013014D01*
X007997Y013100D01*
X007250Y013100D01*
X007250Y012353D01*
X007336Y012364D01*
X007441Y012392D01*
X007541Y012433D01*
X007634Y012488D01*
X007720Y012553D01*
X007797Y012630D01*
X007899Y012779D02*
X023827Y012779D01*
X023975Y012927D02*
X007963Y012927D01*
X007994Y013076D02*
X024124Y013076D01*
X024272Y013224D02*
X007250Y013224D01*
X007175Y013175D02*
X005175Y013175D01*
X005100Y013224D02*
X003490Y013224D01*
X003490Y013076D02*
X004356Y013076D01*
X004387Y012927D02*
X003490Y012927D01*
X003490Y012779D02*
X004451Y012779D01*
X004374Y013373D02*
X003490Y013373D01*
X003490Y013521D02*
X004425Y013521D01*
X004515Y013670D02*
X003490Y013670D01*
X003490Y013818D02*
X004658Y013818D01*
X004941Y013967D02*
X003490Y013967D01*
X003490Y014115D02*
X005310Y014115D01*
X005310Y014264D02*
X003490Y014264D01*
X003490Y014412D02*
X004861Y014412D01*
X005100Y014412D02*
X005250Y014412D01*
X005250Y014561D02*
X005100Y014561D01*
X005100Y014709D02*
X005250Y014709D01*
X005250Y014858D02*
X005100Y014858D01*
X005100Y015006D02*
X005250Y015006D01*
X005250Y015155D02*
X007100Y015155D01*
X007100Y015303D02*
X007250Y015303D01*
X007250Y015452D02*
X007100Y015452D01*
X007100Y015600D02*
X007250Y015600D01*
X007250Y015749D02*
X007100Y015749D01*
X007100Y015897D02*
X007250Y015897D01*
X006776Y015897D02*
X005574Y015897D01*
X005541Y015917D02*
X005441Y015958D01*
X005336Y015986D01*
X005250Y015997D01*
X005250Y015250D01*
X005997Y015250D01*
X005986Y015336D01*
X005958Y015441D01*
X005917Y015541D01*
X005862Y015634D01*
X005797Y015720D01*
X005720Y015797D01*
X005634Y015862D01*
X005541Y015917D01*
X005768Y015749D02*
X006582Y015749D01*
X006468Y015600D02*
X005882Y015600D01*
X005953Y015452D02*
X006397Y015452D01*
X006360Y015303D02*
X005990Y015303D01*
X005250Y015303D02*
X005100Y015303D01*
X005100Y015155D02*
X003490Y015155D01*
X003490Y015303D02*
X004360Y015303D01*
X004397Y015452D02*
X003490Y015452D01*
X003490Y015600D02*
X004468Y015600D01*
X004582Y015749D02*
X003490Y015749D01*
X003490Y015897D02*
X004776Y015897D01*
X005100Y015897D02*
X005250Y015897D01*
X005250Y015749D02*
X005100Y015749D01*
X005100Y015600D02*
X005250Y015600D01*
X005250Y015452D02*
X005100Y015452D01*
X004366Y015006D02*
X003490Y015006D01*
X003490Y014858D02*
X004414Y014858D01*
X004493Y014709D02*
X003490Y014709D01*
X003490Y014561D02*
X004623Y014561D01*
X005100Y013967D02*
X005250Y013967D01*
X005250Y013818D02*
X005100Y013818D01*
X005100Y013670D02*
X005250Y013670D01*
X005250Y013521D02*
X005100Y013521D01*
X005100Y013373D02*
X005250Y013373D01*
X005250Y013076D02*
X005100Y013076D01*
X005100Y012927D02*
X005250Y012927D01*
X005250Y012779D02*
X005100Y012779D01*
X005100Y012630D02*
X005250Y012630D01*
X005250Y012482D02*
X005100Y012482D01*
X005624Y012482D02*
X006726Y012482D01*
X007100Y012482D02*
X007250Y012482D01*
X007250Y012630D02*
X007100Y012630D01*
X007100Y012779D02*
X007250Y012779D01*
X007250Y012927D02*
X007100Y012927D01*
X007100Y013076D02*
X007250Y013076D01*
X007624Y012482D02*
X023530Y012482D01*
X023381Y012333D02*
X003490Y012333D01*
X003490Y012185D02*
X023233Y012185D01*
X023084Y012036D02*
X003490Y012036D01*
X003490Y011888D02*
X022936Y011888D01*
X022787Y011739D02*
X003490Y011739D01*
X003490Y011591D02*
X022639Y011591D01*
X021890Y011442D02*
X003490Y011442D01*
X003490Y011294D02*
X021802Y011294D01*
X021785Y011145D02*
X003490Y011145D01*
X003490Y010997D02*
X021785Y010997D01*
X021801Y009809D02*
X019765Y009809D01*
X019629Y009660D02*
X021888Y009660D01*
X026846Y006096D02*
X035175Y006096D01*
X035175Y006244D02*
X026994Y006244D01*
X027143Y006393D02*
X035175Y006393D01*
X035175Y006541D02*
X027291Y006541D01*
X027440Y006690D02*
X035175Y006690D01*
X035175Y006838D02*
X027588Y006838D01*
X027737Y006987D02*
X035175Y006987D01*
X035175Y007135D02*
X027885Y007135D01*
X027925Y007284D02*
X035175Y007284D01*
X035175Y007432D02*
X027925Y007432D01*
X027925Y007581D02*
X035175Y007581D01*
X035565Y007581D02*
X044032Y007581D01*
X044072Y007432D02*
X035565Y007432D01*
X035565Y007284D02*
X044128Y007284D01*
X044213Y007135D02*
X035565Y007135D01*
X035565Y006987D02*
X044299Y006987D01*
X044432Y006838D02*
X035565Y006838D01*
X035565Y006690D02*
X044581Y006690D01*
X044798Y006541D02*
X035565Y006541D01*
X035565Y006393D02*
X045094Y006393D01*
X043992Y007729D02*
X035565Y007729D01*
X035175Y005947D02*
X026697Y005947D01*
X025675Y005799D02*
X035175Y005799D01*
X035175Y005650D02*
X025675Y005650D01*
X025675Y005502D02*
X035175Y005502D01*
X035175Y005353D02*
X025747Y005353D01*
X025895Y005205D02*
X035175Y005205D01*
X035175Y005056D02*
X026044Y005056D01*
X026192Y004908D02*
X035175Y004908D01*
X035175Y004759D02*
X026341Y004759D01*
X029269Y010700D02*
X038560Y010700D01*
X038560Y010848D02*
X029158Y010848D01*
X029046Y010997D02*
X038560Y010997D01*
X038560Y011145D02*
X028935Y011145D01*
X028824Y011294D02*
X038579Y011294D01*
X038676Y011442D02*
X028712Y011442D01*
X028542Y013580D02*
X028200Y013580D01*
X028200Y014150D01*
X029090Y014150D01*
X029090Y014128D01*
X029075Y014036D01*
X029046Y013947D01*
X029004Y013863D01*
X028949Y013787D01*
X028883Y013721D01*
X028807Y013666D01*
X028723Y013624D01*
X028634Y013595D01*
X028542Y013580D01*
X028812Y013670D02*
X030350Y013670D01*
X030361Y013662D02*
X030445Y013619D01*
X030534Y013590D01*
X030628Y013575D01*
X030675Y013575D01*
X030722Y013575D01*
X030815Y013590D01*
X030905Y013619D01*
X030989Y013662D01*
X031066Y013717D01*
X031133Y013784D01*
X031188Y013861D01*
X031231Y013945D01*
X031260Y014034D01*
X031275Y014128D01*
X031275Y014175D01*
X030675Y014175D01*
X030675Y014175D01*
X030675Y013575D01*
X030675Y014175D01*
X030675Y014175D01*
X030675Y014175D01*
X030075Y014175D01*
X030075Y014128D01*
X030090Y014034D01*
X030119Y013945D01*
X030162Y013861D01*
X030217Y013784D01*
X030284Y013717D01*
X030361Y013662D01*
X030193Y013818D02*
X028971Y013818D01*
X029053Y013967D02*
X030112Y013967D01*
X030077Y014115D02*
X029088Y014115D01*
X029083Y014264D02*
X030082Y014264D01*
X030122Y014412D02*
X029042Y014412D01*
X028950Y014561D02*
X030213Y014561D01*
X030067Y014709D02*
X028927Y014709D01*
X028200Y014115D02*
X028150Y014115D01*
X028150Y013967D02*
X028200Y013967D01*
X028200Y013818D02*
X028150Y013818D01*
X028150Y013670D02*
X028200Y013670D01*
X030675Y013670D02*
X030675Y013670D01*
X030675Y013818D02*
X030675Y013818D01*
X030675Y013967D02*
X030675Y013967D01*
X030675Y014115D02*
X030675Y014115D01*
X031000Y013670D02*
X032850Y013670D01*
X032861Y013662D02*
X032945Y013619D01*
X033034Y013590D01*
X033128Y013575D01*
X033175Y013575D01*
X033222Y013575D01*
X033315Y013590D01*
X033405Y013619D01*
X033489Y013662D01*
X033566Y013717D01*
X033633Y013784D01*
X033688Y013861D01*
X033731Y013945D01*
X033760Y014034D01*
X033775Y014128D01*
X033775Y014175D01*
X033175Y014175D01*
X033175Y014175D01*
X033175Y014175D01*
X033175Y013575D01*
X033175Y014175D01*
X033175Y014175D01*
X032575Y014175D01*
X032575Y014128D01*
X032590Y014034D01*
X032619Y013945D01*
X032662Y013861D01*
X032717Y013784D01*
X032784Y013717D01*
X032861Y013662D01*
X032693Y013818D02*
X031157Y013818D01*
X031238Y013967D02*
X032612Y013967D01*
X032577Y014115D02*
X031273Y014115D01*
X031268Y014264D02*
X032582Y014264D01*
X032622Y014412D02*
X031228Y014412D01*
X031137Y014561D02*
X032713Y014561D01*
X032567Y014709D02*
X031283Y014709D01*
X031315Y014858D02*
X032535Y014858D01*
X032535Y015006D02*
X031315Y015006D01*
X031315Y015155D02*
X032535Y015155D01*
X032535Y015303D02*
X031315Y015303D01*
X031315Y015452D02*
X032535Y015452D01*
X032550Y015600D02*
X031300Y015600D01*
X031197Y015749D02*
X032653Y015749D01*
X033697Y015749D02*
X042660Y015749D01*
X042660Y015600D02*
X036286Y015600D01*
X036514Y015452D02*
X042710Y015452D01*
X042819Y015303D02*
X036593Y015303D01*
X036610Y015155D02*
X061860Y015155D01*
X061860Y015303D02*
X043531Y015303D01*
X043640Y015452D02*
X061860Y015452D01*
X061860Y015600D02*
X043690Y015600D01*
X043765Y015749D02*
X061860Y015749D01*
X061860Y015897D02*
X043913Y015897D01*
X044062Y016046D02*
X061860Y016046D01*
X061860Y016194D02*
X044210Y016194D01*
X044359Y016343D02*
X061860Y016343D01*
X061860Y016491D02*
X044507Y016491D01*
X043920Y016937D02*
X031110Y016937D01*
X031110Y017085D02*
X044069Y017085D01*
X044217Y017234D02*
X031110Y017234D01*
X031110Y017382D02*
X032853Y017382D01*
X032764Y017531D02*
X031146Y017531D01*
X031294Y017679D02*
X032740Y017679D01*
X032767Y017828D02*
X031443Y017828D01*
X031591Y017976D02*
X032785Y017976D01*
X032785Y018125D02*
X031740Y018125D01*
X031888Y018273D02*
X032785Y018273D01*
X032785Y018422D02*
X032037Y018422D01*
X032504Y018570D02*
X032785Y018570D01*
X033175Y019175D02*
X033175Y017675D01*
X031110Y016788D02*
X043772Y016788D01*
X043623Y016640D02*
X031110Y016640D01*
X031110Y016491D02*
X043475Y016491D01*
X043326Y016343D02*
X031110Y016343D01*
X031110Y016194D02*
X043178Y016194D01*
X042817Y016046D02*
X031110Y016046D01*
X031110Y015897D02*
X042710Y015897D01*
X042297Y017382D02*
X052616Y017382D01*
X052764Y017531D02*
X042386Y017531D01*
X042410Y017679D02*
X052913Y017679D01*
X053061Y017828D02*
X042383Y017828D01*
X042365Y017976D02*
X053210Y017976D01*
X053358Y018125D02*
X042365Y018125D01*
X042365Y018273D02*
X052849Y018273D01*
X053175Y018675D02*
X041975Y018675D01*
X041975Y017675D01*
X042140Y019164D02*
X053010Y019164D01*
X053340Y019164D02*
X054398Y019164D01*
X054546Y019313D02*
X041875Y019313D01*
X041814Y019461D02*
X054695Y019461D01*
X054843Y019610D02*
X041669Y019610D01*
X041081Y019610D02*
X039709Y019610D01*
X039557Y019758D02*
X054992Y019758D01*
X055140Y019907D02*
X032610Y019907D01*
X032610Y019758D02*
X032793Y019758D01*
X033557Y019758D02*
X033793Y019758D01*
X034557Y019758D02*
X034793Y019758D01*
X035557Y019758D02*
X035793Y019758D01*
X036418Y020055D02*
X055289Y020055D01*
X055437Y020204D02*
X036633Y020204D01*
X036830Y020352D02*
X038251Y020352D01*
X038083Y020501D02*
X036910Y020501D01*
X036940Y020649D02*
X037935Y020649D01*
X037786Y020798D02*
X036932Y020798D01*
X036870Y020946D02*
X037638Y020946D01*
X038225Y021392D02*
X055875Y021392D01*
X056024Y021540D02*
X047682Y021540D01*
X047561Y021490D02*
X047813Y021594D01*
X048006Y021787D01*
X048110Y022039D01*
X048110Y022311D01*
X048006Y022563D01*
X047813Y022756D01*
X047561Y022860D01*
X047289Y022860D01*
X047037Y022756D01*
X046897Y022615D01*
X046851Y022661D01*
X046784Y022712D01*
X046711Y022755D01*
X046633Y022787D01*
X046551Y022809D01*
X046467Y022820D01*
X046430Y022820D01*
X046430Y022180D01*
X046420Y022180D01*
X046420Y022820D01*
X046383Y022820D01*
X046299Y022809D01*
X046217Y022787D01*
X046139Y022755D01*
X046066Y022712D01*
X045999Y022661D01*
X045953Y022615D01*
X045813Y022756D01*
X045561Y022860D01*
X045289Y022860D01*
X045037Y022756D01*
X044844Y022563D01*
X044740Y022311D01*
X044740Y022039D01*
X044844Y021787D01*
X045037Y021594D01*
X045289Y021490D01*
X045561Y021490D01*
X045813Y021594D01*
X045953Y021735D01*
X045999Y021689D01*
X046066Y021638D01*
X046139Y021595D01*
X046217Y021563D01*
X046299Y021541D01*
X046383Y021530D01*
X046420Y021530D01*
X046420Y022170D01*
X046430Y022170D01*
X046430Y021530D01*
X046467Y021530D01*
X046551Y021541D01*
X046633Y021563D01*
X046711Y021595D01*
X046784Y021638D01*
X046851Y021689D01*
X046897Y021735D01*
X047037Y021594D01*
X047289Y021490D01*
X047561Y021490D01*
X047168Y021540D02*
X046543Y021540D01*
X046430Y021540D02*
X046420Y021540D01*
X046307Y021540D02*
X045682Y021540D01*
X045907Y021689D02*
X045999Y021689D01*
X046420Y021689D02*
X046430Y021689D01*
X046420Y021837D02*
X046430Y021837D01*
X046420Y021986D02*
X046430Y021986D01*
X046420Y022134D02*
X046430Y022134D01*
X046425Y022175D02*
X046425Y021425D01*
X040175Y021425D01*
X038576Y021040D02*
X037882Y021734D01*
X037748Y021790D01*
X033660Y021790D01*
X033680Y021810D01*
X043498Y021810D01*
X043632Y021866D01*
X043734Y021968D01*
X045076Y023310D01*
X053248Y023310D01*
X053382Y023366D01*
X053484Y023468D01*
X055382Y025366D01*
X055484Y025468D01*
X055531Y025581D01*
X055563Y025594D01*
X055675Y025706D01*
X055787Y025594D01*
X056039Y025490D01*
X056311Y025490D01*
X056563Y025594D01*
X056675Y025706D01*
X056787Y025594D01*
X057039Y025490D01*
X057311Y025490D01*
X057563Y025594D01*
X057675Y025706D01*
X057787Y025594D01*
X057810Y025585D01*
X057810Y023326D01*
X055524Y021040D01*
X038576Y021040D01*
X038522Y021095D02*
X055578Y021095D01*
X055727Y021243D02*
X038373Y021243D01*
X038076Y021540D02*
X045168Y021540D01*
X044943Y021689D02*
X037928Y021689D01*
X036082Y021060D02*
X035988Y020967D01*
X035977Y020940D01*
X035823Y020940D01*
X035633Y020862D01*
X035632Y020860D01*
X032088Y020860D01*
X031929Y020794D01*
X031806Y020671D01*
X031740Y020512D01*
X031740Y019709D01*
X031596Y019565D01*
X025492Y019565D01*
X025563Y019594D01*
X025756Y019787D01*
X025860Y020039D01*
X025860Y020311D01*
X025756Y020563D01*
X025644Y020675D01*
X025756Y020787D01*
X025860Y021039D01*
X025860Y021311D01*
X025756Y021563D01*
X025563Y021756D01*
X025311Y021860D01*
X025039Y021860D01*
X024787Y021756D01*
X024594Y021563D01*
X024490Y021311D01*
X024490Y021039D01*
X024594Y020787D01*
X024706Y020675D01*
X024594Y020563D01*
X024490Y020311D01*
X024490Y020039D01*
X024594Y019787D01*
X024787Y019594D01*
X024858Y019565D01*
X024445Y019565D01*
X024490Y019673D01*
X024490Y019877D01*
X024412Y020067D01*
X024267Y020212D01*
X024077Y020290D01*
X023976Y020290D01*
X022617Y021649D01*
X022675Y021706D01*
X022787Y021594D01*
X023039Y021490D01*
X023311Y021490D01*
X023563Y021594D01*
X023756Y021787D01*
X023860Y022039D01*
X023860Y022311D01*
X023756Y022563D01*
X023608Y022710D01*
X023810Y022912D01*
X023810Y023438D01*
X023545Y023703D01*
X023770Y023929D01*
X023770Y024150D01*
X023200Y024150D01*
X023200Y024200D01*
X023770Y024200D01*
X023770Y024421D01*
X023581Y024610D01*
X028562Y024610D01*
X028633Y024538D01*
X028823Y024460D01*
X029027Y024460D01*
X029217Y024538D01*
X029362Y024683D01*
X029440Y024873D01*
X029440Y025077D01*
X029362Y025267D01*
X029217Y025412D01*
X029027Y025490D01*
X028823Y025490D01*
X028633Y025412D01*
X028562Y025340D01*
X026868Y025340D01*
X027012Y025483D01*
X027090Y025673D01*
X027090Y025877D01*
X027012Y026067D01*
X026867Y026212D01*
X026690Y026285D01*
X029837Y026285D01*
X029883Y026238D01*
X030073Y026160D01*
X030277Y026160D01*
X030467Y026238D01*
X030513Y026285D01*
X032753Y026285D01*
X032896Y026344D01*
X033006Y026454D01*
X033337Y026785D01*
X034858Y026785D01*
X034787Y026756D01*
X034594Y026563D01*
X034490Y026311D01*
X034490Y026039D01*
X034594Y025787D01*
X034787Y025594D01*
X035039Y025490D01*
X035311Y025490D01*
X035563Y025594D01*
X035675Y025706D01*
X035787Y025594D01*
X035993Y025509D01*
X033750Y023266D01*
X033750Y023413D01*
X033413Y023750D01*
X033190Y023750D01*
X033190Y023190D01*
X033160Y023190D01*
X033160Y023750D01*
X032937Y023750D01*
X032703Y023516D01*
X032430Y023790D01*
X031920Y023790D01*
X031675Y023545D01*
X031430Y023790D01*
X030920Y023790D01*
X030675Y023545D01*
X030430Y023790D01*
X029920Y023790D01*
X029647Y023516D01*
X029413Y023750D01*
X029190Y023750D01*
X029190Y023190D01*
X029160Y023190D01*
X029160Y023750D01*
X028937Y023750D01*
X028600Y023413D01*
X028600Y023190D01*
X029160Y023190D01*
X029160Y023160D01*
X028600Y023160D01*
X028600Y022937D01*
X028834Y022703D01*
X028560Y022430D01*
X028560Y021920D01*
X028810Y021670D01*
X028810Y021352D01*
X028866Y021218D01*
X028968Y021116D01*
X029102Y021060D01*
X036082Y021060D01*
X035980Y020946D02*
X025822Y020946D01*
X025860Y021095D02*
X029019Y021095D01*
X028855Y021243D02*
X025860Y021243D01*
X025827Y021392D02*
X028810Y021392D01*
X028810Y021540D02*
X025765Y021540D01*
X025630Y021689D02*
X028792Y021689D01*
X028643Y021837D02*
X025367Y021837D01*
X024983Y021837D02*
X023776Y021837D01*
X023838Y021986D02*
X028560Y021986D01*
X028560Y022134D02*
X023860Y022134D01*
X023860Y022283D02*
X028560Y022283D01*
X028561Y022431D02*
X023810Y022431D01*
X023739Y022580D02*
X028710Y022580D01*
X028809Y022728D02*
X023626Y022728D01*
X023775Y022877D02*
X028660Y022877D01*
X028600Y023025D02*
X023810Y023025D01*
X023810Y023174D02*
X029160Y023174D01*
X029175Y023175D02*
X024675Y023175D01*
X023675Y024175D01*
X023175Y024175D01*
X023150Y024200D02*
X023150Y024150D01*
X022580Y024150D01*
X022200Y024150D01*
X022200Y024200D01*
X023150Y024200D01*
X023681Y024510D02*
X028702Y024510D01*
X029148Y024510D02*
X034994Y024510D01*
X035142Y024659D02*
X029337Y024659D01*
X029413Y024807D02*
X035291Y024807D01*
X035439Y024956D02*
X029440Y024956D01*
X029429Y025104D02*
X035588Y025104D01*
X035736Y025253D02*
X029367Y025253D01*
X029227Y025401D02*
X035885Y025401D01*
X035895Y025550D02*
X035455Y025550D01*
X035667Y025698D02*
X035683Y025698D01*
X036175Y026175D02*
X036175Y027175D01*
X033175Y027175D01*
X032675Y026675D01*
X030175Y026675D01*
X025475Y026675D01*
X023675Y028475D01*
X020275Y028475D01*
X020275Y028975D01*
X020275Y028475D02*
X015675Y028475D01*
X013875Y028475D01*
X012675Y029675D01*
X012483Y030153D02*
X007205Y030153D01*
X007353Y030302D02*
X019497Y030302D01*
X019348Y030450D02*
X007502Y030450D01*
X007506Y030454D02*
X007565Y030597D01*
X007565Y031535D01*
X010253Y031535D01*
X010396Y031594D01*
X013337Y034535D01*
X015263Y034535D01*
X020308Y029490D01*
X020173Y029490D01*
X019983Y029412D01*
X019838Y029267D01*
X019760Y029077D01*
X019760Y028873D01*
X019763Y028865D01*
X016013Y028865D01*
X015967Y028912D01*
X015777Y028990D01*
X015573Y028990D01*
X015383Y028912D01*
X015337Y028865D01*
X014037Y028865D01*
X013190Y029712D01*
X013190Y029777D01*
X013112Y029967D01*
X012967Y030112D01*
X012777Y030190D01*
X012573Y030190D01*
X012383Y030112D01*
X012238Y029967D01*
X012160Y029777D01*
X012160Y029573D01*
X012238Y029383D01*
X012383Y029238D01*
X012573Y029160D01*
X012638Y029160D01*
X013544Y028254D01*
X013654Y028144D01*
X013797Y028085D01*
X015337Y028085D01*
X015383Y028038D01*
X015573Y027960D01*
X015777Y027960D01*
X015967Y028038D01*
X016013Y028085D01*
X023337Y028085D01*
X023383Y028038D01*
X023573Y027960D01*
X023638Y027960D01*
X025144Y026454D01*
X025254Y026344D01*
X025397Y026285D01*
X026460Y026285D01*
X026283Y026212D01*
X026212Y026140D01*
X023061Y026140D01*
X022690Y026462D01*
X022690Y026527D01*
X022612Y026717D01*
X022467Y026862D01*
X022277Y026940D01*
X022073Y026940D01*
X021883Y026862D01*
X021738Y026717D01*
X021660Y026527D01*
X021660Y026323D01*
X021738Y026133D01*
X021883Y025988D01*
X022073Y025910D01*
X022212Y025910D01*
X022408Y025740D01*
X020926Y025740D01*
X019290Y027376D01*
X019290Y027477D01*
X019212Y027667D01*
X019067Y027812D01*
X018877Y027890D01*
X018673Y027890D01*
X018483Y027812D01*
X018338Y027667D01*
X018260Y027477D01*
X018260Y027273D01*
X018338Y027083D01*
X018483Y026938D01*
X018673Y026860D01*
X018774Y026860D01*
X020294Y025340D01*
X018026Y025340D01*
X017890Y025476D01*
X017890Y025577D01*
X017812Y025767D01*
X017667Y025912D01*
X017477Y025990D01*
X017273Y025990D01*
X017083Y025912D01*
X016938Y025767D01*
X016860Y025577D01*
X016860Y025373D01*
X016938Y025183D01*
X017083Y025038D01*
X017273Y024960D01*
X017374Y024960D01*
X017566Y024768D01*
X017668Y024666D01*
X017802Y024610D01*
X018712Y024610D01*
X018667Y024565D01*
X016187Y024565D01*
X013790Y026962D01*
X013790Y027027D01*
X013712Y027217D01*
X013567Y027362D01*
X013377Y027440D01*
X013173Y027440D01*
X012983Y027362D01*
X012838Y027217D01*
X012760Y027027D01*
X012760Y026823D01*
X012838Y026633D01*
X012983Y026488D01*
X013173Y026410D01*
X013238Y026410D01*
X015083Y024565D01*
X009847Y024565D01*
X009704Y024506D01*
X009013Y023815D01*
X007837Y023815D01*
X005256Y026396D01*
X005146Y026506D01*
X005003Y026565D01*
X004754Y026565D01*
X004644Y026675D01*
X004756Y026787D01*
X004860Y027039D01*
X004860Y027311D01*
X004756Y027563D01*
X004644Y027675D01*
X004755Y027786D01*
X004896Y027844D01*
X005006Y027954D01*
X007396Y030344D01*
X007506Y030454D01*
X007396Y030344D02*
X007396Y030344D01*
X007565Y030599D02*
X019200Y030599D01*
X019051Y030747D02*
X007565Y030747D01*
X007565Y030896D02*
X018903Y030896D01*
X018754Y031044D02*
X007565Y031044D01*
X007565Y031193D02*
X018606Y031193D01*
X018457Y031341D02*
X007565Y031341D01*
X007565Y031490D02*
X018309Y031490D01*
X018160Y031638D02*
X010440Y031638D01*
X010588Y031787D02*
X018012Y031787D01*
X017863Y031935D02*
X010737Y031935D01*
X010885Y032084D02*
X017715Y032084D01*
X017566Y032232D02*
X011034Y032232D01*
X011182Y032381D02*
X017418Y032381D01*
X017269Y032529D02*
X011331Y032529D01*
X011479Y032678D02*
X017121Y032678D01*
X016972Y032826D02*
X011628Y032826D01*
X011776Y032975D02*
X016824Y032975D01*
X016675Y033123D02*
X011925Y033123D01*
X012073Y033272D02*
X016527Y033272D01*
X016378Y033420D02*
X012222Y033420D01*
X012370Y033569D02*
X016230Y033569D01*
X016081Y033717D02*
X012519Y033717D01*
X012667Y033866D02*
X015933Y033866D01*
X015784Y034014D02*
X012816Y034014D01*
X012964Y034163D02*
X015636Y034163D01*
X015487Y034311D02*
X013113Y034311D01*
X013261Y034460D02*
X015339Y034460D01*
X015425Y034925D02*
X021175Y029175D01*
X029675Y029175D01*
X039675Y029175D01*
X042175Y026675D01*
X042175Y026175D01*
X042806Y026441D02*
X043060Y026441D01*
X043060Y026589D02*
X042730Y026589D01*
X042756Y026563D02*
X042564Y026755D01*
X042506Y026896D01*
X042396Y027006D01*
X040092Y029310D01*
X043086Y029310D01*
X043060Y029248D01*
X043060Y024788D01*
X042988Y024717D01*
X042910Y024527D01*
X042910Y024456D01*
X042882Y024484D01*
X042748Y024540D01*
X040268Y024540D01*
X040362Y024633D01*
X040440Y024823D01*
X040440Y025027D01*
X040362Y025217D01*
X040217Y025362D01*
X040027Y025440D01*
X039823Y025440D01*
X039633Y025362D01*
X039562Y025290D01*
X037540Y025290D01*
X037540Y025585D01*
X037563Y025594D01*
X037675Y025706D01*
X037787Y025594D01*
X038039Y025490D01*
X038311Y025490D01*
X038563Y025594D01*
X038675Y025706D01*
X038787Y025594D01*
X039039Y025490D01*
X039311Y025490D01*
X039563Y025594D01*
X039703Y025735D01*
X039749Y025689D01*
X039816Y025638D01*
X039889Y025595D01*
X039967Y025563D01*
X040049Y025541D01*
X040133Y025530D01*
X040150Y025530D01*
X040150Y026150D01*
X040200Y026150D01*
X040200Y026200D01*
X040150Y026200D01*
X040150Y026820D01*
X040133Y026820D01*
X040049Y026809D01*
X039967Y026787D01*
X039889Y026755D01*
X039816Y026712D01*
X039749Y026661D01*
X039703Y026615D01*
X039563Y026756D01*
X039311Y026860D01*
X039039Y026860D01*
X038787Y026756D01*
X038675Y026644D01*
X038563Y026756D01*
X038311Y026860D01*
X038039Y026860D01*
X037787Y026756D01*
X037675Y026644D01*
X037563Y026756D01*
X037311Y026860D01*
X037039Y026860D01*
X036787Y026756D01*
X036675Y026644D01*
X036565Y026754D01*
X036565Y027253D01*
X036506Y027396D01*
X036396Y027506D01*
X036253Y027565D01*
X033097Y027565D01*
X032954Y027506D01*
X032513Y027065D01*
X030513Y027065D01*
X030467Y027112D01*
X030277Y027190D01*
X030073Y027190D01*
X029924Y027128D01*
X029989Y027162D01*
X030066Y027217D01*
X030133Y027284D01*
X030188Y027361D01*
X030231Y027445D01*
X030260Y027534D01*
X030275Y027628D01*
X030275Y027675D01*
X030275Y027722D01*
X030260Y027815D01*
X030231Y027905D01*
X030188Y027989D01*
X030133Y028066D01*
X030066Y028133D01*
X029989Y028188D01*
X029905Y028231D01*
X029815Y028260D01*
X029722Y028275D01*
X029675Y028275D01*
X029675Y027675D01*
X029675Y027675D01*
X030275Y027675D01*
X029675Y027675D01*
X029675Y027675D01*
X029675Y027075D01*
X029722Y027075D01*
X029815Y027090D01*
X029886Y027113D01*
X029883Y027112D01*
X029837Y027065D01*
X028187Y027065D01*
X028190Y027073D01*
X028190Y027277D01*
X028112Y027467D01*
X027967Y027612D01*
X027777Y027690D01*
X027573Y027690D01*
X027383Y027612D01*
X027312Y027540D01*
X026538Y027540D01*
X026467Y027612D01*
X026277Y027690D01*
X026073Y027690D01*
X025883Y027612D01*
X025738Y027467D01*
X025660Y027277D01*
X025660Y027073D01*
X025663Y027065D01*
X025637Y027065D01*
X024190Y028512D01*
X024190Y028577D01*
X024112Y028767D01*
X024093Y028785D01*
X029036Y028785D01*
X029083Y028672D01*
X029172Y028583D01*
X029287Y028535D01*
X030063Y028535D01*
X030178Y028583D01*
X030267Y028672D01*
X030314Y028785D01*
X039513Y028785D01*
X041665Y026634D01*
X041647Y026615D01*
X041601Y026661D01*
X041534Y026712D01*
X041461Y026755D01*
X041383Y026787D01*
X041301Y026809D01*
X041217Y026820D01*
X041200Y026820D01*
X041200Y026200D01*
X041150Y026200D01*
X041150Y026820D01*
X041133Y026820D01*
X041049Y026809D01*
X040967Y026787D01*
X040889Y026755D01*
X040816Y026712D01*
X040749Y026661D01*
X040689Y026601D01*
X040675Y026583D01*
X040661Y026601D01*
X040601Y026661D01*
X040534Y026712D01*
X040461Y026755D01*
X040383Y026787D01*
X040301Y026809D01*
X040217Y026820D01*
X040200Y026820D01*
X040200Y026200D01*
X041150Y026200D01*
X041150Y026150D01*
X041200Y026150D01*
X041200Y025530D01*
X041217Y025530D01*
X041301Y025541D01*
X041383Y025563D01*
X041461Y025595D01*
X041534Y025638D01*
X041601Y025689D01*
X041647Y025735D01*
X041787Y025594D01*
X042039Y025490D01*
X042311Y025490D01*
X042563Y025594D01*
X042756Y025787D01*
X042860Y026039D01*
X042860Y026311D01*
X042756Y026563D01*
X042581Y026738D02*
X043060Y026738D01*
X043060Y026886D02*
X042510Y026886D01*
X042367Y027035D02*
X043060Y027035D01*
X043060Y027183D02*
X042219Y027183D01*
X042070Y027332D02*
X043060Y027332D01*
X043060Y027480D02*
X041922Y027480D01*
X041773Y027629D02*
X043060Y027629D01*
X043060Y027777D02*
X041625Y027777D01*
X041476Y027926D02*
X043060Y027926D01*
X043060Y028074D02*
X041328Y028074D01*
X041179Y028223D02*
X043060Y028223D01*
X043060Y028371D02*
X041031Y028371D01*
X040882Y028520D02*
X043060Y028520D01*
X043060Y028668D02*
X040734Y028668D01*
X040585Y028817D02*
X043060Y028817D01*
X043060Y028965D02*
X040437Y028965D01*
X040288Y029114D02*
X043060Y029114D01*
X043066Y029262D02*
X040140Y029262D01*
X039630Y028668D02*
X030264Y028668D01*
X029922Y028223D02*
X040076Y028223D01*
X039927Y028371D02*
X024331Y028371D01*
X024190Y028520D02*
X039779Y028520D01*
X040224Y028074D02*
X030124Y028074D01*
X030221Y027926D02*
X040373Y027926D01*
X040521Y027777D02*
X030266Y027777D01*
X030275Y027629D02*
X040670Y027629D01*
X040818Y027480D02*
X036422Y027480D01*
X036532Y027332D02*
X040967Y027332D01*
X041115Y027183D02*
X036565Y027183D01*
X036565Y027035D02*
X041264Y027035D01*
X041412Y026886D02*
X036565Y026886D01*
X036581Y026738D02*
X036769Y026738D01*
X037581Y026738D02*
X037769Y026738D01*
X038581Y026738D02*
X038769Y026738D01*
X039581Y026738D02*
X039859Y026738D01*
X040150Y026738D02*
X040200Y026738D01*
X040175Y026675D02*
X040175Y026175D01*
X040200Y026150D02*
X040200Y025530D01*
X040217Y025530D01*
X040301Y025541D01*
X040383Y025563D01*
X040461Y025595D01*
X040534Y025638D01*
X040601Y025689D01*
X040661Y025749D01*
X040675Y025767D01*
X040689Y025749D01*
X040749Y025689D01*
X040816Y025638D01*
X040889Y025595D01*
X040967Y025563D01*
X041049Y025541D01*
X041133Y025530D01*
X041150Y025530D01*
X041150Y026150D01*
X040530Y026150D01*
X040200Y026150D01*
X040200Y026144D02*
X040150Y026144D01*
X040150Y026292D02*
X040200Y026292D01*
X040200Y026441D02*
X040150Y026441D01*
X040150Y026589D02*
X040200Y026589D01*
X040175Y026675D02*
X038275Y028575D01*
X037925Y028575D01*
X040491Y026738D02*
X040859Y026738D01*
X040680Y026589D02*
X040670Y026589D01*
X041150Y026589D02*
X041200Y026589D01*
X041200Y026441D02*
X041150Y026441D01*
X041150Y026292D02*
X041200Y026292D01*
X041200Y026144D02*
X041150Y026144D01*
X041150Y025995D02*
X041200Y025995D01*
X041200Y025847D02*
X041150Y025847D01*
X041150Y025698D02*
X041200Y025698D01*
X041200Y025550D02*
X041150Y025550D01*
X041017Y025550D02*
X040333Y025550D01*
X040200Y025550D02*
X040150Y025550D01*
X040017Y025550D02*
X039455Y025550D01*
X039667Y025698D02*
X039740Y025698D01*
X039728Y025401D02*
X037540Y025401D01*
X037540Y025550D02*
X037895Y025550D01*
X037683Y025698D02*
X037667Y025698D01*
X038455Y025550D02*
X038895Y025550D01*
X038683Y025698D02*
X038667Y025698D01*
X040150Y025698D02*
X040200Y025698D01*
X040200Y025847D02*
X040150Y025847D01*
X040150Y025995D02*
X040200Y025995D01*
X040610Y025698D02*
X040740Y025698D01*
X040326Y025253D02*
X043060Y025253D01*
X043060Y025401D02*
X040122Y025401D01*
X040408Y025104D02*
X043060Y025104D01*
X043060Y024956D02*
X040440Y024956D01*
X040434Y024807D02*
X043060Y024807D01*
X042964Y024659D02*
X040372Y024659D01*
X041333Y025550D02*
X041895Y025550D01*
X041683Y025698D02*
X041610Y025698D01*
X042455Y025550D02*
X043060Y025550D01*
X043060Y025698D02*
X042667Y025698D01*
X042780Y025847D02*
X043060Y025847D01*
X043060Y025995D02*
X042842Y025995D01*
X042860Y026144D02*
X043060Y026144D01*
X043060Y026292D02*
X042860Y026292D01*
X043790Y026757D02*
X043790Y028810D01*
X049812Y028810D01*
X049883Y028738D01*
X050073Y028660D01*
X050277Y028660D01*
X050467Y028738D01*
X050612Y028883D01*
X050690Y029073D01*
X050690Y029277D01*
X050677Y029310D01*
X050810Y029310D01*
X050810Y027852D01*
X050866Y027718D01*
X050968Y027616D01*
X051718Y026866D01*
X051852Y026810D01*
X052810Y026810D01*
X052810Y026765D01*
X052787Y026756D01*
X052594Y026563D01*
X052490Y026311D01*
X052490Y026039D01*
X052594Y025787D01*
X052787Y025594D01*
X053039Y025490D01*
X053311Y025490D01*
X053563Y025594D01*
X053675Y025706D01*
X053787Y025594D01*
X054039Y025490D01*
X054311Y025490D01*
X054563Y025594D01*
X054675Y025706D01*
X054683Y025699D01*
X053024Y024040D01*
X045177Y024040D01*
X045190Y024073D01*
X045190Y024277D01*
X045112Y024467D01*
X044967Y024612D01*
X044777Y024690D01*
X044573Y024690D01*
X044383Y024612D01*
X044238Y024467D01*
X044160Y024277D01*
X044160Y024176D01*
X044024Y024040D01*
X043768Y024040D01*
X043862Y024133D01*
X043940Y024323D01*
X043940Y024527D01*
X043862Y024717D01*
X043790Y024788D01*
X043790Y025593D01*
X044039Y025490D01*
X044311Y025490D01*
X044563Y025594D01*
X044675Y025706D01*
X044787Y025594D01*
X045039Y025490D01*
X045311Y025490D01*
X045563Y025594D01*
X045675Y025706D01*
X045787Y025594D01*
X046039Y025490D01*
X046311Y025490D01*
X046563Y025594D01*
X046675Y025706D01*
X046787Y025594D01*
X047039Y025490D01*
X047311Y025490D01*
X047563Y025594D01*
X047675Y025706D01*
X047787Y025594D01*
X048039Y025490D01*
X048311Y025490D01*
X048563Y025594D01*
X048675Y025706D01*
X048787Y025594D01*
X049039Y025490D01*
X049311Y025490D01*
X049563Y025594D01*
X049675Y025706D01*
X049787Y025594D01*
X050039Y025490D01*
X050311Y025490D01*
X050563Y025594D01*
X050675Y025706D01*
X050787Y025594D01*
X051039Y025490D01*
X051311Y025490D01*
X051563Y025594D01*
X051756Y025787D01*
X051860Y026039D01*
X051860Y026311D01*
X051756Y026563D01*
X051563Y026756D01*
X051311Y026860D01*
X051039Y026860D01*
X050787Y026756D01*
X050675Y026644D01*
X050563Y026756D01*
X050311Y026860D01*
X050039Y026860D01*
X049787Y026756D01*
X049675Y026644D01*
X049563Y026756D01*
X049311Y026860D01*
X049039Y026860D01*
X048787Y026756D01*
X048675Y026644D01*
X048563Y026756D01*
X048311Y026860D01*
X048039Y026860D01*
X047787Y026756D01*
X047675Y026644D01*
X047563Y026756D01*
X047311Y026860D01*
X047039Y026860D01*
X046787Y026756D01*
X046675Y026644D01*
X046563Y026756D01*
X046311Y026860D01*
X046039Y026860D01*
X045787Y026756D01*
X045675Y026644D01*
X045563Y026756D01*
X045311Y026860D01*
X045039Y026860D01*
X044787Y026756D01*
X044675Y026644D01*
X044563Y026756D01*
X044311Y026860D01*
X044039Y026860D01*
X043790Y026757D01*
X043790Y026886D02*
X051698Y026886D01*
X051581Y026738D02*
X052769Y026738D01*
X052620Y026589D02*
X051730Y026589D01*
X051806Y026441D02*
X052544Y026441D01*
X052490Y026292D02*
X051860Y026292D01*
X051860Y026144D02*
X052490Y026144D01*
X052508Y025995D02*
X051842Y025995D01*
X051780Y025847D02*
X052570Y025847D01*
X052683Y025698D02*
X051667Y025698D01*
X051455Y025550D02*
X052895Y025550D01*
X053455Y025550D02*
X053895Y025550D01*
X053683Y025698D02*
X053667Y025698D01*
X054236Y025253D02*
X043790Y025253D01*
X043790Y025401D02*
X054385Y025401D01*
X054455Y025550D02*
X054533Y025550D01*
X054667Y025698D02*
X054682Y025698D01*
X055269Y025253D02*
X057810Y025253D01*
X057810Y025401D02*
X055417Y025401D01*
X055518Y025550D02*
X055895Y025550D01*
X055683Y025698D02*
X055667Y025698D01*
X056455Y025550D02*
X056895Y025550D01*
X056683Y025698D02*
X056667Y025698D01*
X057455Y025550D02*
X057810Y025550D01*
X057683Y025698D02*
X057667Y025698D01*
X057810Y025104D02*
X055120Y025104D01*
X054972Y024956D02*
X057810Y024956D01*
X057810Y024807D02*
X054823Y024807D01*
X054675Y024659D02*
X057810Y024659D01*
X057810Y024510D02*
X054526Y024510D01*
X054378Y024362D02*
X057810Y024362D01*
X057810Y024213D02*
X054229Y024213D01*
X054081Y024065D02*
X057810Y024065D01*
X057810Y023916D02*
X053932Y023916D01*
X053784Y023768D02*
X057810Y023768D01*
X057810Y023619D02*
X053635Y023619D01*
X053487Y023471D02*
X057810Y023471D01*
X057806Y023322D02*
X053277Y023322D01*
X052925Y022925D02*
X052925Y021425D01*
X055175Y021425D01*
X056172Y021689D02*
X047907Y021689D01*
X048026Y021837D02*
X056321Y021837D01*
X056469Y021986D02*
X048088Y021986D01*
X048110Y022134D02*
X056618Y022134D01*
X056766Y022283D02*
X048110Y022283D01*
X048060Y022431D02*
X056915Y022431D01*
X057063Y022580D02*
X047989Y022580D01*
X047841Y022728D02*
X057212Y022728D01*
X057360Y022877D02*
X044643Y022877D01*
X044791Y023025D02*
X057509Y023025D01*
X057657Y023174D02*
X044940Y023174D01*
X045009Y022728D02*
X044494Y022728D01*
X044346Y022580D02*
X044861Y022580D01*
X044790Y022431D02*
X044197Y022431D01*
X044049Y022283D02*
X044740Y022283D01*
X044740Y022134D02*
X043900Y022134D01*
X043752Y021986D02*
X044762Y021986D01*
X044824Y021837D02*
X043563Y021837D01*
X041152Y023152D02*
X040583Y023152D01*
X040198Y023152D01*
X040198Y023198D01*
X041152Y023198D01*
X041152Y023152D01*
X041152Y023174D02*
X040198Y023174D01*
X042820Y024510D02*
X042910Y024510D01*
X043790Y024807D02*
X053791Y024807D01*
X053939Y024956D02*
X043790Y024956D01*
X043790Y025104D02*
X054088Y025104D01*
X053642Y024659D02*
X044853Y024659D01*
X045068Y024510D02*
X053494Y024510D01*
X053345Y024362D02*
X045155Y024362D01*
X045190Y024213D02*
X053197Y024213D01*
X053048Y024065D02*
X045187Y024065D01*
X044497Y024659D02*
X043886Y024659D01*
X043940Y024510D02*
X044282Y024510D01*
X044195Y024362D02*
X043940Y024362D01*
X043895Y024213D02*
X044160Y024213D01*
X044048Y024065D02*
X043793Y024065D01*
X043790Y025550D02*
X043895Y025550D01*
X044455Y025550D02*
X044895Y025550D01*
X044683Y025698D02*
X044667Y025698D01*
X045455Y025550D02*
X045895Y025550D01*
X045683Y025698D02*
X045667Y025698D01*
X046455Y025550D02*
X046895Y025550D01*
X046683Y025698D02*
X046667Y025698D01*
X047455Y025550D02*
X047895Y025550D01*
X047683Y025698D02*
X047667Y025698D01*
X048455Y025550D02*
X048895Y025550D01*
X048683Y025698D02*
X048667Y025698D01*
X049455Y025550D02*
X049895Y025550D01*
X049683Y025698D02*
X049667Y025698D01*
X050455Y025550D02*
X050895Y025550D01*
X050683Y025698D02*
X050667Y025698D01*
X050581Y026738D02*
X050769Y026738D01*
X051252Y027332D02*
X043790Y027332D01*
X043790Y027480D02*
X051104Y027480D01*
X050955Y027629D02*
X043790Y027629D01*
X043790Y027777D02*
X050841Y027777D01*
X050810Y027926D02*
X043790Y027926D01*
X043790Y028074D02*
X050810Y028074D01*
X050810Y028223D02*
X043790Y028223D01*
X043790Y028371D02*
X050810Y028371D01*
X050810Y028520D02*
X043790Y028520D01*
X043790Y028668D02*
X050053Y028668D01*
X050297Y028668D02*
X050810Y028668D01*
X050810Y028817D02*
X050545Y028817D01*
X050645Y028965D02*
X050810Y028965D01*
X050810Y029114D02*
X050690Y029114D01*
X050690Y029262D02*
X050810Y029262D01*
X051401Y027183D02*
X043790Y027183D01*
X043790Y027035D02*
X051549Y027035D01*
X049769Y026738D02*
X049581Y026738D01*
X048769Y026738D02*
X048581Y026738D01*
X047769Y026738D02*
X047581Y026738D01*
X046769Y026738D02*
X046581Y026738D01*
X045769Y026738D02*
X045581Y026738D01*
X044769Y026738D02*
X044581Y026738D01*
X041561Y026738D02*
X041491Y026738D01*
X041200Y026738D02*
X041150Y026738D01*
X045841Y022728D02*
X046093Y022728D01*
X046420Y022728D02*
X046430Y022728D01*
X046420Y022580D02*
X046430Y022580D01*
X046420Y022431D02*
X046430Y022431D01*
X046420Y022283D02*
X046430Y022283D01*
X046757Y022728D02*
X047009Y022728D01*
X046943Y021689D02*
X046851Y021689D01*
X046425Y021425D02*
X052925Y021425D01*
X053563Y019016D02*
X054249Y019016D01*
X054101Y018867D02*
X053653Y018867D01*
X053690Y018719D02*
X053952Y018719D01*
X053804Y018570D02*
X053689Y018570D01*
X053655Y018422D02*
X053627Y018422D01*
X053507Y018273D02*
X053501Y018273D01*
X054094Y017828D02*
X061860Y017828D01*
X061860Y017976D02*
X054242Y017976D01*
X054391Y018125D02*
X061860Y018125D01*
X061860Y018273D02*
X054539Y018273D01*
X054688Y018422D02*
X061860Y018422D01*
X061860Y018570D02*
X054836Y018570D01*
X054985Y018719D02*
X061860Y018719D01*
X061860Y018867D02*
X055133Y018867D01*
X055282Y019016D02*
X061860Y019016D01*
X061860Y019164D02*
X058826Y019164D01*
X058790Y019128D02*
X058972Y019310D01*
X059070Y019547D01*
X059070Y019803D01*
X058972Y020040D01*
X058790Y020222D01*
X058553Y020320D01*
X058297Y020320D01*
X058060Y020222D01*
X057925Y020087D01*
X057790Y020222D01*
X057553Y020320D01*
X057297Y020320D01*
X057060Y020222D01*
X056878Y020040D01*
X056780Y019803D01*
X056780Y019547D01*
X056878Y019310D01*
X057060Y019128D01*
X057297Y019030D01*
X057553Y019030D01*
X057790Y019128D01*
X057925Y019263D01*
X058060Y019128D01*
X058297Y019030D01*
X058553Y019030D01*
X058790Y019128D01*
X058973Y019313D02*
X061860Y019313D01*
X061860Y019461D02*
X059035Y019461D01*
X059070Y019610D02*
X061860Y019610D01*
X061860Y019758D02*
X059070Y019758D01*
X059027Y019907D02*
X061860Y019907D01*
X061860Y020055D02*
X058957Y020055D01*
X058809Y020204D02*
X061860Y020204D01*
X061860Y020352D02*
X056618Y020352D01*
X056470Y020204D02*
X057041Y020204D01*
X056893Y020055D02*
X056321Y020055D01*
X056173Y019907D02*
X056823Y019907D01*
X056780Y019758D02*
X056024Y019758D01*
X055876Y019610D02*
X056780Y019610D01*
X056815Y019461D02*
X055727Y019461D01*
X055579Y019313D02*
X056877Y019313D01*
X057024Y019164D02*
X055430Y019164D01*
X056316Y017712D02*
X056249Y017661D01*
X056189Y017601D01*
X056138Y017534D01*
X056095Y017461D01*
X056063Y017383D01*
X056041Y017301D01*
X056030Y017217D01*
X056030Y017200D01*
X056650Y017200D01*
X056650Y017820D01*
X056633Y017820D01*
X056549Y017809D01*
X056467Y017787D01*
X056389Y017755D01*
X056316Y017712D01*
X056272Y017679D02*
X053945Y017679D01*
X053797Y017531D02*
X056135Y017531D01*
X056063Y017382D02*
X053648Y017382D01*
X053500Y017234D02*
X056032Y017234D01*
X056030Y017150D02*
X056030Y017133D01*
X056041Y017049D01*
X056063Y016967D01*
X056095Y016889D01*
X056138Y016816D01*
X056189Y016749D01*
X056249Y016689D01*
X056316Y016638D01*
X056389Y016595D01*
X056467Y016563D01*
X056549Y016541D01*
X056633Y016530D01*
X056650Y016530D01*
X056650Y017150D01*
X056700Y017150D01*
X056700Y017200D01*
X057320Y017200D01*
X057320Y017217D01*
X057309Y017301D01*
X057287Y017383D01*
X057255Y017461D01*
X057212Y017534D01*
X057161Y017601D01*
X057101Y017661D01*
X057034Y017712D01*
X056961Y017755D01*
X056883Y017787D01*
X056801Y017809D01*
X056717Y017820D01*
X056700Y017820D01*
X056700Y017200D01*
X056650Y017200D01*
X056650Y017150D01*
X056030Y017150D01*
X056036Y017085D02*
X053351Y017085D01*
X053203Y016937D02*
X056076Y016937D01*
X056159Y016788D02*
X053054Y016788D01*
X052906Y016640D02*
X056313Y016640D01*
X056650Y016640D02*
X056700Y016640D01*
X056700Y016530D02*
X056700Y017150D01*
X057320Y017150D01*
X057320Y017133D01*
X057309Y017049D01*
X057287Y016967D01*
X057255Y016889D01*
X057212Y016816D01*
X057161Y016749D01*
X057101Y016689D01*
X057034Y016638D01*
X056961Y016595D01*
X056883Y016563D01*
X056801Y016541D01*
X056717Y016530D01*
X056700Y016530D01*
X056700Y016788D02*
X056650Y016788D01*
X056650Y016937D02*
X056700Y016937D01*
X056700Y017085D02*
X056650Y017085D01*
X056650Y017234D02*
X056700Y017234D01*
X056700Y017382D02*
X056650Y017382D01*
X056650Y017531D02*
X056700Y017531D01*
X056700Y017679D02*
X056650Y017679D01*
X057078Y017679D02*
X058772Y017679D01*
X058749Y017661D02*
X058689Y017601D01*
X058638Y017534D01*
X058595Y017461D01*
X058563Y017383D01*
X058541Y017301D01*
X058530Y017217D01*
X058530Y017200D01*
X059150Y017200D01*
X059150Y017820D01*
X059133Y017820D01*
X059049Y017809D01*
X058967Y017787D01*
X058889Y017755D01*
X058816Y017712D01*
X058749Y017661D01*
X058635Y017531D02*
X057215Y017531D01*
X057287Y017382D02*
X058563Y017382D01*
X058532Y017234D02*
X057318Y017234D01*
X057314Y017085D02*
X058536Y017085D01*
X058541Y017049D02*
X058563Y016967D01*
X058595Y016889D01*
X058638Y016816D01*
X058689Y016749D01*
X058749Y016689D01*
X058816Y016638D01*
X058889Y016595D01*
X058967Y016563D01*
X059049Y016541D01*
X059133Y016530D01*
X059150Y016530D01*
X059150Y017150D01*
X059200Y017150D01*
X059200Y017200D01*
X059820Y017200D01*
X059820Y017217D01*
X059809Y017301D01*
X059787Y017383D01*
X059755Y017461D01*
X059712Y017534D01*
X059661Y017601D01*
X059601Y017661D01*
X059534Y017712D01*
X059461Y017755D01*
X059383Y017787D01*
X059301Y017809D01*
X059217Y017820D01*
X059200Y017820D01*
X059200Y017200D01*
X059150Y017200D01*
X059150Y017150D01*
X058530Y017150D01*
X058530Y017133D01*
X058541Y017049D01*
X058576Y016937D02*
X057274Y016937D01*
X057191Y016788D02*
X058659Y016788D01*
X058813Y016640D02*
X057037Y016640D01*
X059150Y016640D02*
X059200Y016640D01*
X059200Y016530D02*
X059200Y017150D01*
X059820Y017150D01*
X059820Y017133D01*
X059809Y017049D01*
X059787Y016967D01*
X059755Y016889D01*
X059712Y016816D01*
X059661Y016749D01*
X059601Y016689D01*
X059534Y016638D01*
X059461Y016595D01*
X059383Y016563D01*
X059301Y016541D01*
X059217Y016530D01*
X059200Y016530D01*
X059200Y016788D02*
X059150Y016788D01*
X059150Y016937D02*
X059200Y016937D01*
X059200Y017085D02*
X059150Y017085D01*
X059150Y017234D02*
X059200Y017234D01*
X059200Y017382D02*
X059150Y017382D01*
X059150Y017531D02*
X059200Y017531D01*
X059200Y017679D02*
X059150Y017679D01*
X059578Y017679D02*
X061860Y017679D01*
X061860Y017531D02*
X059715Y017531D01*
X059787Y017382D02*
X061860Y017382D01*
X061860Y017234D02*
X059818Y017234D01*
X059814Y017085D02*
X061860Y017085D01*
X061860Y016937D02*
X059774Y016937D01*
X059691Y016788D02*
X061860Y016788D01*
X061860Y016640D02*
X059537Y016640D01*
X058024Y019164D02*
X057826Y019164D01*
X057809Y020204D02*
X058041Y020204D01*
X057212Y020946D02*
X061860Y020946D01*
X061860Y020798D02*
X057064Y020798D01*
X056915Y020649D02*
X061860Y020649D01*
X061860Y020501D02*
X056767Y020501D01*
X057361Y021095D02*
X061860Y021095D01*
X061860Y021243D02*
X057509Y021243D01*
X057658Y021392D02*
X061860Y021392D01*
X061860Y021540D02*
X057806Y021540D01*
X057955Y021689D02*
X061860Y021689D01*
X061860Y021837D02*
X058103Y021837D01*
X058252Y021986D02*
X061860Y021986D01*
X061860Y022134D02*
X058400Y022134D01*
X058549Y022283D02*
X061860Y022283D01*
X061860Y022431D02*
X058697Y022431D01*
X058846Y022580D02*
X061860Y022580D01*
X061860Y022728D02*
X058994Y022728D01*
X059143Y022877D02*
X061860Y022877D01*
X061860Y023025D02*
X059291Y023025D01*
X059440Y023174D02*
X061860Y023174D01*
X061860Y023322D02*
X059588Y023322D01*
X059737Y023471D02*
X061860Y023471D01*
X061860Y023619D02*
X059885Y023619D01*
X060034Y023768D02*
X061860Y023768D01*
X061860Y023916D02*
X060182Y023916D01*
X060331Y024065D02*
X061860Y024065D01*
X061860Y024213D02*
X060479Y024213D01*
X060628Y024362D02*
X061860Y024362D01*
X061860Y024510D02*
X060776Y024510D01*
X060925Y024659D02*
X061860Y024659D01*
X061860Y024807D02*
X061073Y024807D01*
X061222Y024956D02*
X061860Y024956D01*
X061860Y025104D02*
X061370Y025104D01*
X061499Y025253D02*
X061860Y025253D01*
X061860Y025401D02*
X061540Y025401D01*
X061541Y025550D02*
X061860Y025550D01*
X061860Y025698D02*
X061542Y025698D01*
X061543Y025847D02*
X061860Y025847D01*
X061860Y025995D02*
X061544Y025995D01*
X061546Y026144D02*
X061860Y026144D01*
X061860Y026292D02*
X061547Y026292D01*
X061548Y026441D02*
X061860Y026441D01*
X061860Y026589D02*
X061549Y026589D01*
X061550Y026738D02*
X061860Y026738D01*
X061860Y026886D02*
X061551Y026886D01*
X061552Y027035D02*
X061860Y027035D01*
X061860Y027183D02*
X061554Y027183D01*
X061555Y027332D02*
X061860Y027332D01*
X061860Y027480D02*
X061556Y027480D01*
X061557Y027629D02*
X061860Y027629D01*
X061860Y027777D02*
X061558Y027777D01*
X061559Y027926D02*
X061860Y027926D01*
X061860Y028074D02*
X061560Y028074D01*
X061562Y028223D02*
X061860Y028223D01*
X061860Y028371D02*
X061563Y028371D01*
X061564Y028520D02*
X061860Y028520D01*
X061860Y028668D02*
X061565Y028668D01*
X061566Y028817D02*
X061860Y028817D01*
X061860Y028965D02*
X061567Y028965D01*
X061568Y029114D02*
X061860Y029114D01*
X061860Y029262D02*
X061570Y029262D01*
X061571Y029411D02*
X061860Y029411D01*
X061860Y029559D02*
X061572Y029559D01*
X061573Y029708D02*
X061860Y029708D01*
X061860Y029856D02*
X061574Y029856D01*
X061575Y030005D02*
X061860Y030005D01*
X061860Y030153D02*
X061576Y030153D01*
X061578Y030302D02*
X061860Y030302D01*
X061860Y030450D02*
X061579Y030450D01*
X061580Y030599D02*
X061860Y030599D01*
X061860Y030747D02*
X061581Y030747D01*
X061582Y030896D02*
X061860Y030896D01*
X061860Y031044D02*
X061583Y031044D01*
X061584Y031193D02*
X061860Y031193D01*
X061860Y031341D02*
X061586Y031341D01*
X061587Y031490D02*
X061860Y031490D01*
X061860Y031638D02*
X061588Y031638D01*
X061589Y031787D02*
X061860Y031787D01*
X061860Y031935D02*
X061590Y031935D01*
X061591Y032084D02*
X061860Y032084D01*
X061860Y032232D02*
X061592Y032232D01*
X061594Y032381D02*
X061860Y032381D01*
X061860Y032529D02*
X061595Y032529D01*
X061596Y032678D02*
X061860Y032678D01*
X061860Y032826D02*
X061597Y032826D01*
X061598Y032975D02*
X061860Y032975D01*
X061860Y033123D02*
X061599Y033123D01*
X061600Y033272D02*
X061860Y033272D01*
X061860Y033420D02*
X061602Y033420D01*
X061603Y033569D02*
X061860Y033569D01*
X061860Y033717D02*
X061604Y033717D01*
X061605Y033866D02*
X061860Y033866D01*
X061860Y034014D02*
X061606Y034014D01*
X061607Y034163D02*
X061860Y034163D01*
X061860Y034311D02*
X061608Y034311D01*
X061610Y034460D02*
X061860Y034460D01*
X061860Y034608D02*
X061611Y034608D01*
X061612Y034757D02*
X061860Y034757D01*
X061860Y034905D02*
X061613Y034905D01*
X061614Y035054D02*
X061860Y035054D01*
X061860Y035202D02*
X061615Y035202D01*
X061616Y035351D02*
X061860Y035351D01*
X061860Y035499D02*
X061618Y035499D01*
X061619Y035648D02*
X061860Y035648D01*
X061860Y035796D02*
X061620Y035796D01*
X061621Y035945D02*
X061860Y035945D01*
X061860Y036093D02*
X061622Y036093D01*
X061623Y036242D02*
X061860Y036242D01*
X061860Y036390D02*
X061624Y036390D01*
X061625Y036539D02*
X061860Y036539D01*
X061860Y036687D02*
X061627Y036687D01*
X061628Y036836D02*
X061860Y036836D01*
X061860Y036984D02*
X061629Y036984D01*
X061630Y037133D02*
X061860Y037133D01*
X061860Y037281D02*
X061631Y037281D01*
X061632Y037430D02*
X061860Y037430D01*
X061860Y037578D02*
X061633Y037578D01*
X061635Y037727D02*
X061860Y037727D01*
X061860Y037875D02*
X061636Y037875D01*
X061637Y038024D02*
X061860Y038024D01*
X061860Y038172D02*
X061638Y038172D01*
X061639Y038321D02*
X061860Y038321D01*
X061860Y038469D02*
X061640Y038469D01*
X061591Y038618D02*
X061860Y038618D01*
X061860Y038766D02*
X061406Y038766D01*
X061860Y038915D02*
X048002Y038915D01*
X047853Y039063D02*
X061860Y039063D01*
X061860Y039212D02*
X047705Y039212D01*
X047556Y039360D02*
X061860Y039360D01*
X061860Y039509D02*
X050356Y039509D01*
X050626Y039657D02*
X061860Y039657D01*
X061860Y039806D02*
X053034Y039806D01*
X052967Y039738D02*
X053112Y039883D01*
X053190Y040073D01*
X053190Y040277D01*
X053112Y040467D01*
X052967Y040612D01*
X052777Y040690D01*
X052712Y040690D01*
X051506Y041896D01*
X051396Y042006D01*
X051253Y042065D01*
X050814Y042065D01*
X050767Y042178D01*
X050678Y042267D01*
X050634Y042286D01*
X050688Y042361D01*
X050731Y042445D01*
X050760Y042534D01*
X050775Y042628D01*
X050775Y042675D01*
X050775Y042722D01*
X050760Y042815D01*
X050731Y042905D01*
X050688Y042989D01*
X050633Y043066D01*
X050566Y043133D01*
X050489Y043188D01*
X050405Y043231D01*
X050315Y043260D01*
X050222Y043275D01*
X050175Y043275D01*
X050175Y042675D01*
X060675Y042675D01*
X061175Y043175D01*
X061315Y043455D01*
X061290Y043430D02*
X061290Y042810D01*
X061273Y042810D01*
X061189Y042821D01*
X061107Y042843D01*
X061029Y042875D01*
X060956Y042918D01*
X060889Y042969D01*
X060829Y043029D01*
X060778Y043096D01*
X060735Y043169D01*
X060703Y043247D01*
X060681Y043329D01*
X060670Y043413D01*
X060670Y043430D01*
X061290Y043430D01*
X061290Y043370D02*
X061340Y043370D01*
X061340Y043518D02*
X061290Y043518D01*
X061290Y043667D02*
X061340Y043667D01*
X061340Y043815D02*
X061290Y043815D01*
X061290Y043964D02*
X061340Y043964D01*
X061090Y044112D02*
X061860Y044112D01*
X061860Y043964D02*
X061712Y043964D01*
X061852Y043815D02*
X061860Y043815D01*
X061860Y044261D02*
X061164Y044261D01*
X061190Y044409D02*
X061860Y044409D01*
X061860Y044558D02*
X061178Y044558D01*
X061116Y044706D02*
X061860Y044706D01*
X061860Y044855D02*
X060974Y044855D01*
X060613Y045003D02*
X061860Y045003D01*
X061860Y045152D02*
X060465Y045152D01*
X060316Y045300D02*
X061860Y045300D01*
X061860Y045449D02*
X060168Y045449D01*
X060019Y045597D02*
X061860Y045597D01*
X061860Y045746D02*
X059871Y045746D01*
X059722Y045894D02*
X061860Y045894D01*
X061860Y046043D02*
X059574Y046043D01*
X059425Y046191D02*
X061860Y046191D01*
X061860Y046340D02*
X059277Y046340D01*
X059128Y046488D02*
X061860Y046488D01*
X061860Y046637D02*
X058980Y046637D01*
X058831Y046785D02*
X061860Y046785D01*
X061860Y046934D02*
X058683Y046934D01*
X058734Y046882D02*
X058734Y046882D01*
X056917Y046934D02*
X047313Y046934D01*
X047353Y047082D02*
X061860Y047082D01*
X061860Y047231D02*
X047368Y047231D01*
X047368Y047379D02*
X061860Y047379D01*
X061860Y047528D02*
X047368Y047528D01*
X047343Y047676D02*
X061860Y047676D01*
X061860Y047825D02*
X047303Y047825D01*
X047263Y047973D02*
X061860Y047973D01*
X061860Y048122D02*
X047190Y048122D01*
X047104Y048270D02*
X061860Y048270D01*
X061860Y048419D02*
X047011Y048419D01*
X046862Y048567D02*
X061860Y048567D01*
X061860Y048716D02*
X046713Y048716D01*
X046456Y048864D02*
X061860Y048864D01*
X061860Y049013D02*
X046049Y049013D01*
X045301Y049013D02*
X026364Y049013D01*
X026213Y049053D02*
X025767Y049053D01*
X025337Y048938D01*
X024950Y048715D01*
X024635Y048400D01*
X024412Y048013D01*
X024297Y047583D01*
X024297Y047137D01*
X024412Y046707D01*
X024635Y046321D01*
X024950Y046005D01*
X025337Y045782D01*
X025767Y045667D01*
X026213Y045667D01*
X026643Y045782D01*
X027029Y046005D01*
X027345Y046321D01*
X027568Y046707D01*
X027683Y047137D01*
X027683Y047583D01*
X027568Y048013D01*
X027345Y048400D01*
X027029Y048715D01*
X026643Y048938D01*
X026213Y049053D01*
X026771Y048864D02*
X044894Y048864D01*
X044637Y048716D02*
X027028Y048716D01*
X027177Y048567D02*
X044488Y048567D01*
X044339Y048419D02*
X027326Y048419D01*
X027419Y048270D02*
X044246Y048270D01*
X044160Y048122D02*
X027505Y048122D01*
X027578Y047973D02*
X044087Y047973D01*
X044047Y047825D02*
X027618Y047825D01*
X027658Y047676D02*
X044007Y047676D01*
X043982Y047528D02*
X027683Y047528D01*
X027683Y047379D02*
X043982Y047379D01*
X043982Y047231D02*
X027683Y047231D01*
X027668Y047082D02*
X043997Y047082D01*
X044037Y046934D02*
X040833Y046934D01*
X040924Y046785D02*
X044076Y046785D01*
X044138Y046637D02*
X040940Y046637D01*
X040940Y046488D02*
X044224Y046488D01*
X044309Y046340D02*
X040940Y046340D01*
X040940Y046191D02*
X044450Y046191D01*
X044598Y046043D02*
X040940Y046043D01*
X040940Y045894D02*
X044828Y045894D01*
X044777Y045746D02*
X044573Y045746D01*
X043777Y045746D02*
X043573Y045746D01*
X042777Y045746D02*
X042573Y045746D01*
X041777Y045746D02*
X040973Y045746D01*
X041122Y045597D02*
X041628Y045597D01*
X041547Y045449D02*
X041203Y045449D01*
X041260Y045300D02*
X041490Y045300D01*
X041490Y045152D02*
X041260Y045152D01*
X041245Y045003D02*
X041505Y045003D01*
X041566Y044855D02*
X041184Y044855D01*
X043652Y043667D02*
X043667Y043667D01*
X043774Y043518D02*
X054427Y043518D01*
X054410Y043370D02*
X043836Y043370D01*
X043860Y043221D02*
X049925Y043221D01*
X049945Y043231D02*
X049861Y043188D01*
X049784Y043133D01*
X049717Y043066D01*
X049662Y042989D01*
X049619Y042905D01*
X049590Y042815D01*
X049575Y042722D01*
X049575Y042675D01*
X050175Y042675D01*
X049175Y042675D01*
X047675Y041175D01*
X036425Y041175D01*
X035175Y039925D01*
X035170Y039509D02*
X035180Y039509D01*
X035228Y039509D02*
X035957Y039509D01*
X035739Y039360D02*
X035555Y039360D01*
X035180Y039360D02*
X035170Y039360D01*
X035170Y039212D02*
X035180Y039212D01*
X035170Y039063D02*
X035180Y039063D01*
X035170Y038915D02*
X035180Y038915D01*
X035170Y038766D02*
X035180Y038766D01*
X035175Y038675D02*
X035175Y038175D01*
X035925Y037425D01*
X036175Y037425D01*
X036293Y037800D02*
X036512Y037891D01*
X036675Y038054D01*
X036838Y037891D01*
X037057Y037800D01*
X037293Y037800D01*
X037512Y037891D01*
X037675Y038054D01*
X037838Y037891D01*
X038057Y037800D01*
X038284Y037800D01*
X037774Y037290D01*
X032576Y037290D01*
X032066Y037800D01*
X032293Y037800D01*
X032512Y037891D01*
X032675Y038054D01*
X032838Y037891D01*
X033057Y037800D01*
X033293Y037800D01*
X033512Y037891D01*
X033675Y038054D01*
X033838Y037891D01*
X034057Y037800D01*
X034293Y037800D01*
X034512Y037891D01*
X034679Y038058D01*
X034699Y038106D01*
X034700Y038104D01*
X034752Y038033D01*
X034813Y037972D01*
X034884Y037920D01*
X034962Y037881D01*
X035045Y037854D01*
X035131Y037840D01*
X035170Y037840D01*
X035170Y038670D01*
X035180Y038670D01*
X035180Y037840D01*
X035219Y037840D01*
X035305Y037854D01*
X035388Y037881D01*
X035466Y037920D01*
X035537Y037972D01*
X035598Y038033D01*
X035650Y038104D01*
X035651Y038106D01*
X035671Y038058D01*
X035838Y037891D01*
X036057Y037800D01*
X036293Y037800D01*
X036475Y037875D02*
X036875Y037875D01*
X036705Y038024D02*
X036645Y038024D01*
X035875Y037875D02*
X035371Y037875D01*
X035180Y037875D02*
X035170Y037875D01*
X035170Y038024D02*
X035180Y038024D01*
X035170Y038172D02*
X035180Y038172D01*
X035170Y038321D02*
X035180Y038321D01*
X035170Y038469D02*
X035180Y038469D01*
X035170Y038618D02*
X035180Y038618D01*
X035588Y038024D02*
X035705Y038024D01*
X034979Y037875D02*
X034475Y037875D01*
X034645Y038024D02*
X034762Y038024D01*
X033875Y037875D02*
X033475Y037875D01*
X033645Y038024D02*
X033705Y038024D01*
X032875Y037875D02*
X032475Y037875D01*
X032645Y038024D02*
X032705Y038024D01*
X032288Y037578D02*
X038062Y037578D01*
X038210Y037727D02*
X032140Y037727D01*
X032437Y037430D02*
X037913Y037430D01*
X037875Y037875D02*
X037475Y037875D01*
X037645Y038024D02*
X037705Y038024D01*
X037739Y039360D02*
X037611Y039360D01*
X037687Y039509D02*
X037393Y039509D01*
X037660Y039657D02*
X032459Y039657D01*
X032535Y039509D02*
X032957Y039509D01*
X032739Y039360D02*
X032611Y039360D01*
X032311Y039806D02*
X037672Y039806D01*
X037733Y039954D02*
X032162Y039954D01*
X032014Y040103D02*
X037874Y040103D01*
X038200Y040251D02*
X034838Y040251D01*
X034811Y040240D02*
X035063Y040344D01*
X035256Y040537D01*
X035360Y040789D01*
X035360Y041061D01*
X035256Y041313D01*
X035063Y041506D01*
X034811Y041610D01*
X034539Y041610D01*
X034287Y041506D01*
X034147Y041365D01*
X034101Y041411D01*
X034034Y041462D01*
X033961Y041505D01*
X033883Y041537D01*
X033801Y041559D01*
X033717Y041570D01*
X033680Y041570D01*
X033680Y040930D01*
X033670Y040930D01*
X033670Y041570D01*
X033633Y041570D01*
X033549Y041559D01*
X033467Y041537D01*
X033389Y041505D01*
X033316Y041462D01*
X033249Y041411D01*
X033203Y041365D01*
X033063Y041506D01*
X032811Y041610D01*
X032539Y041610D01*
X032287Y041506D01*
X032094Y041313D01*
X031990Y041061D01*
X031990Y040789D01*
X032094Y040537D01*
X032287Y040344D01*
X032539Y040240D01*
X032811Y040240D01*
X033063Y040344D01*
X033203Y040485D01*
X033249Y040439D01*
X033316Y040388D01*
X033389Y040345D01*
X033467Y040313D01*
X033549Y040291D01*
X033633Y040280D01*
X033670Y040280D01*
X033670Y040920D01*
X033680Y040920D01*
X033680Y040280D01*
X033717Y040280D01*
X033801Y040291D01*
X033883Y040313D01*
X033961Y040345D01*
X034034Y040388D01*
X034101Y040439D01*
X034147Y040485D01*
X034287Y040344D01*
X034539Y040240D01*
X034811Y040240D01*
X034512Y040251D02*
X032838Y040251D01*
X033118Y040400D02*
X033300Y040400D01*
X033670Y040400D02*
X033680Y040400D01*
X033670Y040548D02*
X033680Y040548D01*
X033670Y040697D02*
X033680Y040697D01*
X033670Y040845D02*
X033680Y040845D01*
X033670Y040994D02*
X033680Y040994D01*
X033670Y041142D02*
X033680Y041142D01*
X033670Y041291D02*
X033680Y041291D01*
X033670Y041439D02*
X033680Y041439D01*
X034065Y041439D02*
X034220Y041439D01*
X034485Y041588D02*
X032865Y041588D01*
X033130Y041439D02*
X033285Y041439D01*
X032485Y041588D02*
X031790Y041588D01*
X031790Y041736D02*
X047139Y041736D01*
X047711Y041736D02*
X049535Y041736D01*
X049535Y041588D02*
X034865Y041588D01*
X035130Y041439D02*
X049535Y041439D01*
X049535Y041291D02*
X035265Y041291D01*
X035327Y041142D02*
X049612Y041142D01*
X049583Y041172D02*
X049672Y041083D01*
X049787Y041035D01*
X050563Y041035D01*
X050678Y041083D01*
X050767Y041172D01*
X050814Y041285D01*
X051013Y041285D01*
X052160Y040138D01*
X052160Y040073D01*
X052238Y039883D01*
X052383Y039738D01*
X052573Y039660D01*
X052777Y039660D01*
X052967Y039738D01*
X053141Y039954D02*
X061860Y039954D01*
X061860Y040103D02*
X053190Y040103D01*
X053190Y040251D02*
X059300Y040251D01*
X059399Y040210D02*
X059147Y040314D01*
X058954Y040507D01*
X058850Y040759D01*
X058850Y041031D01*
X058954Y041283D01*
X059147Y041476D01*
X059399Y041580D01*
X059671Y041580D01*
X059923Y041476D01*
X060116Y041283D01*
X060220Y041031D01*
X060220Y040759D01*
X060116Y040507D01*
X059923Y040314D01*
X059671Y040210D01*
X059399Y040210D01*
X059770Y040251D02*
X061265Y040251D01*
X061273Y040250D02*
X061290Y040250D01*
X061290Y040870D01*
X060670Y040870D01*
X060670Y040853D01*
X060681Y040769D01*
X060703Y040687D01*
X060735Y040609D01*
X060778Y040536D01*
X060829Y040469D01*
X060889Y040409D01*
X060956Y040358D01*
X061029Y040315D01*
X061107Y040283D01*
X061189Y040261D01*
X061273Y040250D01*
X061290Y040251D02*
X061340Y040251D01*
X061365Y040251D02*
X061860Y040251D01*
X061860Y040400D02*
X061729Y040400D01*
X061859Y040548D02*
X061860Y040548D01*
X061340Y040548D02*
X061290Y040548D01*
X061290Y040400D02*
X061340Y040400D01*
X061340Y040697D02*
X061290Y040697D01*
X061290Y040845D02*
X061340Y040845D01*
X061340Y040994D02*
X061290Y040994D01*
X061290Y041142D02*
X061340Y041142D01*
X061340Y041291D02*
X061290Y041291D01*
X061290Y041439D02*
X061340Y041439D01*
X061663Y041439D02*
X061860Y041439D01*
X061860Y041291D02*
X061824Y041291D01*
X061860Y041588D02*
X051814Y041588D01*
X051665Y041736D02*
X061860Y041736D01*
X061860Y041885D02*
X051517Y041885D01*
X051330Y042033D02*
X061860Y042033D01*
X061860Y042182D02*
X050764Y042182D01*
X050666Y042330D02*
X061860Y042330D01*
X061860Y042479D02*
X050742Y042479D01*
X050775Y042627D02*
X061860Y042627D01*
X061860Y042776D02*
X059685Y042776D01*
X059385Y042776D02*
X050767Y042776D01*
X050775Y042675D02*
X050175Y042675D01*
X050175Y042675D01*
X050175Y042675D01*
X050775Y042675D01*
X050721Y042924D02*
X054668Y042924D01*
X054499Y043073D02*
X050626Y043073D01*
X050425Y043221D02*
X054431Y043221D01*
X055182Y042924D02*
X059097Y042924D01*
X059973Y042924D02*
X060947Y042924D01*
X060795Y043073D02*
X060118Y043073D01*
X060180Y043221D02*
X060714Y043221D01*
X060676Y043370D02*
X060220Y043370D01*
X060220Y043518D02*
X060673Y043518D01*
X060704Y043667D02*
X060189Y043667D01*
X060127Y043815D02*
X060778Y043815D01*
X060907Y043964D02*
X060918Y043964D01*
X060443Y043964D02*
X060242Y043964D01*
X061290Y043221D02*
X061340Y043221D01*
X061340Y043073D02*
X061290Y043073D01*
X061290Y042924D02*
X061340Y042924D01*
X061683Y042924D02*
X061860Y042924D01*
X061860Y043073D02*
X061835Y043073D01*
X060967Y041439D02*
X059960Y041439D01*
X060108Y041291D02*
X060806Y041291D01*
X060719Y041142D02*
X060174Y041142D01*
X060220Y040994D02*
X060677Y040994D01*
X060671Y040845D02*
X060220Y040845D01*
X060194Y040697D02*
X060700Y040697D01*
X060771Y040548D02*
X060133Y040548D01*
X060008Y040400D02*
X060901Y040400D01*
X059062Y040400D02*
X053139Y040400D01*
X053030Y040548D02*
X058937Y040548D01*
X058876Y040697D02*
X052705Y040697D01*
X052556Y040845D02*
X058850Y040845D01*
X058850Y040994D02*
X052408Y040994D01*
X052259Y041142D02*
X058896Y041142D01*
X058962Y041291D02*
X052111Y041291D01*
X051962Y041439D02*
X059110Y041439D01*
X060907Y038060D02*
X060818Y026414D01*
X060756Y026563D01*
X060563Y026756D01*
X060311Y026860D01*
X060039Y026860D01*
X059787Y026756D01*
X059675Y026644D01*
X059563Y026756D01*
X059311Y026860D01*
X059039Y026860D01*
X058787Y026756D01*
X058675Y026644D01*
X058563Y026756D01*
X058311Y026860D01*
X058039Y026860D01*
X057787Y026756D01*
X057675Y026644D01*
X057563Y026756D01*
X057540Y026765D01*
X057540Y027498D01*
X057484Y027632D01*
X057382Y027734D01*
X051206Y033910D01*
X057548Y033910D01*
X057682Y033966D01*
X057776Y034060D01*
X057877Y034060D01*
X058067Y034138D01*
X058212Y034283D01*
X058290Y034473D01*
X058290Y034677D01*
X058212Y034867D01*
X058103Y034975D01*
X058212Y035083D01*
X058290Y035273D01*
X058290Y035477D01*
X058212Y035667D01*
X058067Y035812D01*
X057877Y035890D01*
X057673Y035890D01*
X057483Y035812D01*
X057338Y035667D01*
X057260Y035477D01*
X057260Y035440D01*
X051052Y035440D01*
X050918Y035384D01*
X050812Y035278D01*
X050809Y035301D01*
X050787Y035383D01*
X050755Y035461D01*
X050712Y035534D01*
X050661Y035601D01*
X050615Y035647D01*
X050756Y035787D01*
X050765Y035810D01*
X056739Y035810D01*
X056775Y035803D01*
X056811Y035810D01*
X056977Y035810D01*
X057167Y035888D01*
X057312Y036033D01*
X057390Y036223D01*
X057390Y036427D01*
X057312Y036617D01*
X057167Y036762D01*
X056977Y036840D01*
X056773Y036840D01*
X056583Y036762D01*
X056438Y036617D01*
X056407Y036540D01*
X052826Y036540D01*
X051306Y038060D01*
X060907Y038060D01*
X060907Y038024D02*
X051343Y038024D01*
X051491Y037875D02*
X060906Y037875D01*
X060905Y037727D02*
X051640Y037727D01*
X051788Y037578D02*
X060903Y037578D01*
X060902Y037430D02*
X051937Y037430D01*
X052085Y037281D02*
X060901Y037281D01*
X060900Y037133D02*
X052234Y037133D01*
X052382Y036984D02*
X060899Y036984D01*
X060898Y036836D02*
X056988Y036836D01*
X056762Y036836D02*
X052531Y036836D01*
X052679Y036687D02*
X056509Y036687D01*
X057241Y036687D02*
X060897Y036687D01*
X060895Y036539D02*
X057344Y036539D01*
X057390Y036390D02*
X060894Y036390D01*
X060893Y036242D02*
X057390Y036242D01*
X057336Y036093D02*
X060892Y036093D01*
X060891Y035945D02*
X057223Y035945D01*
X057468Y035796D02*
X050759Y035796D01*
X050616Y035648D02*
X057330Y035648D01*
X057269Y035499D02*
X050733Y035499D01*
X050796Y035351D02*
X050884Y035351D01*
X051251Y033866D02*
X060875Y033866D01*
X060876Y034014D02*
X057730Y034014D01*
X058091Y034163D02*
X060877Y034163D01*
X060878Y034311D02*
X058223Y034311D01*
X058285Y034460D02*
X060879Y034460D01*
X060881Y034608D02*
X058290Y034608D01*
X058257Y034757D02*
X060882Y034757D01*
X060883Y034905D02*
X058173Y034905D01*
X058182Y035054D02*
X060884Y035054D01*
X060885Y035202D02*
X058261Y035202D01*
X058290Y035351D02*
X060886Y035351D01*
X060887Y035499D02*
X058281Y035499D01*
X058220Y035648D02*
X060889Y035648D01*
X060890Y035796D02*
X058082Y035796D01*
X060874Y033717D02*
X051399Y033717D01*
X051548Y033569D02*
X060873Y033569D01*
X060871Y033420D02*
X051696Y033420D01*
X051845Y033272D02*
X060870Y033272D01*
X060869Y033123D02*
X051993Y033123D01*
X052142Y032975D02*
X060868Y032975D01*
X060867Y032826D02*
X052290Y032826D01*
X052439Y032678D02*
X060866Y032678D01*
X060865Y032529D02*
X052587Y032529D01*
X052736Y032381D02*
X060863Y032381D01*
X060862Y032232D02*
X052884Y032232D01*
X053033Y032084D02*
X060861Y032084D01*
X060860Y031935D02*
X053181Y031935D01*
X053330Y031787D02*
X060859Y031787D01*
X060858Y031638D02*
X053478Y031638D01*
X053627Y031490D02*
X060857Y031490D01*
X060855Y031341D02*
X053775Y031341D01*
X053924Y031193D02*
X060854Y031193D01*
X060853Y031044D02*
X054072Y031044D01*
X054221Y030896D02*
X060852Y030896D01*
X060851Y030747D02*
X054369Y030747D01*
X054518Y030599D02*
X060850Y030599D01*
X060849Y030450D02*
X054666Y030450D01*
X054815Y030302D02*
X060848Y030302D01*
X060846Y030153D02*
X054963Y030153D01*
X055112Y030005D02*
X060845Y030005D01*
X060844Y029856D02*
X055260Y029856D01*
X055409Y029708D02*
X060843Y029708D01*
X060842Y029559D02*
X055557Y029559D01*
X055706Y029411D02*
X060841Y029411D01*
X060840Y029262D02*
X055854Y029262D01*
X056003Y029114D02*
X060838Y029114D01*
X060837Y028965D02*
X056151Y028965D01*
X056300Y028817D02*
X060836Y028817D01*
X060835Y028668D02*
X056448Y028668D01*
X056597Y028520D02*
X060834Y028520D01*
X060833Y028371D02*
X056745Y028371D01*
X056894Y028223D02*
X060832Y028223D01*
X060830Y028074D02*
X057042Y028074D01*
X057191Y027926D02*
X060829Y027926D01*
X060828Y027777D02*
X057339Y027777D01*
X057486Y027629D02*
X060827Y027629D01*
X060826Y027480D02*
X057540Y027480D01*
X057540Y027332D02*
X060825Y027332D01*
X060824Y027183D02*
X057540Y027183D01*
X057540Y027035D02*
X060822Y027035D01*
X060821Y026886D02*
X057540Y026886D01*
X057581Y026738D02*
X057769Y026738D01*
X058581Y026738D02*
X058769Y026738D01*
X059581Y026738D02*
X059769Y026738D01*
X060581Y026738D02*
X060820Y026738D01*
X060819Y026589D02*
X060730Y026589D01*
X060806Y026441D02*
X060818Y026441D01*
X052316Y039806D02*
X050763Y039806D01*
X050825Y039954D02*
X052209Y039954D01*
X052160Y040103D02*
X050860Y040103D01*
X050860Y040251D02*
X052047Y040251D01*
X051899Y040400D02*
X050823Y040400D01*
X050762Y040548D02*
X051750Y040548D01*
X051602Y040697D02*
X050622Y040697D01*
X050347Y040845D02*
X051453Y040845D01*
X051305Y040994D02*
X035360Y040994D01*
X035360Y040845D02*
X049003Y040845D01*
X048728Y040697D02*
X035322Y040697D01*
X035260Y040548D02*
X038557Y040548D01*
X038348Y040400D02*
X035118Y040400D01*
X034232Y040400D02*
X034050Y040400D01*
X033957Y039509D02*
X033393Y039509D01*
X033611Y039360D02*
X033739Y039360D01*
X034393Y039509D02*
X035122Y039509D01*
X034795Y039360D02*
X034611Y039360D01*
X036393Y039509D02*
X036957Y039509D01*
X036739Y039360D02*
X036611Y039360D01*
X038175Y039675D02*
X038675Y040175D01*
X049175Y040175D01*
X049626Y039657D02*
X049724Y039657D01*
X049994Y039509D02*
X049356Y039509D01*
X048994Y039509D02*
X047440Y039509D01*
X047407Y039657D02*
X048724Y039657D01*
X049347Y040845D02*
X050003Y040845D01*
X049728Y040697D02*
X049622Y040697D01*
X049583Y041172D02*
X049535Y041287D01*
X049535Y042063D01*
X049583Y042178D01*
X049672Y042267D01*
X049716Y042286D01*
X049662Y042361D01*
X049619Y042445D01*
X049590Y042534D01*
X049575Y042628D01*
X049575Y042675D01*
X050175Y042675D01*
X050175Y042675D01*
X050175Y043275D01*
X050128Y043275D01*
X050034Y043260D01*
X049945Y043231D01*
X050175Y043221D02*
X050175Y043221D01*
X050175Y043073D02*
X050175Y043073D01*
X050175Y042924D02*
X050175Y042924D01*
X050175Y042776D02*
X050175Y042776D01*
X049724Y043073D02*
X043860Y043073D01*
X043812Y042924D02*
X049629Y042924D01*
X049583Y042776D02*
X043744Y042776D01*
X043596Y042627D02*
X047171Y042627D01*
X047679Y042627D02*
X049575Y042627D01*
X049608Y042479D02*
X047850Y042479D01*
X047918Y042330D02*
X049684Y042330D01*
X049586Y042182D02*
X047940Y042182D01*
X047924Y042033D02*
X049535Y042033D01*
X049535Y041885D02*
X047862Y041885D01*
X050175Y041675D02*
X051175Y041675D01*
X052675Y040175D01*
X051156Y041142D02*
X050738Y041142D01*
X046777Y045746D02*
X046573Y045746D01*
X046522Y045894D02*
X046878Y045894D01*
X046752Y046043D02*
X047026Y046043D01*
X046900Y046191D02*
X047175Y046191D01*
X047041Y046340D02*
X047323Y046340D01*
X047477Y046488D02*
X047126Y046488D01*
X047212Y046637D02*
X056810Y046637D01*
X056826Y046785D02*
X047274Y046785D01*
X055623Y046488D02*
X056810Y046488D01*
X056810Y046340D02*
X055777Y046340D01*
X055925Y046191D02*
X056810Y046191D01*
X056810Y046043D02*
X056074Y046043D01*
X056222Y045894D02*
X056810Y045894D01*
X056777Y045746D02*
X056573Y045746D01*
X061860Y049161D02*
X007580Y049161D01*
X007677Y049310D02*
X061860Y049310D01*
X061860Y049458D02*
X007775Y049458D01*
X007873Y049607D02*
X061860Y049607D01*
X061860Y049755D02*
X007968Y049755D01*
X008032Y049904D02*
X061860Y049904D01*
X061860Y050052D02*
X008097Y050052D01*
X008161Y050201D02*
X061860Y050201D01*
X061860Y050349D02*
X008225Y050349D01*
X008281Y050479D02*
X008281Y050479D01*
X008285Y050498D02*
X061860Y050498D01*
X061860Y050646D02*
X008321Y050646D01*
X008356Y050795D02*
X061860Y050795D01*
X061860Y050943D02*
X008391Y050943D01*
X008427Y051092D02*
X061860Y051092D01*
X061860Y051240D02*
X008462Y051240D01*
X008474Y051389D02*
X061860Y051389D01*
X061860Y051537D02*
X008482Y051537D01*
X008491Y051686D02*
X061860Y051686D01*
X061860Y051834D02*
X008490Y051834D01*
X007464Y049013D02*
X025616Y049013D01*
X025209Y048864D02*
X007323Y048864D01*
X007183Y048716D02*
X024952Y048716D01*
X024803Y048567D02*
X007043Y048567D01*
X006974Y048495D02*
X006974Y048495D01*
X006872Y048419D02*
X024654Y048419D01*
X024561Y048270D02*
X006672Y048270D01*
X006473Y048122D02*
X024475Y048122D01*
X024402Y047973D02*
X006244Y047973D01*
X005948Y047825D02*
X024362Y047825D01*
X024322Y047676D02*
X005652Y047676D01*
X005617Y047658D02*
X005617Y047658D01*
X005179Y047528D02*
X024297Y047528D01*
X024297Y047379D02*
X004417Y047379D01*
X004056Y047337D02*
X004056Y047337D01*
X003490Y047231D02*
X024297Y047231D01*
X024312Y047082D02*
X018401Y047082D01*
X018627Y046934D02*
X024352Y046934D01*
X024391Y046785D02*
X023492Y046785D01*
X023682Y046637D02*
X024453Y046637D01*
X024539Y046488D02*
X023873Y046488D01*
X024027Y046340D02*
X024624Y046340D01*
X024765Y046191D02*
X024175Y046191D01*
X024324Y046043D02*
X024913Y046043D01*
X025143Y045894D02*
X024472Y045894D01*
X024621Y045746D02*
X025474Y045746D01*
X025066Y045300D02*
X028284Y045300D01*
X028432Y045449D02*
X024918Y045449D01*
X024769Y045597D02*
X028581Y045597D01*
X028729Y045746D02*
X026506Y045746D01*
X026837Y045894D02*
X028878Y045894D01*
X029026Y046043D02*
X027067Y046043D01*
X027215Y046191D02*
X029175Y046191D01*
X029323Y046340D02*
X027356Y046340D01*
X027441Y046488D02*
X029472Y046488D01*
X029620Y046637D02*
X027527Y046637D01*
X027589Y046785D02*
X029769Y046785D01*
X029917Y046934D02*
X027628Y046934D01*
X028135Y045152D02*
X025215Y045152D01*
X025363Y045003D02*
X027987Y045003D01*
X027838Y044855D02*
X025512Y044855D01*
X025660Y044706D02*
X027690Y044706D01*
X027541Y044558D02*
X025809Y044558D01*
X025957Y044409D02*
X027393Y044409D01*
X027244Y044261D02*
X026106Y044261D01*
X026466Y044112D02*
X027096Y044112D01*
X026947Y043964D02*
X026613Y043964D01*
X026674Y043815D02*
X026799Y043815D01*
X025925Y043221D02*
X018565Y043221D01*
X018565Y043073D02*
X026056Y043073D01*
X025908Y042924D02*
X018565Y042924D01*
X018565Y042776D02*
X025822Y042776D01*
X025810Y042627D02*
X018565Y042627D01*
X018516Y042479D02*
X025810Y042479D01*
X025810Y042330D02*
X018361Y042330D01*
X018175Y042675D02*
X015425Y042675D01*
X015425Y034925D01*
X013175Y034925D01*
X010175Y031925D01*
X007175Y031925D01*
X005425Y031925D01*
X004175Y033175D01*
X004175Y034175D01*
X004667Y034652D02*
X005152Y034652D01*
X005152Y034698D01*
X004620Y034698D01*
X004667Y034652D01*
X004925Y034675D02*
X005175Y034675D01*
X005198Y034698D02*
X005820Y034698D01*
X005820Y034717D01*
X005809Y034801D01*
X005787Y034883D01*
X005755Y034961D01*
X005712Y035034D01*
X005661Y035101D01*
X005615Y035147D01*
X005756Y035287D01*
X005765Y035310D01*
X012448Y035310D01*
X012582Y035366D01*
X012684Y035468D01*
X013876Y036660D01*
X013977Y036660D01*
X014167Y036738D01*
X014312Y036883D01*
X014390Y037073D01*
X014390Y037277D01*
X014312Y037467D01*
X014167Y037612D01*
X013977Y037690D01*
X013773Y037690D01*
X013583Y037612D01*
X013438Y037467D01*
X013360Y037277D01*
X013360Y037176D01*
X012224Y036040D01*
X005765Y036040D01*
X005756Y036063D01*
X005644Y036175D01*
X005756Y036287D01*
X005860Y036539D01*
X005860Y036811D01*
X005756Y037063D01*
X005563Y037256D01*
X005540Y037265D01*
X005540Y041748D01*
X005484Y041882D01*
X005481Y041885D01*
X006203Y041885D01*
X006346Y041944D01*
X006456Y042054D01*
X006687Y042285D01*
X006934Y042285D01*
X006865Y042216D01*
X006720Y041865D01*
X006720Y041485D01*
X006865Y041134D01*
X007134Y040865D01*
X007485Y040720D01*
X007865Y040720D01*
X008216Y040865D01*
X008485Y041134D01*
X008630Y041485D01*
X008630Y041865D01*
X008485Y042216D01*
X008416Y042285D01*
X015035Y042285D01*
X015035Y035315D01*
X013097Y035315D01*
X012954Y035256D01*
X012844Y035146D01*
X010013Y032315D01*
X008068Y032315D01*
X008210Y032374D01*
X008476Y032640D01*
X008620Y032987D01*
X008620Y033363D01*
X008476Y033710D01*
X008210Y033976D01*
X007863Y034120D01*
X007487Y034120D01*
X007140Y033976D01*
X006874Y033710D01*
X006730Y033363D01*
X006730Y032987D01*
X006874Y032640D01*
X007140Y032374D01*
X007282Y032315D01*
X005587Y032315D01*
X004912Y032990D01*
X005608Y032990D01*
X005723Y033038D01*
X005812Y033127D01*
X005860Y033242D01*
X005860Y034108D01*
X005812Y034223D01*
X005723Y034312D01*
X005713Y034316D01*
X005755Y034389D01*
X005787Y034467D01*
X005809Y034549D01*
X005820Y034633D01*
X005820Y034652D01*
X005198Y034652D01*
X005198Y034698D01*
X004925Y034675D02*
X004425Y035175D01*
X004175Y035175D01*
X004198Y035198D02*
X004683Y035198D01*
X004730Y035152D01*
X004198Y035152D01*
X004198Y035198D01*
X005671Y035202D02*
X012901Y035202D01*
X012752Y035054D02*
X005698Y035054D01*
X005778Y034905D02*
X012604Y034905D01*
X012455Y034757D02*
X005815Y034757D01*
X005817Y034608D02*
X012307Y034608D01*
X012158Y034460D02*
X005784Y034460D01*
X005724Y034311D02*
X012010Y034311D01*
X011861Y034163D02*
X005837Y034163D01*
X005860Y034014D02*
X007231Y034014D01*
X007029Y033866D02*
X005860Y033866D01*
X005860Y033717D02*
X006881Y033717D01*
X006815Y033569D02*
X005860Y033569D01*
X005860Y033420D02*
X006754Y033420D01*
X006730Y033272D02*
X005860Y033272D01*
X005809Y033123D02*
X006730Y033123D01*
X006735Y032975D02*
X004927Y032975D01*
X005076Y032826D02*
X006797Y032826D01*
X006858Y032678D02*
X005224Y032678D01*
X005373Y032529D02*
X006985Y032529D01*
X007133Y032381D02*
X005521Y032381D01*
X007175Y031925D02*
X007175Y030675D01*
X004675Y028175D01*
X004175Y028175D01*
X004746Y027777D02*
X006580Y027777D01*
X006580Y027898D02*
X006580Y027452D01*
X006696Y027022D01*
X006919Y026636D01*
X007234Y026320D01*
X007620Y026097D01*
X008051Y025982D01*
X008496Y025982D01*
X008927Y026097D01*
X009313Y026320D01*
X009628Y026636D01*
X009851Y027022D01*
X009966Y027452D01*
X009966Y027898D01*
X009851Y028328D01*
X009628Y028714D01*
X009313Y029030D01*
X008927Y029253D01*
X008496Y029368D01*
X008051Y029368D01*
X007620Y029253D01*
X007234Y029030D01*
X006919Y028714D01*
X006696Y028328D01*
X006580Y027898D01*
X006588Y027926D02*
X004977Y027926D01*
X005006Y027954D02*
X005006Y027954D01*
X005126Y028074D02*
X006628Y028074D01*
X006667Y028223D02*
X005274Y028223D01*
X005423Y028371D02*
X006720Y028371D01*
X006806Y028520D02*
X005571Y028520D01*
X005720Y028668D02*
X006892Y028668D01*
X007021Y028817D02*
X005868Y028817D01*
X006017Y028965D02*
X007169Y028965D01*
X007379Y029114D02*
X006165Y029114D01*
X006314Y029262D02*
X007655Y029262D01*
X006908Y029856D02*
X012193Y029856D01*
X012160Y029708D02*
X006759Y029708D01*
X006611Y029559D02*
X012166Y029559D01*
X012227Y029411D02*
X006462Y029411D01*
X007056Y030005D02*
X012276Y030005D01*
X012867Y030153D02*
X019645Y030153D01*
X019794Y030005D02*
X013074Y030005D01*
X013157Y029856D02*
X019942Y029856D01*
X020091Y029708D02*
X013194Y029708D01*
X013343Y029559D02*
X020239Y029559D01*
X019982Y029411D02*
X013491Y029411D01*
X013640Y029262D02*
X019836Y029262D01*
X019775Y029114D02*
X013788Y029114D01*
X013937Y028965D02*
X015512Y028965D01*
X015838Y028965D02*
X019760Y028965D01*
X019101Y027777D02*
X023821Y027777D01*
X023673Y027926D02*
X009959Y027926D01*
X009966Y027777D02*
X018449Y027777D01*
X018323Y027629D02*
X009966Y027629D01*
X009966Y027480D02*
X018261Y027480D01*
X018260Y027332D02*
X013597Y027332D01*
X013726Y027183D02*
X018297Y027183D01*
X018387Y027035D02*
X013787Y027035D01*
X013866Y026886D02*
X018610Y026886D01*
X018896Y026738D02*
X014014Y026738D01*
X014163Y026589D02*
X019045Y026589D01*
X019193Y026441D02*
X014311Y026441D01*
X014460Y026292D02*
X019342Y026292D01*
X019490Y026144D02*
X014608Y026144D01*
X014757Y025995D02*
X019639Y025995D01*
X019787Y025847D02*
X017732Y025847D01*
X017840Y025698D02*
X019936Y025698D01*
X020084Y025550D02*
X017890Y025550D01*
X017965Y025401D02*
X020233Y025401D01*
X020820Y025847D02*
X022285Y025847D01*
X021877Y025995D02*
X020671Y025995D01*
X020523Y026144D02*
X021734Y026144D01*
X021673Y026292D02*
X020374Y026292D01*
X020226Y026441D02*
X021660Y026441D01*
X021686Y026589D02*
X020077Y026589D01*
X019929Y026738D02*
X021759Y026738D01*
X021675Y026675D02*
X020625Y026675D01*
X019780Y026886D02*
X021942Y026886D01*
X021675Y026675D02*
X021675Y027175D01*
X022075Y027575D01*
X023475Y027575D01*
X024875Y026175D01*
X029175Y026175D01*
X031175Y024175D01*
X029675Y024175D01*
X029175Y023675D01*
X029175Y023175D01*
X029160Y023322D02*
X029190Y023322D01*
X029190Y023471D02*
X029160Y023471D01*
X029160Y023619D02*
X029190Y023619D01*
X029544Y023619D02*
X029749Y023619D01*
X029898Y023768D02*
X023609Y023768D01*
X023629Y023619D02*
X028806Y023619D01*
X028657Y023471D02*
X023777Y023471D01*
X023810Y023322D02*
X028600Y023322D01*
X030452Y023768D02*
X030898Y023768D01*
X030749Y023619D02*
X030601Y023619D01*
X031175Y024175D02*
X033175Y024175D01*
X033175Y023175D01*
X033160Y023322D02*
X033190Y023322D01*
X033190Y023471D02*
X033160Y023471D01*
X033160Y023619D02*
X033190Y023619D01*
X033544Y023619D02*
X034103Y023619D01*
X034251Y023768D02*
X032452Y023768D01*
X032601Y023619D02*
X032806Y023619D01*
X033693Y023471D02*
X033954Y023471D01*
X033806Y023322D02*
X033750Y023322D01*
X034400Y023916D02*
X023757Y023916D01*
X023770Y024065D02*
X034548Y024065D01*
X034697Y024213D02*
X023770Y024213D01*
X023770Y024362D02*
X034845Y024362D01*
X034895Y025550D02*
X027039Y025550D01*
X027090Y025698D02*
X034683Y025698D01*
X034570Y025847D02*
X027090Y025847D01*
X027041Y025995D02*
X034508Y025995D01*
X034490Y026144D02*
X026935Y026144D01*
X026215Y026144D02*
X023057Y026144D01*
X022886Y026292D02*
X025380Y026292D01*
X025158Y026441D02*
X022714Y026441D01*
X022664Y026589D02*
X025009Y026589D01*
X024861Y026738D02*
X022591Y026738D01*
X022408Y026886D02*
X024712Y026886D01*
X024564Y027035D02*
X019632Y027035D01*
X019483Y027183D02*
X024415Y027183D01*
X024267Y027332D02*
X019335Y027332D01*
X019289Y027480D02*
X024118Y027480D01*
X023970Y027629D02*
X019227Y027629D01*
X017018Y025847D02*
X014905Y025847D01*
X015054Y025698D02*
X016910Y025698D01*
X016860Y025550D02*
X015202Y025550D01*
X015351Y025401D02*
X016860Y025401D01*
X016910Y025253D02*
X015499Y025253D01*
X015648Y025104D02*
X017018Y025104D01*
X017378Y024956D02*
X015796Y024956D01*
X015945Y024807D02*
X017527Y024807D01*
X017685Y024659D02*
X016093Y024659D01*
X016025Y024175D02*
X009925Y024175D01*
X009175Y023425D01*
X007675Y023425D01*
X004925Y026175D01*
X004175Y026175D01*
X003544Y026441D02*
X003490Y026441D01*
X003490Y026589D02*
X003620Y026589D01*
X003644Y026738D02*
X003490Y026738D01*
X003490Y026886D02*
X003553Y026886D01*
X003490Y027035D02*
X003492Y027035D01*
X003490Y027183D02*
X003490Y027183D01*
X003490Y027308D02*
X003490Y027308D01*
X003575Y027775D02*
X003575Y037175D01*
X004175Y037175D01*
X005540Y037281D02*
X006815Y037281D01*
X006874Y037140D02*
X007140Y036874D01*
X007487Y036730D01*
X007863Y036730D01*
X008210Y036874D01*
X008476Y037140D01*
X008620Y037487D01*
X008620Y037863D01*
X008476Y038210D01*
X008210Y038476D01*
X007863Y038620D01*
X007487Y038620D01*
X007140Y038476D01*
X006874Y038210D01*
X006730Y037863D01*
X006730Y037487D01*
X006874Y037140D01*
X006881Y037133D02*
X005686Y037133D01*
X005788Y036984D02*
X007030Y036984D01*
X007232Y036836D02*
X005850Y036836D01*
X005860Y036687D02*
X012871Y036687D01*
X013019Y036836D02*
X008118Y036836D01*
X008320Y036984D02*
X013168Y036984D01*
X013316Y037133D02*
X008469Y037133D01*
X008535Y037281D02*
X013361Y037281D01*
X013423Y037430D02*
X008596Y037430D01*
X008620Y037578D02*
X013550Y037578D01*
X014200Y037578D02*
X015035Y037578D01*
X015035Y037430D02*
X014327Y037430D01*
X014389Y037281D02*
X015035Y037281D01*
X015035Y037133D02*
X014390Y037133D01*
X014353Y036984D02*
X015035Y036984D01*
X015035Y036836D02*
X014264Y036836D01*
X014043Y036687D02*
X015035Y036687D01*
X015035Y036539D02*
X013755Y036539D01*
X013606Y036390D02*
X015035Y036390D01*
X015035Y036242D02*
X013458Y036242D01*
X013309Y036093D02*
X015035Y036093D01*
X015035Y035945D02*
X013161Y035945D01*
X013012Y035796D02*
X015035Y035796D01*
X015035Y035648D02*
X012864Y035648D01*
X012715Y035499D02*
X015035Y035499D01*
X015035Y035351D02*
X012545Y035351D01*
X012277Y036093D02*
X005726Y036093D01*
X005710Y036242D02*
X012425Y036242D01*
X012574Y036390D02*
X005798Y036390D01*
X005860Y036539D02*
X012722Y036539D01*
X011880Y037908D02*
X011449Y037793D01*
X011003Y037793D01*
X010573Y037908D01*
X010187Y038131D01*
X009871Y038447D01*
X009649Y038833D01*
X009533Y039263D01*
X009533Y039709D01*
X009649Y040139D01*
X009871Y040526D01*
X010187Y040841D01*
X010573Y041064D01*
X011003Y041179D01*
X011449Y041179D01*
X011880Y041064D01*
X012266Y040841D01*
X012581Y040526D01*
X012804Y040139D01*
X012919Y039709D01*
X012919Y039263D01*
X012804Y038833D01*
X012581Y038447D01*
X012266Y038131D01*
X011880Y037908D01*
X011755Y037875D02*
X015035Y037875D01*
X015035Y037727D02*
X008620Y037727D01*
X008615Y037875D02*
X010697Y037875D01*
X010373Y038024D02*
X008553Y038024D01*
X008492Y038172D02*
X010146Y038172D01*
X009997Y038321D02*
X008366Y038321D01*
X008217Y038469D02*
X009858Y038469D01*
X009773Y038618D02*
X007869Y038618D01*
X007481Y038618D02*
X005540Y038618D01*
X005540Y038766D02*
X009687Y038766D01*
X009627Y038915D02*
X005540Y038915D01*
X005540Y039063D02*
X009587Y039063D01*
X009547Y039212D02*
X005540Y039212D01*
X005540Y039360D02*
X009533Y039360D01*
X009533Y039509D02*
X005540Y039509D01*
X005540Y039657D02*
X009533Y039657D01*
X009559Y039806D02*
X005540Y039806D01*
X005540Y039954D02*
X009599Y039954D01*
X009639Y040103D02*
X005540Y040103D01*
X005540Y040251D02*
X009713Y040251D01*
X009799Y040400D02*
X005540Y040400D01*
X005540Y040548D02*
X009894Y040548D01*
X010043Y040697D02*
X005540Y040697D01*
X005540Y040845D02*
X007183Y040845D01*
X007006Y040994D02*
X005540Y040994D01*
X005540Y041142D02*
X006862Y041142D01*
X006801Y041291D02*
X005540Y041291D01*
X005540Y041439D02*
X006739Y041439D01*
X006720Y041588D02*
X005540Y041588D01*
X005540Y041736D02*
X006720Y041736D01*
X006728Y041885D02*
X005482Y041885D01*
X006125Y042275D02*
X004275Y042275D01*
X004175Y042375D01*
X004175Y042425D01*
X004669Y042900D02*
X005150Y042900D01*
X005150Y042950D01*
X004619Y042950D01*
X004669Y042900D01*
X004645Y042924D02*
X005150Y042924D01*
X005175Y042925D02*
X005925Y042925D01*
X007175Y044175D01*
X012575Y044175D01*
X012575Y044675D01*
X015575Y047175D01*
X020175Y047175D01*
X021175Y046175D01*
X021180Y046180D02*
X021820Y046180D01*
X021820Y046217D01*
X021809Y046301D01*
X021787Y046383D01*
X021755Y046461D01*
X021712Y046534D01*
X021661Y046601D01*
X021601Y046661D01*
X021534Y046712D01*
X021461Y046755D01*
X021383Y046787D01*
X021301Y046809D01*
X021217Y046820D01*
X021180Y046820D01*
X021180Y046180D01*
X021180Y046170D01*
X021820Y046170D01*
X021820Y046133D01*
X021809Y046049D01*
X021787Y045967D01*
X021755Y045889D01*
X021712Y045816D01*
X021661Y045749D01*
X021615Y045703D01*
X021756Y045563D01*
X021860Y045311D01*
X021860Y045039D01*
X021756Y044787D01*
X021563Y044594D01*
X021311Y044490D01*
X021039Y044490D01*
X020787Y044594D01*
X020594Y044787D01*
X020490Y045039D01*
X020490Y045311D01*
X020594Y045563D01*
X020735Y045703D01*
X020689Y045749D01*
X020638Y045816D01*
X020595Y045889D01*
X020563Y045967D01*
X020541Y046049D01*
X020530Y046133D01*
X020530Y046170D01*
X021170Y046170D01*
X021170Y046180D01*
X021170Y046820D01*
X021133Y046820D01*
X021049Y046809D01*
X020967Y046787D01*
X020889Y046755D01*
X020816Y046712D01*
X020749Y046661D01*
X020689Y046601D01*
X020638Y046534D01*
X020595Y046461D01*
X020563Y046383D01*
X020541Y046301D01*
X020530Y046217D01*
X020530Y046180D01*
X021170Y046180D01*
X021180Y046180D01*
X021180Y046191D02*
X021170Y046191D01*
X021170Y046340D02*
X021180Y046340D01*
X021170Y046488D02*
X021180Y046488D01*
X021170Y046637D02*
X021180Y046637D01*
X021170Y046785D02*
X021180Y046785D01*
X021388Y046785D02*
X022858Y046785D01*
X022668Y046637D02*
X021626Y046637D01*
X021739Y046488D02*
X022563Y046488D01*
X022502Y046340D02*
X021799Y046340D01*
X021820Y046191D02*
X022490Y046191D01*
X022490Y046043D02*
X021807Y046043D01*
X021757Y045894D02*
X022550Y045894D01*
X022636Y045746D02*
X021658Y045746D01*
X021722Y045597D02*
X022628Y045597D01*
X022547Y045449D02*
X021803Y045449D01*
X021860Y045300D02*
X022490Y045300D01*
X022490Y045152D02*
X021860Y045152D01*
X021845Y045003D02*
X022505Y045003D01*
X022566Y044855D02*
X021784Y044855D01*
X021675Y044706D02*
X022675Y044706D01*
X022876Y044558D02*
X021474Y044558D01*
X020876Y044558D02*
X018565Y044558D01*
X018565Y044706D02*
X020675Y044706D01*
X020566Y044855D02*
X018565Y044855D01*
X018565Y045003D02*
X020505Y045003D01*
X020490Y045152D02*
X018565Y045152D01*
X018565Y045300D02*
X020490Y045300D01*
X020547Y045449D02*
X018659Y045449D01*
X018751Y045597D02*
X020628Y045597D01*
X020692Y045746D02*
X018807Y045746D01*
X018807Y045894D02*
X020593Y045894D01*
X020543Y046043D02*
X018807Y046043D01*
X018807Y046191D02*
X020530Y046191D01*
X020551Y046340D02*
X018807Y046340D01*
X018807Y046488D02*
X020611Y046488D01*
X020724Y046637D02*
X018799Y046637D01*
X018737Y046785D02*
X020962Y046785D01*
X018175Y046175D02*
X018175Y042675D01*
X017785Y043073D02*
X005803Y043073D01*
X005749Y043221D02*
X017785Y043221D01*
X017785Y043370D02*
X005643Y043370D01*
X005737Y043518D02*
X017785Y043518D01*
X017785Y043667D02*
X005809Y043667D01*
X005860Y043815D02*
X017785Y043815D01*
X017785Y043964D02*
X005860Y043964D01*
X005839Y044112D02*
X017785Y044112D01*
X017785Y044261D02*
X005777Y044261D01*
X005660Y044409D02*
X017785Y044409D01*
X017785Y044558D02*
X005764Y044558D01*
X005826Y044706D02*
X017785Y044706D01*
X017785Y044855D02*
X008190Y044855D01*
X008216Y044865D02*
X008485Y045134D01*
X008630Y045485D01*
X008630Y045865D01*
X008485Y046216D01*
X008216Y046485D01*
X007865Y046630D01*
X007485Y046630D01*
X007134Y046485D01*
X006865Y046216D01*
X006720Y045865D01*
X006720Y045485D01*
X006865Y045134D01*
X007134Y044865D01*
X007485Y044720D01*
X007865Y044720D01*
X008216Y044865D01*
X008354Y045003D02*
X017785Y045003D01*
X017785Y045152D02*
X008492Y045152D01*
X008553Y045300D02*
X016871Y045300D01*
X016691Y045449D02*
X008615Y045449D01*
X008630Y045597D02*
X016599Y045597D01*
X016543Y045746D02*
X008630Y045746D01*
X008618Y045894D02*
X016543Y045894D01*
X016543Y046043D02*
X008556Y046043D01*
X008495Y046191D02*
X016543Y046191D01*
X016543Y046340D02*
X008361Y046340D01*
X008208Y046488D02*
X016543Y046488D01*
X016551Y046637D02*
X003490Y046637D01*
X003490Y046785D02*
X016613Y046785D01*
X016723Y046934D02*
X003490Y046934D01*
X003490Y047082D02*
X016949Y047082D01*
X017401Y047082D02*
X017949Y047082D01*
X017723Y046934D02*
X017627Y046934D01*
X017659Y045449D02*
X017691Y045449D01*
X017785Y045300D02*
X017479Y045300D01*
X018565Y044409D02*
X024925Y044409D01*
X025073Y044261D02*
X018565Y044261D01*
X018565Y044112D02*
X025222Y044112D01*
X025370Y043964D02*
X018565Y043964D01*
X018565Y043815D02*
X025519Y043815D01*
X025660Y043667D02*
X018565Y043667D01*
X018565Y043518D02*
X025683Y043518D01*
X025752Y043370D02*
X018565Y043370D01*
X015815Y042182D02*
X025810Y042182D01*
X025810Y042033D02*
X015815Y042033D01*
X015815Y041885D02*
X025810Y041885D01*
X025810Y041736D02*
X015815Y041736D01*
X015815Y041588D02*
X025810Y041588D01*
X025810Y041439D02*
X015815Y041439D01*
X015815Y041291D02*
X025810Y041291D01*
X025810Y041142D02*
X015815Y041142D01*
X015815Y040994D02*
X025810Y040994D01*
X025810Y040845D02*
X015815Y040845D01*
X015815Y040697D02*
X025810Y040697D01*
X025810Y040548D02*
X015815Y040548D01*
X015815Y040400D02*
X025810Y040400D01*
X025810Y040251D02*
X015815Y040251D01*
X015815Y040103D02*
X025810Y040103D01*
X025810Y039954D02*
X015815Y039954D01*
X015815Y039806D02*
X025810Y039806D01*
X025810Y039657D02*
X015815Y039657D01*
X015815Y039509D02*
X025810Y039509D01*
X025739Y039360D02*
X015815Y039360D01*
X015815Y039212D02*
X025637Y039212D01*
X025580Y039063D02*
X015815Y039063D01*
X015815Y038915D02*
X025580Y038915D01*
X025580Y038766D02*
X015815Y038766D01*
X015815Y038618D02*
X025580Y038618D01*
X025580Y038469D02*
X015815Y038469D01*
X015815Y038321D02*
X021342Y038321D01*
X021220Y038172D02*
X015815Y038172D01*
X015815Y038024D02*
X021160Y038024D01*
X021160Y037875D02*
X015815Y037875D01*
X015815Y037727D02*
X021200Y037727D01*
X021294Y037578D02*
X015815Y037578D01*
X015815Y037430D02*
X020913Y037430D01*
X020765Y037281D02*
X015815Y037281D01*
X015815Y037133D02*
X020616Y037133D01*
X020468Y036984D02*
X015815Y036984D01*
X015815Y036836D02*
X020319Y036836D01*
X020171Y036687D02*
X015815Y036687D01*
X015815Y036539D02*
X020022Y036539D01*
X019874Y036390D02*
X015815Y036390D01*
X015815Y036242D02*
X019725Y036242D01*
X019577Y036093D02*
X015815Y036093D01*
X015815Y035945D02*
X019428Y035945D01*
X019280Y035796D02*
X015815Y035796D01*
X015815Y035648D02*
X019131Y035648D01*
X018983Y035499D02*
X015815Y035499D01*
X015815Y035351D02*
X018834Y035351D01*
X018686Y035202D02*
X015815Y035202D01*
X015848Y035054D02*
X018537Y035054D01*
X018389Y034905D02*
X015996Y034905D01*
X016145Y034757D02*
X018240Y034757D01*
X018092Y034608D02*
X016293Y034608D01*
X016442Y034460D02*
X017943Y034460D01*
X017795Y034311D02*
X016590Y034311D01*
X016739Y034163D02*
X017506Y034163D01*
X017286Y034014D02*
X016887Y034014D01*
X017036Y033866D02*
X017196Y033866D01*
X017777Y033160D02*
X017967Y033238D01*
X018112Y033383D01*
X018190Y033573D01*
X018190Y033674D01*
X020998Y036482D01*
X021038Y036383D01*
X021110Y036312D01*
X021110Y036052D01*
X021166Y035918D01*
X021268Y035816D01*
X023224Y033860D01*
X023039Y033860D01*
X022787Y033756D01*
X022675Y033644D01*
X022563Y033756D01*
X022311Y033860D01*
X022039Y033860D01*
X021787Y033756D01*
X021594Y033563D01*
X021490Y033311D01*
X021490Y033039D01*
X021594Y032787D01*
X021787Y032594D01*
X022039Y032490D01*
X022311Y032490D01*
X022563Y032594D01*
X022675Y032706D01*
X022787Y032594D01*
X023039Y032490D01*
X023311Y032490D01*
X023334Y032500D01*
X024866Y030968D01*
X024968Y030866D01*
X025102Y030810D01*
X029248Y030810D01*
X029382Y030866D01*
X029484Y030968D01*
X030026Y031510D01*
X030494Y031510D01*
X030218Y031234D01*
X030116Y031132D01*
X030060Y030998D01*
X030060Y030102D01*
X030116Y029968D01*
X030218Y029866D01*
X030519Y029565D01*
X030314Y029565D01*
X030267Y029678D01*
X030178Y029767D01*
X030063Y029815D01*
X029287Y029815D01*
X029172Y029767D01*
X029083Y029678D01*
X029036Y029565D01*
X021337Y029565D01*
X017742Y033160D01*
X017777Y033160D01*
X017779Y033123D02*
X021490Y033123D01*
X021490Y033272D02*
X018000Y033272D01*
X018127Y033420D02*
X021535Y033420D01*
X021600Y033569D02*
X018188Y033569D01*
X018233Y033717D02*
X021748Y033717D01*
X021517Y032975D02*
X017927Y032975D01*
X018076Y032826D02*
X021578Y032826D01*
X021704Y032678D02*
X018224Y032678D01*
X018373Y032529D02*
X021944Y032529D01*
X022406Y032529D02*
X022944Y032529D01*
X022704Y032678D02*
X022646Y032678D01*
X023453Y032381D02*
X018521Y032381D01*
X018670Y032232D02*
X023602Y032232D01*
X023750Y032084D02*
X018818Y032084D01*
X018967Y031935D02*
X023899Y031935D01*
X024047Y031787D02*
X019115Y031787D01*
X019264Y031638D02*
X024196Y031638D01*
X024344Y031490D02*
X019412Y031490D01*
X019561Y031341D02*
X024493Y031341D01*
X024641Y031193D02*
X019709Y031193D01*
X019858Y031044D02*
X024790Y031044D01*
X024938Y030896D02*
X020006Y030896D01*
X020155Y030747D02*
X030060Y030747D01*
X030060Y030599D02*
X020303Y030599D01*
X020452Y030450D02*
X030060Y030450D01*
X030060Y030302D02*
X020600Y030302D01*
X020749Y030153D02*
X030060Y030153D01*
X030101Y030005D02*
X020897Y030005D01*
X021046Y029856D02*
X030228Y029856D01*
X030238Y029708D02*
X030376Y029708D01*
X030060Y030896D02*
X029412Y030896D01*
X029560Y031044D02*
X030079Y031044D01*
X030176Y031193D02*
X029709Y031193D01*
X029857Y031341D02*
X030325Y031341D01*
X030473Y031490D02*
X030006Y031490D01*
X029112Y029708D02*
X021194Y029708D01*
X023348Y028074D02*
X016002Y028074D01*
X015348Y028074D02*
X009919Y028074D01*
X009879Y028223D02*
X013576Y028223D01*
X013427Y028371D02*
X009826Y028371D01*
X009741Y028520D02*
X013279Y028520D01*
X013130Y028668D02*
X009655Y028668D01*
X009526Y028817D02*
X012982Y028817D01*
X012833Y028965D02*
X009378Y028965D01*
X009168Y029114D02*
X012685Y029114D01*
X012360Y029262D02*
X008892Y029262D01*
X009934Y027332D02*
X012953Y027332D01*
X012824Y027183D02*
X009894Y027183D01*
X009854Y027035D02*
X012763Y027035D01*
X012760Y026886D02*
X009773Y026886D01*
X009687Y026738D02*
X012795Y026738D01*
X012883Y026589D02*
X009582Y026589D01*
X009433Y026441D02*
X013099Y026441D01*
X013356Y026292D02*
X009264Y026292D01*
X009007Y026144D02*
X013505Y026144D01*
X013653Y025995D02*
X008545Y025995D01*
X008002Y025995D02*
X005657Y025995D01*
X005805Y025847D02*
X013802Y025847D01*
X013950Y025698D02*
X005954Y025698D01*
X006102Y025550D02*
X014099Y025550D01*
X014247Y025401D02*
X006251Y025401D01*
X006399Y025253D02*
X014396Y025253D01*
X014544Y025104D02*
X006548Y025104D01*
X006696Y024956D02*
X014693Y024956D01*
X014841Y024807D02*
X006845Y024807D01*
X006993Y024659D02*
X014990Y024659D01*
X016025Y024175D02*
X018425Y024175D01*
X018425Y021425D01*
X018675Y021175D01*
X020175Y021175D01*
X022175Y019175D01*
X032175Y019175D01*
X031641Y019610D02*
X025578Y019610D01*
X025727Y019758D02*
X031740Y019758D01*
X031740Y019907D02*
X025805Y019907D01*
X025860Y020055D02*
X031740Y020055D01*
X031740Y020204D02*
X025860Y020204D01*
X025843Y020352D02*
X031740Y020352D01*
X031740Y020501D02*
X025782Y020501D01*
X025670Y020649D02*
X031797Y020649D01*
X031938Y020798D02*
X025760Y020798D01*
X024680Y020649D02*
X023617Y020649D01*
X023469Y020798D02*
X024590Y020798D01*
X024528Y020946D02*
X023320Y020946D01*
X023172Y021095D02*
X024490Y021095D01*
X024490Y021243D02*
X023023Y021243D01*
X022875Y021392D02*
X024523Y021392D01*
X024585Y021540D02*
X023432Y021540D01*
X023657Y021689D02*
X024720Y021689D01*
X024568Y020501D02*
X023766Y020501D01*
X023914Y020352D02*
X024507Y020352D01*
X024490Y020204D02*
X024275Y020204D01*
X024416Y020055D02*
X024490Y020055D01*
X024478Y019907D02*
X024545Y019907D01*
X024490Y019758D02*
X024623Y019758D01*
X024772Y019610D02*
X024464Y019610D01*
X021931Y018867D02*
X020799Y018867D01*
X020651Y019016D02*
X021783Y019016D01*
X021634Y019164D02*
X020502Y019164D01*
X020354Y019313D02*
X021486Y019313D01*
X021337Y019461D02*
X020205Y019461D01*
X020057Y019610D02*
X021189Y019610D01*
X021040Y019758D02*
X019908Y019758D01*
X019760Y019907D02*
X020892Y019907D01*
X020743Y020055D02*
X019611Y020055D01*
X019463Y020204D02*
X020595Y020204D01*
X020446Y020352D02*
X019314Y020352D01*
X019166Y020501D02*
X020298Y020501D01*
X020149Y020649D02*
X019017Y020649D01*
X018430Y020204D02*
X018198Y020204D01*
X018282Y020352D02*
X018050Y020352D01*
X018133Y020501D02*
X017901Y020501D01*
X017985Y020649D02*
X017753Y020649D01*
X017836Y020798D02*
X017604Y020798D01*
X017688Y020946D02*
X017456Y020946D01*
X017539Y021095D02*
X017307Y021095D01*
X017391Y021243D02*
X017159Y021243D01*
X017242Y021392D02*
X017010Y021392D01*
X017094Y021540D02*
X016862Y021540D01*
X016945Y021689D02*
X016713Y021689D01*
X016797Y021837D02*
X016565Y021837D01*
X016648Y021986D02*
X016416Y021986D01*
X016500Y022134D02*
X004528Y022134D01*
X004534Y022138D02*
X004601Y022189D01*
X004661Y022249D01*
X004712Y022316D01*
X004755Y022389D01*
X004787Y022467D01*
X004809Y022549D01*
X004820Y022633D01*
X004820Y022650D01*
X004200Y022650D01*
X004200Y022700D01*
X004820Y022700D01*
X004820Y022717D01*
X004809Y022801D01*
X004787Y022883D01*
X004755Y022961D01*
X004712Y023034D01*
X004661Y023101D01*
X004615Y023147D01*
X004756Y023287D01*
X004860Y023539D01*
X004860Y023811D01*
X004756Y024063D01*
X004644Y024175D01*
X004756Y024287D01*
X004860Y024539D01*
X004860Y024811D01*
X004756Y025063D01*
X004563Y025256D01*
X004311Y025360D01*
X004039Y025360D01*
X003787Y025256D01*
X003594Y025063D01*
X003490Y024811D01*
X003490Y024539D01*
X003594Y024287D01*
X003706Y024175D01*
X003594Y024063D01*
X003490Y023811D01*
X003490Y023539D01*
X003594Y023287D01*
X003735Y023147D01*
X003689Y023101D01*
X003638Y023034D01*
X003595Y022961D01*
X003563Y022883D01*
X003541Y022801D01*
X003530Y022717D01*
X003530Y022700D01*
X004150Y022700D01*
X004150Y022650D01*
X003530Y022650D01*
X003530Y022633D01*
X003541Y022549D01*
X003563Y022467D01*
X003595Y022389D01*
X003638Y022316D01*
X003689Y022249D01*
X003749Y022189D01*
X003816Y022138D01*
X003889Y022095D01*
X003967Y022063D01*
X004049Y022041D01*
X004133Y022030D01*
X004150Y022030D01*
X004150Y022650D01*
X004200Y022650D01*
X004200Y022030D01*
X004217Y022030D01*
X004301Y022041D01*
X004383Y022063D01*
X004461Y022095D01*
X004534Y022138D01*
X004434Y021986D02*
X003490Y021986D01*
X003490Y022134D02*
X003822Y022134D01*
X003663Y022283D02*
X003490Y022283D01*
X003490Y022431D02*
X003578Y022431D01*
X003537Y022580D02*
X003490Y022580D01*
X003490Y022728D02*
X003531Y022728D01*
X003561Y022877D02*
X003490Y022877D01*
X003490Y023025D02*
X003632Y023025D01*
X003708Y023174D02*
X003490Y023174D01*
X003490Y023322D02*
X003580Y023322D01*
X003518Y023471D02*
X003490Y023471D01*
X003490Y023619D02*
X003490Y023619D01*
X003490Y023768D02*
X003490Y023768D01*
X003490Y023916D02*
X003533Y023916D01*
X003490Y024065D02*
X003596Y024065D01*
X003668Y024213D02*
X003490Y024213D01*
X003490Y024362D02*
X003563Y024362D01*
X003502Y024510D02*
X003490Y024510D01*
X003490Y024659D02*
X003490Y024659D01*
X003490Y024807D02*
X003490Y024807D01*
X003490Y024956D02*
X003550Y024956D01*
X003490Y025104D02*
X003635Y025104D01*
X003490Y025253D02*
X003784Y025253D01*
X003895Y025550D02*
X003490Y025550D01*
X003490Y025698D02*
X003683Y025698D01*
X003570Y025847D02*
X003490Y025847D01*
X003490Y025995D02*
X003508Y025995D01*
X003490Y026144D02*
X003490Y026144D01*
X003490Y026292D02*
X003490Y026292D01*
X004455Y025550D02*
X004999Y025550D01*
X004850Y025698D02*
X004667Y025698D01*
X004566Y025253D02*
X005296Y025253D01*
X005147Y025401D02*
X003490Y025401D01*
X004715Y025104D02*
X005444Y025104D01*
X005593Y024956D02*
X004800Y024956D01*
X004860Y024807D02*
X005741Y024807D01*
X005890Y024659D02*
X004860Y024659D01*
X004848Y024510D02*
X006038Y024510D01*
X006187Y024362D02*
X004787Y024362D01*
X004682Y024213D02*
X006335Y024213D01*
X006484Y024065D02*
X004754Y024065D01*
X004817Y023916D02*
X006632Y023916D01*
X006781Y023768D02*
X004860Y023768D01*
X004860Y023619D02*
X006929Y023619D01*
X007078Y023471D02*
X004832Y023471D01*
X004770Y023322D02*
X007226Y023322D01*
X007375Y023174D02*
X004642Y023174D01*
X004718Y023025D02*
X015421Y023025D01*
X015360Y023174D02*
X009475Y023174D01*
X009624Y023322D02*
X015360Y023322D01*
X015399Y023471D02*
X009772Y023471D01*
X009921Y023619D02*
X015491Y023619D01*
X015718Y023768D02*
X010069Y023768D01*
X009411Y024213D02*
X007439Y024213D01*
X007587Y024065D02*
X009263Y024065D01*
X009114Y023916D02*
X007736Y023916D01*
X007290Y024362D02*
X009560Y024362D01*
X009715Y024510D02*
X007142Y024510D01*
X007540Y026144D02*
X005508Y026144D01*
X005360Y026292D02*
X007283Y026292D01*
X007114Y026441D02*
X005211Y026441D01*
X004730Y026589D02*
X006965Y026589D01*
X006860Y026738D02*
X004706Y026738D01*
X004797Y026886D02*
X006774Y026886D01*
X006692Y027035D02*
X004858Y027035D01*
X004860Y027183D02*
X006653Y027183D01*
X006613Y027332D02*
X004852Y027332D01*
X004790Y027480D02*
X006580Y027480D01*
X006580Y027629D02*
X004690Y027629D01*
X004175Y027175D02*
X003575Y027775D01*
X004175Y031175D02*
X006175Y031175D01*
X008217Y032381D02*
X010079Y032381D01*
X010227Y032529D02*
X008365Y032529D01*
X008492Y032678D02*
X010376Y032678D01*
X010524Y032826D02*
X008553Y032826D01*
X008615Y032975D02*
X010673Y032975D01*
X010821Y033123D02*
X008620Y033123D01*
X008620Y033272D02*
X010970Y033272D01*
X011118Y033420D02*
X008596Y033420D01*
X008535Y033569D02*
X011267Y033569D01*
X011415Y033717D02*
X008469Y033717D01*
X008321Y033866D02*
X011564Y033866D01*
X011713Y034014D02*
X008119Y034014D01*
X006754Y037430D02*
X005540Y037430D01*
X005540Y037578D02*
X006730Y037578D01*
X006730Y037727D02*
X005540Y037727D01*
X005540Y037875D02*
X006735Y037875D01*
X006797Y038024D02*
X005540Y038024D01*
X005540Y038172D02*
X006858Y038172D01*
X006984Y038321D02*
X005540Y038321D01*
X005540Y038469D02*
X007133Y038469D01*
X008167Y040845D02*
X010194Y040845D01*
X010451Y040994D02*
X008344Y040994D01*
X008488Y041142D02*
X010866Y041142D01*
X011587Y041142D02*
X015035Y041142D01*
X015035Y040994D02*
X012001Y040994D01*
X012258Y040845D02*
X015035Y040845D01*
X015035Y040697D02*
X012410Y040697D01*
X012558Y040548D02*
X015035Y040548D01*
X015035Y040400D02*
X012654Y040400D01*
X012739Y040251D02*
X015035Y040251D01*
X015035Y040103D02*
X012814Y040103D01*
X012853Y039954D02*
X015035Y039954D01*
X015035Y039806D02*
X012893Y039806D01*
X012919Y039657D02*
X015035Y039657D01*
X015035Y039509D02*
X012919Y039509D01*
X012919Y039360D02*
X015035Y039360D01*
X015035Y039212D02*
X012905Y039212D01*
X012866Y039063D02*
X015035Y039063D01*
X015035Y038915D02*
X012826Y038915D01*
X012765Y038766D02*
X015035Y038766D01*
X015035Y038618D02*
X012680Y038618D01*
X012594Y038469D02*
X015035Y038469D01*
X015035Y038321D02*
X012455Y038321D01*
X012306Y038172D02*
X015035Y038172D01*
X015035Y038024D02*
X012079Y038024D01*
X015035Y041291D02*
X008549Y041291D01*
X008611Y041439D02*
X015035Y041439D01*
X015035Y041588D02*
X008630Y041588D01*
X008630Y041736D02*
X015035Y041736D01*
X015035Y041885D02*
X008622Y041885D01*
X008560Y042033D02*
X015035Y042033D01*
X015035Y042182D02*
X008499Y042182D01*
X006851Y042182D02*
X006583Y042182D01*
X006435Y042033D02*
X006790Y042033D01*
X006525Y042675D02*
X006125Y042275D01*
X006074Y042776D02*
X005803Y042776D01*
X006223Y042924D02*
X005200Y042924D01*
X005175Y042925D02*
X004925Y042925D01*
X004425Y043425D01*
X004175Y043425D01*
X004200Y043450D02*
X004681Y043450D01*
X004731Y043400D01*
X004200Y043400D01*
X004200Y043450D01*
X005860Y044855D02*
X007160Y044855D01*
X006996Y045003D02*
X005860Y045003D01*
X005823Y045152D02*
X006858Y045152D01*
X006797Y045300D02*
X005761Y045300D01*
X005620Y045449D02*
X006735Y045449D01*
X006720Y045597D02*
X005342Y045597D01*
X004855Y045746D02*
X006720Y045746D01*
X006732Y045894D02*
X003490Y045894D01*
X003490Y046043D02*
X006794Y046043D01*
X006855Y046191D02*
X003490Y046191D01*
X003490Y046340D02*
X006989Y046340D01*
X007142Y046488D02*
X003490Y046488D01*
X004851Y047429D02*
X004851Y047429D01*
X006525Y042675D02*
X015425Y042675D01*
X022008Y038321D02*
X025580Y038321D01*
X025623Y038172D02*
X022130Y038172D01*
X021977Y036810D02*
X029024Y036810D01*
X029303Y036531D01*
X029238Y036467D01*
X029160Y036277D01*
X029160Y036073D01*
X029173Y036040D01*
X028102Y036040D01*
X027968Y035984D01*
X027866Y035882D01*
X025968Y033984D01*
X025866Y033882D01*
X025810Y033748D01*
X025810Y033431D01*
X025671Y033292D01*
X025580Y033073D01*
X025580Y032536D01*
X021840Y036276D01*
X021840Y036312D01*
X021912Y036383D01*
X021990Y036573D01*
X021990Y036777D01*
X021977Y036810D01*
X021990Y036687D02*
X029147Y036687D01*
X029295Y036539D02*
X021976Y036539D01*
X021914Y036390D02*
X029207Y036390D01*
X029160Y036242D02*
X021875Y036242D01*
X022023Y036093D02*
X029160Y036093D01*
X027928Y035945D02*
X022172Y035945D01*
X022320Y035796D02*
X027780Y035796D01*
X027866Y035882D02*
X027866Y035882D01*
X027631Y035648D02*
X022469Y035648D01*
X022617Y035499D02*
X027483Y035499D01*
X027334Y035351D02*
X022766Y035351D01*
X022914Y035202D02*
X027186Y035202D01*
X027037Y035054D02*
X023063Y035054D01*
X023211Y034905D02*
X026889Y034905D01*
X026740Y034757D02*
X023360Y034757D01*
X023508Y034608D02*
X026592Y034608D01*
X026443Y034460D02*
X023657Y034460D01*
X023805Y034311D02*
X026295Y034311D01*
X026146Y034163D02*
X023954Y034163D01*
X024102Y034014D02*
X025998Y034014D01*
X025968Y033984D02*
X025968Y033984D01*
X025859Y033866D02*
X024251Y033866D01*
X024399Y033717D02*
X025810Y033717D01*
X025810Y033569D02*
X024548Y033569D01*
X024696Y033420D02*
X025799Y033420D01*
X025662Y033272D02*
X024845Y033272D01*
X024993Y033123D02*
X025601Y033123D01*
X025580Y032975D02*
X025142Y032975D01*
X025290Y032826D02*
X025580Y032826D01*
X025580Y032678D02*
X025439Y032678D01*
X023218Y033866D02*
X018382Y033866D01*
X018530Y034014D02*
X023070Y034014D01*
X022921Y034163D02*
X018679Y034163D01*
X018827Y034311D02*
X022773Y034311D01*
X022624Y034460D02*
X018976Y034460D01*
X019124Y034608D02*
X022476Y034608D01*
X022327Y034757D02*
X019273Y034757D01*
X019421Y034905D02*
X022179Y034905D01*
X022030Y035054D02*
X019570Y035054D01*
X019718Y035202D02*
X021882Y035202D01*
X021733Y035351D02*
X019867Y035351D01*
X020015Y035499D02*
X021585Y035499D01*
X021436Y035648D02*
X020164Y035648D01*
X020312Y035796D02*
X021288Y035796D01*
X021155Y035945D02*
X020461Y035945D01*
X020609Y036093D02*
X021110Y036093D01*
X021110Y036242D02*
X020758Y036242D01*
X020906Y036390D02*
X021036Y036390D01*
X022602Y033717D02*
X022748Y033717D01*
X024152Y028668D02*
X029086Y028668D01*
X029361Y028188D02*
X029284Y028133D01*
X029217Y028066D01*
X029162Y027989D01*
X029119Y027905D01*
X029090Y027815D01*
X029075Y027722D01*
X029075Y027675D01*
X029675Y027675D01*
X029675Y027675D01*
X029675Y027675D01*
X029675Y028275D01*
X029628Y028275D01*
X029534Y028260D01*
X029445Y028231D01*
X029361Y028188D01*
X029428Y028223D02*
X024479Y028223D01*
X024628Y028074D02*
X029226Y028074D01*
X029129Y027926D02*
X024776Y027926D01*
X024925Y027777D02*
X029084Y027777D01*
X029075Y027675D02*
X029075Y027628D01*
X029090Y027534D01*
X029119Y027445D01*
X029162Y027361D01*
X029217Y027284D01*
X029284Y027217D01*
X029361Y027162D01*
X029445Y027119D01*
X029534Y027090D01*
X029628Y027075D01*
X029675Y027075D01*
X029675Y027675D01*
X029075Y027675D01*
X029075Y027629D02*
X027926Y027629D01*
X028098Y027480D02*
X029107Y027480D01*
X029183Y027332D02*
X028168Y027332D01*
X028190Y027183D02*
X029331Y027183D01*
X029675Y027183D02*
X029675Y027183D01*
X029675Y027332D02*
X029675Y027332D01*
X029675Y027480D02*
X029675Y027480D01*
X029675Y027629D02*
X029675Y027629D01*
X029675Y027777D02*
X029675Y027777D01*
X029675Y027926D02*
X029675Y027926D01*
X029675Y028074D02*
X029675Y028074D01*
X029675Y028223D02*
X029675Y028223D01*
X030243Y027480D02*
X032928Y027480D01*
X032780Y027332D02*
X030167Y027332D01*
X030056Y027183D02*
X030019Y027183D01*
X030294Y027183D02*
X032631Y027183D01*
X033141Y026589D02*
X034620Y026589D01*
X034544Y026441D02*
X032992Y026441D01*
X032770Y026292D02*
X034490Y026292D01*
X034769Y026738D02*
X033289Y026738D01*
X028623Y025401D02*
X026929Y025401D01*
X025660Y027183D02*
X025519Y027183D01*
X025370Y027332D02*
X025682Y027332D01*
X025752Y027480D02*
X025222Y027480D01*
X025073Y027629D02*
X025924Y027629D01*
X026426Y027629D02*
X027424Y027629D01*
X031452Y023768D02*
X031898Y023768D01*
X031749Y023619D02*
X031601Y023619D01*
X036557Y019758D02*
X036793Y019758D01*
X037557Y019758D02*
X037793Y019758D01*
X038557Y019758D02*
X038793Y019758D01*
X036892Y015006D02*
X036610Y015006D01*
X036685Y013967D02*
X036721Y013967D01*
X036610Y013521D02*
X036928Y013521D01*
X036710Y013373D02*
X036696Y013373D01*
X035740Y013670D02*
X033500Y013670D01*
X033657Y013818D02*
X035740Y013818D01*
X035665Y013967D02*
X033738Y013967D01*
X033773Y014115D02*
X035562Y014115D01*
X035500Y014264D02*
X033768Y014264D01*
X033728Y014412D02*
X035490Y014412D01*
X035490Y014561D02*
X033637Y014561D01*
X033783Y014709D02*
X035551Y014709D01*
X033175Y014115D02*
X033175Y014115D01*
X033175Y013967D02*
X033175Y013967D01*
X033175Y013818D02*
X033175Y013818D01*
X033175Y013670D02*
X033175Y013670D01*
X030153Y015749D02*
X028967Y015749D01*
X029067Y015897D02*
X030240Y015897D01*
X030240Y016046D02*
X029129Y016046D01*
X029130Y016194D02*
X030240Y016194D01*
X030240Y016343D02*
X029113Y016343D01*
X029051Y016491D02*
X030240Y016491D01*
X030240Y016640D02*
X028929Y016640D01*
X028674Y016788D02*
X030240Y016788D01*
X030240Y016937D02*
X021465Y016937D01*
X021549Y017085D02*
X021317Y017085D01*
X021400Y017234D02*
X021168Y017234D01*
X021252Y017382D02*
X021020Y017382D01*
X021103Y017531D02*
X020871Y017531D01*
X020955Y017679D02*
X020723Y017679D01*
X020806Y017828D02*
X020574Y017828D01*
X020658Y017976D02*
X020426Y017976D01*
X020509Y018125D02*
X020277Y018125D01*
X020361Y018273D02*
X020129Y018273D01*
X020212Y018422D02*
X019980Y018422D01*
X020064Y018570D02*
X019832Y018570D01*
X019915Y018719D02*
X019683Y018719D01*
X019767Y018867D02*
X019535Y018867D01*
X019618Y019016D02*
X019386Y019016D01*
X019470Y019164D02*
X019238Y019164D01*
X019321Y019313D02*
X019089Y019313D01*
X019173Y019461D02*
X018941Y019461D01*
X019024Y019610D02*
X018792Y019610D01*
X018876Y019758D02*
X018644Y019758D01*
X018727Y019907D02*
X018495Y019907D01*
X018579Y020055D02*
X018347Y020055D01*
X016501Y020798D02*
X009605Y020798D01*
X008956Y020946D02*
X016352Y020946D01*
X016204Y021095D02*
X008807Y021095D01*
X008906Y020996D02*
X008906Y020996D01*
X008575Y020775D02*
X009175Y020175D01*
X008645Y019610D02*
X008376Y019610D01*
X008175Y019610D02*
X008175Y019610D01*
X008175Y019575D02*
X008175Y020175D01*
X008175Y020175D01*
X008175Y020175D01*
X007575Y020175D01*
X007575Y020128D01*
X007590Y020034D01*
X007619Y019945D01*
X007662Y019861D01*
X007717Y019784D01*
X007784Y019717D01*
X007861Y019662D01*
X007945Y019619D01*
X008034Y019590D01*
X008128Y019575D01*
X008175Y019575D01*
X008175Y019758D02*
X008175Y019758D01*
X008175Y019907D02*
X008175Y019907D01*
X008175Y020055D02*
X008175Y020055D01*
X007974Y019610D02*
X004709Y019610D01*
X004727Y019758D02*
X007743Y019758D01*
X007638Y019907D02*
X004805Y019907D01*
X004860Y020055D02*
X007587Y020055D01*
X007575Y020204D02*
X004860Y020204D01*
X004904Y020352D02*
X007602Y020352D01*
X008575Y020775D02*
X004775Y020775D01*
X004175Y020175D01*
X003545Y019907D02*
X003490Y019907D01*
X003490Y020055D02*
X003490Y020055D01*
X003490Y020204D02*
X003490Y020204D01*
X003490Y020352D02*
X003507Y020352D01*
X003490Y020501D02*
X003568Y020501D01*
X003490Y020649D02*
X003680Y020649D01*
X003590Y020798D02*
X003490Y020798D01*
X003490Y020946D02*
X003528Y020946D01*
X003490Y021095D02*
X003490Y021095D01*
X003490Y021243D02*
X003490Y021243D01*
X003490Y021392D02*
X003523Y021392D01*
X003490Y021540D02*
X003585Y021540D01*
X003490Y021689D02*
X003720Y021689D01*
X003490Y021837D02*
X003983Y021837D01*
X004150Y022134D02*
X004200Y022134D01*
X004200Y022283D02*
X004150Y022283D01*
X004150Y022431D02*
X004200Y022431D01*
X004200Y022580D02*
X004150Y022580D01*
X004175Y022675D02*
X006675Y022675D01*
X004819Y022728D02*
X015906Y022728D01*
X016054Y022580D02*
X004813Y022580D01*
X004772Y022431D02*
X016203Y022431D01*
X016351Y022283D02*
X004687Y022283D01*
X004789Y022877D02*
X015545Y022877D01*
X016175Y021675D02*
X021675Y016175D01*
X028175Y016175D01*
X027676Y016788D02*
X021614Y016788D01*
X021762Y016640D02*
X027421Y016640D01*
X025860Y017382D02*
X030240Y017382D01*
X030240Y017234D02*
X025705Y017234D01*
X025923Y017531D02*
X030240Y017531D01*
X030240Y017679D02*
X025940Y017679D01*
X025919Y017828D02*
X030267Y017828D01*
X030361Y017976D02*
X025852Y017976D01*
X025686Y018125D02*
X030509Y018125D01*
X030658Y018273D02*
X021393Y018273D01*
X021245Y018422D02*
X030806Y018422D01*
X030955Y018570D02*
X021096Y018570D01*
X020948Y018719D02*
X031103Y018719D01*
X030240Y017085D02*
X025351Y017085D01*
X024931Y017828D02*
X021839Y017828D01*
X021690Y017976D02*
X024998Y017976D01*
X025164Y018125D02*
X021542Y018125D01*
X022726Y021540D02*
X022918Y021540D01*
X022693Y021689D02*
X022657Y021689D01*
X019175Y024175D02*
X018425Y024175D01*
X016025Y024175D02*
X013275Y026925D01*
X016175Y021675D02*
X004675Y021675D01*
X004175Y021175D01*
X004860Y021243D02*
X016055Y021243D01*
X010175Y017675D02*
X008375Y017675D01*
X008175Y017475D01*
X008175Y017425D01*
X007250Y015006D02*
X007100Y015006D01*
X007100Y014858D02*
X007250Y014858D01*
X007250Y014709D02*
X007100Y014709D01*
X007100Y014561D02*
X007250Y014561D01*
X007250Y014412D02*
X007100Y014412D01*
X007692Y013818D02*
X024718Y013818D01*
X024660Y013670D02*
X007835Y013670D01*
X007925Y013521D02*
X024569Y013521D01*
X024421Y013373D02*
X007976Y013373D01*
X003663Y018719D02*
X003490Y018719D01*
X003490Y018867D02*
X003561Y018867D01*
X003500Y019016D02*
X003490Y019016D01*
X003490Y019164D02*
X003490Y019164D01*
X003490Y019313D02*
X003491Y019313D01*
X003490Y019461D02*
X003552Y019461D01*
X003490Y019610D02*
X003641Y019610D01*
X003623Y019758D02*
X003490Y019758D01*
X032286Y010551D02*
X038560Y010551D01*
X038435Y010106D02*
X038358Y010106D01*
X039934Y008918D02*
X039987Y008918D01*
X040136Y008769D02*
X039785Y008769D01*
X039637Y008621D02*
X040337Y008621D01*
X041706Y009809D02*
X061860Y009809D01*
X061860Y009957D02*
X041644Y009957D01*
X051766Y009363D02*
X058817Y009363D01*
X058831Y009372D02*
X058744Y009321D01*
X058663Y009259D01*
X058591Y009187D01*
X058529Y009106D01*
X058478Y009019D01*
X058440Y008925D01*
X058413Y008827D01*
X058400Y008728D01*
X059122Y008728D01*
X059122Y009450D01*
X059023Y009437D01*
X058925Y009410D01*
X058831Y009372D01*
X058618Y009215D02*
X051914Y009215D01*
X052021Y009066D02*
X058506Y009066D01*
X058438Y008918D02*
X052083Y008918D01*
X052116Y008769D02*
X058406Y008769D01*
X058400Y008622D02*
X058413Y008523D01*
X058440Y008425D01*
X058478Y008331D01*
X058529Y008244D01*
X058591Y008163D01*
X058663Y008091D01*
X058744Y008029D01*
X058831Y007978D01*
X058925Y007940D01*
X059023Y007913D01*
X059122Y007900D01*
X059122Y008622D01*
X058400Y008622D01*
X058400Y008621D02*
X052116Y008621D01*
X052099Y008472D02*
X058427Y008472D01*
X058483Y008324D02*
X052038Y008324D01*
X051954Y008175D02*
X058582Y008175D01*
X058748Y008026D02*
X051805Y008026D01*
X059122Y008026D02*
X059228Y008026D01*
X059228Y007900D02*
X059327Y007913D01*
X059425Y007940D01*
X059519Y007978D01*
X059606Y008029D01*
X059687Y008091D01*
X059759Y008163D01*
X059821Y008244D01*
X059872Y008331D01*
X059910Y008425D01*
X059937Y008523D01*
X059950Y008622D01*
X059228Y008622D01*
X059228Y008728D01*
X059122Y008728D01*
X059122Y008622D01*
X059228Y008622D01*
X059228Y007900D01*
X059228Y008175D02*
X059122Y008175D01*
X059122Y008324D02*
X059228Y008324D01*
X059228Y008472D02*
X059122Y008472D01*
X059122Y008621D02*
X059228Y008621D01*
X059228Y008728D02*
X059950Y008728D01*
X059937Y008827D01*
X059910Y008925D01*
X059872Y009019D01*
X059821Y009106D01*
X059759Y009187D01*
X059687Y009259D01*
X059606Y009321D01*
X059519Y009372D01*
X059425Y009410D01*
X059327Y009437D01*
X059228Y009450D01*
X059228Y008728D01*
X059228Y008769D02*
X059122Y008769D01*
X059122Y008918D02*
X059228Y008918D01*
X059228Y009066D02*
X059122Y009066D01*
X059122Y009215D02*
X059228Y009215D01*
X059228Y009363D02*
X059122Y009363D01*
X059533Y009363D02*
X061860Y009363D01*
X061860Y009215D02*
X059732Y009215D01*
X059844Y009066D02*
X061860Y009066D01*
X061860Y008918D02*
X059912Y008918D01*
X059944Y008769D02*
X061860Y008769D01*
X061860Y008621D02*
X059950Y008621D01*
X059923Y008472D02*
X061860Y008472D01*
X061860Y008324D02*
X059867Y008324D01*
X059768Y008175D02*
X061860Y008175D01*
X061860Y008026D02*
X059602Y008026D01*
X032512Y040251D02*
X031865Y040251D01*
X031790Y040400D02*
X032232Y040400D01*
X032090Y040548D02*
X031790Y040548D01*
X031790Y040697D02*
X032028Y040697D01*
X031990Y040845D02*
X031790Y040845D01*
X031790Y040994D02*
X031990Y040994D01*
X032023Y041142D02*
X031790Y041142D01*
X031790Y041291D02*
X032085Y041291D01*
X032220Y041439D02*
X031790Y041439D01*
X024776Y044558D02*
X023474Y044558D01*
X023675Y044706D02*
X024628Y044706D01*
X024479Y044855D02*
X023784Y044855D01*
X023845Y045003D02*
X024331Y045003D01*
X024182Y045152D02*
X023860Y045152D01*
X023860Y045300D02*
X024034Y045300D01*
X023885Y045449D02*
X023803Y045449D01*
X023737Y045597D02*
X023722Y045597D01*
D28*
X033675Y040925D02*
X033675Y039925D01*
X035175Y039925D01*
X035175Y038675D01*
D29*
X027675Y010175D03*
X028675Y009175D03*
X028675Y007175D03*
X027675Y006175D03*
X026675Y005175D03*
X028675Y005175D03*
X029675Y006175D03*
X030675Y007175D03*
X031675Y006175D03*
X032675Y007175D03*
X033675Y006175D03*
X034675Y007175D03*
X034675Y005175D03*
X032675Y005175D03*
X030675Y005175D03*
D30*
X046175Y010675D03*
X046675Y011175D03*
M02*
