%
M48
M72
T01C0.0200
T02C0.0236
T03C0.0276
T04C0.0320
T05C0.0360
T06C0.0362
T07C0.0394
T08C0.0400
T09C0.0512
T10C0.0610
T11C0.0906
T12C0.1260
T13C0.1280
T14C0.1378
%
T01
X54925Y43375
X39675Y24925
X38675Y30175
X50675Y30675
X8175Y10675
X5175Y17675
X8175Y17425
X6675Y22675
X7175Y11925
X10175Y19675
X10175Y15175
X23675Y10675
X12925Y12925
X12925Y15175
X10175Y10675
X10675Y22675
X16175Y20175
X11675Y12925
X14425Y14000
X14425Y12925
X14425Y15175
X11675Y15175
X16925Y12925
X16925Y13925
X16925Y15175
X16925Y17175
X11925Y17675
X8675Y22675
X11175Y11925
X10175Y17675
X11925Y19675
X12575Y44675
X21675Y26675
X20625Y26675
X55675Y21425
X37925Y28575
X40175Y21475
X36175Y37425
X23175Y8675
X52175Y4175
X43675Y8675
X24675Y4175
X61175Y4175
X4675Y8675
X9175Y5175
X9175Y8675
X17675Y8675
X13175Y8675
X4675Y46675
X9175Y51175
X25675Y51175
X44175Y51175
X61175Y51175
X16675Y51175
X35675Y51175
X52675Y8675
X42675Y4175
X52175Y33675
X6675Y39675
X10175Y34675
X6675Y43675
X42675Y12175
X18675Y39675
X58425Y31925
X56425Y32925
X56425Y16425
X59425Y16425
X47675Y15675
X15675Y33175
X17675Y31175
X10675Y28675
X19675Y34175
X26175Y35675
X24425Y43175
X52925Y22925
X51925Y24425
X50425Y21425
X50425Y19425
X12675Y29675
X15675Y28475
X23675Y28475
X20275Y28975
X52675Y40175
X41975Y18675
X53425Y18675
X38175Y39675
X30175Y26675
X26175Y43675
X57775Y35375
X29775Y45425
X38175Y35175
X44675Y24175
X21675Y37925
X28675Y37675
X60675Y44425
X58925Y24175
X30675Y34675
X21475Y36675
X59925Y44375
X56875Y36325
X57775Y34575
X47925Y34675
X46925Y39475
X43175Y15675
X17675Y33675
X44675Y36675
X43425Y24425
X50175Y29175
X47425Y42175
X17375Y25475
X29175Y24975
X46425Y36675
X29675Y36175
X40175Y42675
X34425Y31425
X50425Y32425
X31175Y30675
X47425Y36675
X40875Y18425
X13275Y26925
X22825Y10675
X25175Y13575
X36425Y20675
X35925Y20425
X36675Y34175
X34675Y34175
X41425Y15925
X33775Y8425
X34675Y8425
X15875Y23275
X25425Y17675
X18775Y27375
X25925Y25375
X22175Y26425
X26575Y25775
X26175Y27175
X27675Y27175
X27675Y42175
X20975Y21175
X23975Y19775
X9175Y31425
X13875Y37175
T02
X46175Y10675
X46675Y11175
T03
X30675Y15175
X30675Y14175
X50175Y42675
X50175Y43675
X9175Y20175
X8175Y20175
T04
X45175Y38675
X44175Y38675
X43175Y38675
X42175Y38675
X41175Y38675
X40175Y38675
X39175Y38675
X38175Y38675
X37175Y38675
X36175Y38675
X35175Y38675
X34175Y38675
X33175Y38675
X32175Y38675
X31175Y38675
X30175Y38675
X29175Y38675
X28175Y38675
X27175Y38675
X26175Y38675
X26175Y32675
X27175Y32675
X28175Y32675
X29175Y32675
X30175Y32675
X31175Y32675
X32175Y32675
X33175Y32675
X34175Y32675
X35175Y32675
X36175Y32675
X37175Y32675
X38175Y32675
X39175Y32675
X40175Y32675
X41175Y32675
X42175Y32675
X43175Y32675
X44175Y32675
X45175Y32675
X23175Y45175
X23175Y46175
X21175Y45175
X21175Y46175
X58425Y19675
X57425Y19675
X33675Y40925
X34675Y40925
X32675Y40925
X46425Y22175
X47425Y22175
X45425Y22175
T05
X29175Y22175
X29175Y23175
X30175Y22175
X30175Y23175
X31175Y22175
X31175Y23175
X32175Y22175
X32175Y23175
X33175Y22175
X33175Y23175
T06
X37933Y9675
X37933Y8415
X38917Y8415
X38917Y9675
T07
X36175Y23175
X37175Y23175
X38175Y23175
X39175Y23175
X40175Y23175
X41175Y23175
X42175Y23175
X36175Y14175
X35175Y14175
X34175Y14175
X36175Y12675
X35175Y12675
X34175Y12675
X4175Y37175
X5175Y36675
X4175Y36175
X4175Y35175
X4175Y34175
X5175Y35675
X5175Y34675
X5175Y33675
X18175Y46175
X17175Y46175
T08
X61315Y43455
X61315Y40895
X59535Y43455
X59535Y40895
X39175Y19175
X38175Y19175
X32175Y19175
X33175Y19175
X34175Y19175
X52175Y45175
X53175Y45175
X54175Y45175
X55175Y45175
X56175Y45175
X57175Y45175
X58175Y45175
X51175Y45175
X45175Y26175
X46175Y26175
X47175Y26175
X48175Y26175
X49175Y26175
X50175Y26175
X51175Y26175
X44175Y26175
X43175Y45175
X44175Y45175
X45175Y45175
X46175Y45175
X47175Y45175
X48175Y45175
X49175Y45175
X42175Y45175
X34575Y45175
X35575Y45175
X36575Y45175
X37575Y45175
X38575Y45175
X39575Y45175
X40575Y45175
X33575Y45175
X37175Y26175
X38175Y26175
X39175Y26175
X40175Y26175
X41175Y26175
X42175Y26175
X50175Y37175
X49175Y37175
X49175Y36175
X50175Y36175
X49175Y35175
X50175Y35175
X54175Y26175
X55175Y26175
X56175Y26175
X57175Y26175
X58175Y26175
X59175Y26175
X60175Y26175
X53175Y26175
X32575Y45175
X31575Y45175
X35175Y26175
X36175Y26175
X50175Y41175
X49175Y41175
X52175Y30175
X52175Y29175
X52175Y28175
X37175Y19175
X36175Y19175
X35175Y19175
X28175Y14175
X28175Y15175
X28175Y16175
X41175Y43175
X42175Y43175
X43175Y43175
X19175Y10175
X17175Y10175
X25175Y21175
X25175Y20175
X19175Y22175
X20175Y22175
X21175Y22175
X22175Y22175
X23175Y22175
X4175Y21175
X4175Y20175
X4175Y19175
X19175Y23175
X19175Y24175
X20175Y23175
X20175Y24175
X21175Y23175
X21175Y24175
X22175Y23175
X22175Y24175
X23175Y23175
X23175Y24175
X23175Y33175
X22175Y33175
X4175Y30175
X4175Y31175
X4175Y42425
X5175Y42925
X4175Y43425
X5175Y43925
X4175Y44425
X5175Y44925
X4175Y28175
X4175Y27175
X4175Y26175
X4175Y23675
X4175Y24675
X4175Y22675
X33675Y6175
X28675Y9175
X28675Y5175
X32675Y5175
X34675Y5175
X34675Y7175
X31675Y6175
X32675Y7175
X28675Y7175
X30675Y5175
X30675Y7175
X29675Y6175
X27675Y6175
X26675Y5175
X27675Y10175
T09
X59175Y8675
X51301Y8675
T10
X7175Y15175
X7175Y13175
X5175Y15175
X5175Y13175
X6175Y14175
T11
X40795Y9478
X36055Y9478
T12
X7675Y33175
X7675Y37675
T13
X7675Y41675
X7675Y45675
T14
X45675Y47360
X45675Y7990
X25990Y7990
X25990Y47360
X8273Y27675
X11226Y39486
M30
